{"glyphs":{"0":{"ha":979,"x_min":71,"x_max":908,"o":"m 490 -19 q 264 53 361 -19 q 120 236 169 124 q 71 486 71 349 q 118 733 71 622 q 266 921 168 850 q 490 992 364 992 q 794 843 682 992 q 908 486 908 696 q 794 129 908 276 q 490 -19 682 -19 m 331 260 q 490 168 392 168 q 649 260 590 168 q 708 486 708 353 q 649 711 708 621 q 490 804 590 804 q 331 711 390 804 q 271 486 271 621 q 331 260 271 353 z "},"1":{"ha":542,"x_min":28,"x_max":429,"o":"m 429 0 l 233 0 l 233 758 l 28 654 l 28 850 l 256 972 l 429 972 l 429 0 z "},"2":{"ha":803,"x_min":49,"x_max":740,"o":"m 740 0 l 49 0 l 49 146 l 335 406 q 469 550 433 496 q 508 668 508 606 q 463 767 508 731 q 342 804 417 804 q 79 693 206 804 l 79 899 q 363 992 197 992 q 604 910 501 992 q 707 694 707 828 q 661 513 707 592 q 501 328 619 438 l 335 175 l 740 175 l 740 0 z "},"3":{"ha":801,"x_min":54,"x_max":742,"o":"m 350 -19 q 54 58 178 -19 l 54 249 q 339 160 182 160 q 485 203 428 160 q 542 322 542 247 q 489 437 542 393 q 349 481 436 481 q 211 454 278 481 l 211 586 l 443 800 l 85 800 l 85 972 l 699 972 l 699 822 l 479 621 q 663 525 583 603 q 742 322 742 449 q 629 74 742 167 q 350 -19 518 -19 z "},"4":{"ha":890,"x_min":32,"x_max":857,"o":"m 714 0 l 519 0 l 519 243 l 32 243 l 32 388 l 517 972 l 714 972 l 714 404 l 857 404 l 857 243 l 714 243 l 714 0 m 519 721 l 253 404 l 519 404 l 519 721 z "},"5":{"ha":815,"x_min":65,"x_max":749,"o":"m 342 -19 q 65 50 189 -19 l 65 238 q 333 160 189 160 q 488 203 428 160 q 549 322 549 246 q 490 439 549 394 q 332 483 431 483 q 99 442 217 483 l 163 972 l 682 972 l 682 800 l 310 800 l 289 635 q 382 644 332 644 q 644 556 543 644 q 749 322 749 467 q 631 71 749 163 q 342 -19 513 -19 z "},"6":{"ha":886,"x_min":76,"x_max":817,"o":"m 464 -19 q 178 101 281 -19 q 76 436 76 222 q 104 644 76 546 q 185 822 132 743 q 326 946 239 900 q 522 992 413 992 q 742 929 647 992 l 742 749 q 544 811 650 811 q 356 736 425 811 q 279 547 288 663 q 506 638 357 638 q 728 551 638 638 q 817 324 817 467 q 715 76 817 172 q 464 -19 615 -19 m 451 153 q 572 199 525 153 q 618 319 618 246 q 571 436 618 390 q 451 482 524 482 q 344 447 394 482 q 274 360 294 413 q 325 207 278 261 q 451 153 372 153 z "},"7":{"ha":788,"x_min":49,"x_max":735,"o":"m 324 0 l 111 0 l 508 793 l 49 793 l 49 972 l 735 972 l 735 818 l 324 0 z "},"8":{"ha":885,"x_min":54,"x_max":831,"o":"m 650 518 q 781 424 732 489 q 831 276 831 358 q 718 60 831 139 q 443 -19 608 -19 q 167 60 279 -19 q 54 276 54 139 q 103 424 54 358 q 235 518 153 489 q 135 601 171 547 q 99 722 99 656 q 196 917 99 842 q 443 992 294 992 q 688 917 589 992 q 786 722 786 842 q 750 601 786 656 q 650 518 714 547 m 292 703 q 335 616 292 650 q 443 582 379 582 q 550 616 507 582 q 593 703 593 650 q 550 791 593 757 q 443 825 507 825 q 335 791 379 825 q 292 703 292 757 m 624 289 q 572 390 624 350 q 443 431 521 431 q 313 390 365 431 q 261 289 261 350 q 313 189 261 229 q 443 149 365 149 q 572 189 521 149 q 624 289 624 229 z "},"9":{"ha":886,"x_min":69,"x_max":810,"o":"m 422 992 q 708 871 606 992 q 810 536 810 750 q 782 328 810 426 q 701 151 754 229 q 560 26 647 72 q 364 -19 474 -19 q 144 43 239 -19 l 144 224 q 342 161 236 161 q 529 236 461 161 q 607 425 599 313 q 381 335 529 335 q 158 419 247 335 q 69 649 69 504 q 169 896 69 800 q 422 992 271 992 m 435 819 q 315 773 361 819 q 268 653 268 726 q 315 536 268 582 q 435 490 363 490 q 542 525 492 490 q 613 614 592 560 q 561 766 608 713 q 435 819 514 819 z "}," ":{"ha":356,"x_min":0,"x_max":0,"o":""},"!":{"ha":463,"x_min":111,"x_max":351,"o":"m 111 106 q 147 192 111 157 q 232 226 182 226 q 317 192 282 226 q 351 106 351 157 q 317 20 351 56 q 232 -15 282 -15 q 147 20 182 -15 q 111 106 111 56 m 307 324 l 156 324 l 113 972 l 351 972 l 307 324 z "},"\"":{"ha":543,"x_min":49,"x_max":497,"o":"m 217 560 l 49 560 l 49 972 l 217 972 l 217 560 m 497 560 l 328 560 l 328 972 l 497 972 l 497 560 z "},"#":{"ha":1075,"x_min":49,"x_max":1028,"o":"m 357 0 l 204 0 l 240 232 l 49 232 l 72 383 l 264 383 l 297 589 l 106 589 l 128 740 l 321 740 l 358 972 l 511 972 l 474 740 l 682 740 l 719 972 l 871 972 l 835 740 l 1028 740 l 1003 589 l 811 589 l 778 383 l 971 383 l 947 232 l 754 232 l 717 0 l 565 0 l 603 232 l 393 232 l 357 0 m 450 589 l 417 383 l 625 383 l 658 589 l 450 589 z "},"$":{"ha":874,"x_min":60,"x_max":815,"o":"m 522 -151 l 342 -151 l 342 -14 q 60 85 174 4 l 60 293 q 221 201 121 240 q 421 164 322 164 q 556 194 503 164 q 608 276 608 224 q 558 357 608 333 q 503 382 538 369 l 469 393 l 392 417 l 319 440 q 254 464 304 444 q 192 493 211 481 q 100 578 119 543 q 67 714 67 644 q 139 895 67 825 q 342 985 211 965 l 342 1124 l 522 1124 l 522 986 q 751 911 636 972 l 751 717 q 436 808 603 808 q 271 713 271 808 q 322 646 271 671 q 401 617 353 629 q 507 586 467 599 q 718 485 628 549 q 815 282 815 417 q 735 88 815 167 q 522 -11 654 10 l 522 -151 z "},"%":{"ha":1136,"x_min":33,"x_max":1101,"o":"m 349 0 l 208 0 l 789 972 l 929 972 l 349 0 m 679 399 q 856 467 747 467 q 1032 399 964 467 q 1101 229 1101 329 q 1032 60 1101 129 q 856 -8 964 -8 q 679 60 747 -8 q 610 229 610 129 q 679 399 610 329 m 775 149 q 856 117 807 117 q 935 149 903 117 q 967 229 967 181 q 935 310 967 278 q 856 342 903 342 q 775 310 807 342 q 744 229 744 278 q 775 149 744 181 m 103 913 q 279 981 171 981 q 456 913 388 981 q 525 743 525 843 q 456 574 525 643 q 279 506 388 506 q 103 574 171 506 q 33 743 33 643 q 103 913 33 843 m 199 663 q 279 631 231 631 q 358 663 326 631 q 390 743 390 694 q 358 824 390 792 q 279 856 326 856 q 199 824 231 856 q 168 743 168 792 q 199 663 168 694 z "},"&":{"ha":1043,"x_min":51,"x_max":1029,"o":"m 713 921 l 713 733 q 485 821 597 821 q 394 790 431 821 q 358 715 358 760 q 371 665 358 690 q 447 574 388 633 l 690 332 q 743 531 739 406 l 931 531 q 824 203 924 346 l 1029 0 l 782 0 l 701 76 q 410 -19 572 -19 q 153 63 256 -19 q 51 293 51 146 q 101 467 51 394 q 217 571 154 540 q 165 726 165 639 q 246 915 165 840 q 456 992 326 992 q 713 921 600 992 m 422 151 q 572 206 506 151 l 329 446 q 269 389 294 429 q 243 301 243 349 q 293 192 243 232 q 422 151 343 151 z "},"'":{"ha":263,"x_min":49,"x_max":217,"o":"m 217 560 l 49 560 l 49 972 l 217 972 l 217 560 z "},"(":{"ha":539,"x_min":99,"x_max":499,"o":"m 499 -286 l 299 -286 q 99 347 99 -33 q 299 981 99 725 l 499 981 q 278 347 278 697 q 499 -286 278 -3 z "},")":{"ha":539,"x_min":40,"x_max":440,"o":"m 240 -286 l 40 -286 q 261 347 261 -3 q 40 981 261 697 l 240 981 q 440 347 440 725 q 240 -286 440 -33 z "},"*":{"ha":585,"x_min":38,"x_max":543,"o":"m 350 457 l 232 457 l 236 619 l 97 535 l 38 638 l 181 715 l 38 793 l 97 896 l 236 810 l 232 972 l 350 972 l 346 810 l 483 896 l 543 793 l 399 715 l 543 638 l 483 535 l 346 619 l 350 457 z "},"+":{"ha":890,"x_min":92,"x_max":799,"o":"m 533 107 l 356 107 l 356 372 l 92 372 l 92 547 l 356 547 l 356 814 l 533 814 l 533 547 l 799 547 l 799 372 l 533 372 l 533 107 z "},",":{"ha":389,"x_min":8,"x_max":338,"o":"m 169 -211 l 8 -211 l 128 210 l 338 210 l 169 -211 z "},"-":{"ha":696,"x_min":133,"x_max":563,"o":"m 563 297 l 133 297 l 133 474 l 563 474 l 563 297 z "},".":{"ha":365,"x_min":63,"x_max":304,"o":"m 183 -15 q 97 20 132 -15 q 63 107 63 56 q 97 192 63 157 q 183 226 132 226 q 269 192 233 226 q 304 107 304 157 q 269 20 304 56 q 183 -15 233 -15 z "},"/":{"ha":740,"x_min":-28,"x_max":753,"o":"m 168 -194 l -28 -194 l 557 1100 l 753 1100 l 168 -194 z "},":":{"ha":365,"x_min":63,"x_max":304,"o":"m 183 443 q 97 478 132 443 q 63 565 63 514 q 97 650 63 615 q 183 685 132 685 q 269 650 233 685 q 304 565 304 615 q 269 478 304 514 q 183 443 233 443 m 183 -15 q 97 20 132 -15 q 63 107 63 56 q 97 192 63 157 q 183 226 132 226 q 269 192 233 226 q 304 107 304 157 q 269 20 304 56 q 183 -15 233 -15 z "},";":{"ha":396,"x_min":8,"x_max":344,"o":"m 169 -211 l 8 -211 l 128 210 l 338 210 l 169 -211 m 224 443 q 138 478 172 443 q 103 565 103 514 q 138 650 103 615 q 224 685 172 685 q 309 650 274 685 q 344 565 344 615 q 309 478 344 514 q 224 443 274 443 z "},"<":{"ha":890,"x_min":92,"x_max":799,"o":"m 799 269 l 799 79 l 92 365 l 92 550 l 799 838 l 799 647 l 294 458 l 799 269 z "},"=":{"ha":890,"x_min":92,"x_max":799,"o":"m 799 529 l 92 529 l 92 706 l 799 706 l 799 529 m 799 214 l 92 214 l 92 392 l 799 392 l 799 214 z "},">":{"ha":890,"x_min":92,"x_max":799,"o":"m 799 365 l 92 79 l 92 269 l 596 458 l 92 647 l 92 838 l 799 550 l 799 365 z "},"?":{"ha":682,"x_min":35,"x_max":644,"o":"m 393 324 l 207 324 l 207 529 q 371 594 300 549 q 443 701 443 642 q 399 784 443 756 q 283 813 356 813 q 35 735 165 813 l 35 910 q 315 992 154 992 q 547 917 451 992 q 644 714 644 844 q 569 539 644 611 q 393 435 494 465 l 393 324 m 304 -15 q 218 20 253 -15 q 183 107 183 56 q 218 192 183 157 q 304 226 253 226 q 390 192 354 226 q 425 107 425 157 q 390 20 425 56 q 304 -15 354 -15 z "},"@":{"ha":1306,"x_min":50,"x_max":1257,"o":"m 654 -225 q 225 -53 399 -225 q 50 383 50 121 q 226 815 50 640 q 654 992 403 992 q 1083 825 911 992 q 1257 419 1257 658 q 1186 168 1257 261 q 1003 75 1118 75 q 804 175 864 75 q 717 99 772 129 q 592 69 663 69 q 392 158 471 69 q 314 381 314 249 q 392 601 314 511 q 589 692 469 692 q 782 601 708 692 l 782 675 l 950 675 l 950 281 q 1046 142 950 142 q 1157 217 1108 142 q 1204 419 1204 290 q 1051 789 1204 633 q 654 943 900 943 q 258 779 414 943 q 103 383 103 618 q 258 -14 103 146 q 654 -176 414 -176 q 956 -93 806 -176 l 956 -147 q 654 -225 819 -225 m 642 221 q 782 299 733 221 l 782 463 q 642 540 733 540 q 534 494 576 540 q 492 381 492 449 q 534 267 492 313 q 642 221 576 221 z "},"A":{"ha":1069,"x_min":22,"x_max":1047,"o":"m 232 0 l 22 0 l 439 978 l 631 978 l 1047 0 l 835 0 l 739 225 l 328 225 l 232 0 m 533 728 l 390 390 l 675 390 l 533 728 z "},"B":{"ha":994,"x_min":107,"x_max":933,"o":"m 596 0 l 107 0 l 107 972 l 564 972 q 778 908 699 972 q 858 729 858 844 q 824 608 858 658 q 736 536 789 558 q 875 450 815 519 q 933 276 933 382 q 842 76 933 153 q 596 0 751 0 m 307 426 l 307 172 l 558 172 q 675 205 633 172 q 717 299 717 238 q 675 393 717 360 q 558 426 633 426 l 307 426 m 307 806 l 307 592 l 532 592 q 630 619 594 592 q 665 697 665 647 q 630 777 665 749 q 532 806 594 806 l 307 806 z "},"C":{"ha":940,"x_min":74,"x_max":876,"o":"m 600 -19 q 224 122 374 -19 q 74 486 74 267 q 222 850 74 708 q 600 992 372 992 q 857 931 742 992 l 857 729 q 601 804 744 804 q 369 714 464 804 q 278 486 278 625 q 372 257 278 347 q 610 168 465 168 q 876 253 769 168 l 876 51 q 600 -19 758 -19 z "},"D":{"ha":1078,"x_min":107,"x_max":1004,"o":"m 471 0 l 107 0 l 107 972 l 471 972 q 856 836 707 972 q 1004 486 1004 700 q 856 135 1004 271 q 471 0 708 0 m 307 793 l 307 179 l 454 179 q 708 260 617 179 q 799 486 799 342 q 708 712 799 631 q 454 793 617 793 l 307 793 z "},"E":{"ha":889,"x_min":107,"x_max":836,"o":"m 836 0 l 107 0 l 107 972 l 821 972 l 821 793 l 307 793 l 307 606 l 721 606 l 721 429 l 307 429 l 307 179 l 836 179 l 836 0 z "},"F":{"ha":872,"x_min":107,"x_max":819,"o":"m 307 0 l 107 0 l 107 972 l 819 972 l 819 793 l 307 793 l 307 596 l 703 596 l 703 419 l 307 419 l 307 0 z "},"G":{"ha":1065,"x_min":74,"x_max":988,"o":"m 592 -19 q 222 122 369 -19 q 74 486 74 267 q 222 850 74 708 q 599 992 369 992 q 890 918 767 992 l 890 721 q 613 804 756 804 q 371 715 464 804 q 278 482 278 628 q 368 251 278 338 q 592 165 458 165 q 788 229 719 165 l 788 564 l 988 564 l 988 135 q 821 25 925 68 q 592 -19 713 -19 z "},"H":{"ha":1053,"x_min":107,"x_max":944,"o":"m 307 0 l 107 0 l 107 972 l 307 972 l 307 608 l 746 608 l 746 972 l 944 972 l 944 0 l 746 0 l 746 426 l 307 426 l 307 0 z "},"I":{"ha":426,"x_min":114,"x_max":313,"o":"m 313 0 l 114 0 l 114 972 l 313 972 l 313 0 z "},"J":{"ha":708,"x_min":39,"x_max":614,"o":"m 272 -19 q 39 38 121 -19 l 39 235 q 231 168 122 168 q 370 212 325 168 q 415 353 415 256 l 415 972 l 614 972 l 614 319 q 587 158 614 226 q 511 53 560 90 q 403 -2 463 15 q 272 -19 344 -19 z "},"K":{"ha":981,"x_min":107,"x_max":981,"o":"m 307 0 l 107 0 l 107 972 l 307 972 l 307 589 l 665 972 l 910 972 l 497 526 l 981 0 l 725 0 l 307 449 l 307 0 z "},"L":{"ha":838,"x_min":107,"x_max":800,"o":"m 800 0 l 107 0 l 107 972 l 307 972 l 307 179 l 800 179 l 800 0 z "},"M":{"ha":1175,"x_min":107,"x_max":1067,"o":"m 307 0 l 107 0 l 107 972 l 306 972 l 588 569 l 869 972 l 1067 972 l 1067 0 l 869 0 l 869 665 l 646 353 l 535 353 l 307 665 l 307 0 z "},"N":{"ha":1071,"x_min":107,"x_max":963,"o":"m 303 0 l 107 0 l 107 972 l 278 972 l 768 350 l 768 972 l 963 972 l 963 0 l 797 0 l 303 625 l 303 0 z "},"O":{"ha":1156,"x_min":74,"x_max":1082,"o":"m 363 258 q 578 168 449 168 q 792 258 706 168 q 878 486 878 349 q 792 714 878 624 q 578 804 706 804 q 363 714 449 804 q 278 486 278 625 q 363 258 278 347 m 74 486 q 217 844 74 700 q 578 992 360 992 q 938 844 794 992 q 1082 486 1082 697 q 938 128 1082 276 q 578 -19 794 -19 q 217 128 360 -19 q 74 486 74 275 z "},"P":{"ha":915,"x_min":107,"x_max":871,"o":"m 307 0 l 107 0 l 107 972 l 532 972 q 779 890 689 972 q 871 679 871 810 q 779 467 871 547 q 532 385 689 385 l 307 385 l 307 0 m 307 797 l 307 556 l 518 556 q 631 587 590 556 q 671 676 671 618 q 631 766 671 735 q 518 797 590 797 l 307 797 z "},"Q":{"ha":1156,"x_min":74,"x_max":1082,"o":"m 553 -17 q 208 136 344 -8 q 74 486 74 279 q 217 844 74 700 q 578 992 360 992 q 938 844 794 992 q 1082 486 1082 697 q 999 203 1082 331 q 778 21 917 76 q 926 -50 833 -50 q 1042 -21 989 -50 l 1042 -189 q 894 -221 971 -221 q 553 -17 731 -221 m 363 258 q 578 168 449 168 q 792 258 706 168 q 878 486 878 349 q 792 714 878 624 q 578 804 706 804 q 363 714 449 804 q 278 486 278 625 q 363 258 278 347 z "},"R":{"ha":1014,"x_min":107,"x_max":990,"o":"m 307 0 l 107 0 l 107 972 l 557 972 q 801 892 713 972 q 892 685 892 813 q 838 516 892 588 q 690 415 785 444 l 990 0 l 758 0 l 475 393 l 307 393 l 307 0 m 307 797 l 307 561 l 546 561 q 652 592 614 561 q 690 679 690 622 q 652 766 690 735 q 546 797 614 797 l 307 797 z "},"S":{"ha":874,"x_min":60,"x_max":815,"o":"m 429 -19 q 60 85 210 -19 l 60 293 q 221 201 121 240 q 421 164 322 164 q 556 194 503 164 q 608 276 608 224 q 558 357 608 333 q 503 382 538 369 l 469 393 l 392 417 l 319 440 q 254 464 304 444 q 192 493 211 481 q 100 578 119 543 q 67 714 67 644 q 165 917 67 843 q 433 992 264 992 q 751 911 604 992 l 751 717 q 436 808 603 808 q 271 713 271 808 q 322 646 271 671 q 401 617 353 629 q 507 586 467 599 q 718 485 628 549 q 815 282 815 417 q 706 61 815 142 q 429 -19 596 -19 z "},"T":{"ha":899,"x_min":42,"x_max":857,"o":"m 42 793 l 42 972 l 857 972 l 857 793 l 549 793 l 549 0 l 349 0 l 349 793 l 42 793 z "},"U":{"ha":1021,"x_min":94,"x_max":928,"o":"m 510 -19 q 211 93 328 -19 q 94 408 94 206 l 94 972 l 293 972 l 293 401 q 352 228 293 289 q 510 168 411 168 q 669 228 610 168 q 728 401 728 289 l 728 972 l 928 972 l 928 408 q 810 93 928 206 q 510 -19 693 -19 z "},"V":{"ha":1056,"x_min":25,"x_max":1031,"o":"m 622 -6 l 433 -6 l 25 972 l 246 972 l 529 272 l 814 972 l 1031 972 l 622 -6 z "},"W":{"ha":1493,"x_min":29,"x_max":1465,"o":"m 532 -6 l 356 -6 l 29 972 l 251 972 l 451 317 l 671 975 l 826 975 l 1047 317 l 1247 972 l 1465 972 l 1138 -6 l 961 -6 l 749 643 l 532 -6 z "},"X":{"ha":1007,"x_min":8,"x_max":999,"o":"m 67 972 l 300 972 l 504 682 l 711 972 l 942 972 l 621 525 l 999 0 l 765 0 l 501 363 l 239 0 l 8 0 l 388 524 l 67 972 z "},"Y":{"ha":967,"x_min":8,"x_max":958,"o":"m 583 0 l 385 0 l 385 436 l 8 972 l 244 972 l 486 626 l 729 972 l 958 972 l 583 440 l 583 0 z "},"Z":{"ha":890,"x_min":46,"x_max":844,"o":"m 844 0 l 46 0 l 46 142 l 551 793 l 69 793 l 69 972 l 822 972 l 822 832 l 318 179 l 844 179 l 844 0 z "},"[":{"ha":596,"x_min":110,"x_max":546,"o":"m 546 -286 l 110 -286 l 110 981 l 546 981 l 546 826 l 288 826 l 288 -132 l 546 -132 l 546 -286 z "},"\\":{"ha":739,"x_min":-12,"x_max":768,"o":"m 768 -194 l 572 -194 l -12 1100 l 183 1100 l 768 -194 z "},"]":{"ha":596,"x_min":50,"x_max":486,"o":"m 50 981 l 486 981 l 486 -286 l 50 -286 l 50 -132 l 308 -132 l 308 826 l 50 826 l 50 981 z "},"^":{"ha":764,"x_min":47,"x_max":717,"o":"m 233 471 l 47 471 l 289 1025 l 475 1025 l 717 471 l 532 471 l 382 857 l 233 471 z "},"_":{"ha":896,"x_min":6,"x_max":890,"o":"m 890 -207 l 6 -207 l 6 -75 l 890 -75 l 890 -207 z "},"`":{"ha":724,"x_min":185,"x_max":554,"o":"m 185 1003 l 422 1003 l 554 800 l 385 800 l 185 1003 z "},"a":{"ha":836,"x_min":39,"x_max":796,"o":"m 756 151 q 796 160 781 151 l 796 17 q 690 -12 758 -12 q 533 76 572 -12 q 294 -18 442 -18 q 110 46 181 -18 q 39 214 39 110 q 119 383 39 325 q 313 442 200 442 q 513 399 431 442 l 513 419 q 329 550 513 550 q 119 492 217 550 l 119 656 q 376 711 225 711 q 615 639 526 711 q 707 439 707 567 l 707 204 q 756 151 707 151 m 513 204 l 513 274 q 368 314 451 314 q 269 290 306 314 q 232 224 232 267 q 265 156 232 179 q 356 133 299 133 q 513 204 458 133 z "},"b":{"ha":894,"x_min":96,"x_max":846,"o":"m 519 -18 q 292 85 369 -18 l 292 0 l 96 0 l 96 972 l 292 972 l 292 608 q 519 711 374 711 q 753 606 661 711 q 846 347 846 503 q 753 86 846 192 q 519 -18 661 -18 m 464 153 q 599 208 547 153 q 651 347 651 265 q 599 485 651 428 q 464 540 547 540 q 363 512 408 540 q 292 438 317 483 l 292 257 q 363 182 317 211 q 464 153 408 153 z "},"c":{"ha":717,"x_min":50,"x_max":646,"o":"m 426 -18 q 161 82 272 -18 q 50 349 50 185 q 161 611 50 513 q 429 711 274 711 q 635 665 543 711 l 635 499 q 458 540 544 540 q 304 486 367 540 q 243 347 243 433 q 306 207 243 261 q 458 153 368 153 q 646 200 565 153 l 646 33 q 426 -18 549 -18 z "},"d":{"ha":896,"x_min":50,"x_max":800,"o":"m 376 -18 q 142 86 236 -18 q 50 347 50 192 q 142 606 50 501 q 376 711 235 711 q 604 608 522 711 l 604 972 l 800 972 l 800 0 l 604 0 l 604 85 q 376 -18 526 -18 m 432 153 q 533 182 488 153 q 604 257 579 211 l 604 438 q 533 512 579 483 q 432 540 488 540 q 297 485 349 540 q 244 347 244 428 q 297 208 244 265 q 432 153 349 153 z "},"e":{"ha":796,"x_min":50,"x_max":742,"o":"m 435 -18 q 161 82 272 -18 q 50 347 50 182 q 150 606 50 501 q 411 711 250 711 q 651 604 561 711 q 742 344 742 497 l 742 293 l 244 293 q 322 186 260 224 q 476 149 383 149 q 699 210 592 149 l 699 53 q 435 -18 606 -18 m 244 418 l 549 418 q 506 517 546 478 q 403 557 467 557 q 294 519 338 557 q 244 418 251 481 z "},"f":{"ha":590,"x_min":25,"x_max":560,"o":"m 344 529 l 344 0 l 149 0 l 149 529 l 25 529 l 25 693 l 149 693 l 149 758 q 210 926 149 864 q 383 989 271 989 q 560 960 485 989 l 560 801 q 440 825 497 825 q 344 732 344 825 l 344 693 l 560 693 l 560 529 l 344 529 z "},"g":{"ha":886,"x_min":50,"x_max":797,"o":"m 601 613 l 601 693 l 797 693 l 797 81 q 678 -192 797 -97 q 396 -286 558 -286 q 124 -226 225 -286 l 124 -50 q 375 -117 233 -117 q 456 -108 418 -117 q 528 -78 493 -99 q 582 -20 563 -58 q 601 71 601 18 l 601 114 q 372 15 519 15 q 140 115 231 15 q 50 364 50 217 q 140 611 50 510 q 372 711 231 711 q 601 613 519 711 m 429 185 q 531 211 485 185 q 601 279 576 238 l 601 446 q 531 514 576 488 q 429 540 485 540 q 297 490 347 540 q 246 363 246 439 q 298 235 246 286 q 429 185 350 185 z "},"h":{"ha":858,"x_min":96,"x_max":776,"o":"m 292 442 l 292 0 l 96 0 l 96 972 l 292 972 l 292 608 q 524 711 386 711 q 710 635 643 711 q 776 425 776 560 l 776 0 l 581 0 l 581 385 q 544 496 581 460 q 449 532 507 532 q 360 506 404 532 q 292 442 317 481 z "},"i":{"ha":407,"x_min":86,"x_max":319,"o":"m 301 0 l 106 0 l 106 693 l 301 693 l 301 0 m 86 876 q 120 960 86 926 q 203 994 154 994 q 285 960 251 994 q 319 876 319 926 q 285 794 319 828 q 203 760 251 760 q 120 794 154 760 q 86 876 86 828 z "},"j":{"ha":407,"x_min":-104,"x_max":319,"o":"m 50 -286 q -104 -256 -53 -286 l -104 -89 q 0 -115 -56 -115 q 106 -6 106 -115 l 106 693 l 301 693 l 301 -25 q 234 -217 301 -149 q 50 -286 167 -286 m 85 876 q 119 960 85 926 q 201 994 153 994 q 285 960 250 994 q 319 876 319 926 q 285 794 319 828 q 201 760 250 760 q 119 794 153 760 q 85 876 85 828 z "},"k":{"ha":832,"x_min":96,"x_max":818,"o":"m 292 0 l 96 0 l 96 972 l 292 972 l 292 440 l 531 693 l 771 693 l 469 381 l 818 0 l 565 0 l 292 299 l 292 0 z "},"l":{"ha":442,"x_min":96,"x_max":404,"o":"m 281 -18 q 145 28 194 -18 q 96 174 96 75 l 96 972 l 292 972 l 292 225 q 354 156 292 156 q 404 168 383 156 l 404 7 q 281 -18 354 -18 z "},"m":{"ha":1286,"x_min":96,"x_max":1204,"o":"m 292 0 l 96 0 l 96 693 l 292 693 l 292 608 q 503 711 369 711 q 637 678 578 711 q 718 593 696 644 q 818 678 753 646 q 957 711 883 711 q 1138 639 1071 711 q 1204 433 1204 567 l 1204 0 l 1008 0 l 1008 389 q 893 532 1008 532 q 808 506 849 532 q 749 438 768 479 l 749 0 l 553 0 l 553 389 q 438 532 553 532 q 354 506 396 532 q 292 440 313 479 l 292 0 z "},"n":{"ha":858,"x_min":96,"x_max":776,"o":"m 292 442 l 292 0 l 96 0 l 96 693 l 292 693 l 292 610 q 524 711 385 711 q 710 635 643 711 q 776 425 776 560 l 776 0 l 581 0 l 581 385 q 544 496 581 460 q 449 532 507 532 q 360 506 404 532 q 292 442 317 481 z "},"o":{"ha":868,"x_min":50,"x_max":819,"o":"m 243 347 q 243 306 243 347 q 297 208 243 264 q 435 153 351 153 q 572 208 518 153 q 626 347 626 265 q 572 485 626 431 q 435 540 518 540 q 297 485 351 540 q 243 347 243 431 m 50 347 q 158 606 50 501 q 435 711 265 711 q 711 606 604 711 q 819 347 819 500 q 711 86 819 192 q 435 -18 603 -18 q 158 86 267 -18 q 50 347 50 192 z "},"p":{"ha":894,"x_min":96,"x_max":846,"o":"m 519 711 q 753 606 661 711 q 846 346 846 503 q 753 86 846 192 q 519 -18 661 -18 q 292 85 374 -18 l 292 -278 l 96 -278 l 96 693 l 292 693 l 292 608 q 519 711 369 711 m 464 540 q 363 511 408 540 q 292 436 317 482 l 292 256 q 363 181 317 210 q 464 153 408 153 q 599 208 547 153 q 651 346 651 265 q 599 485 651 428 q 464 540 547 540 z "},"q":{"ha":896,"x_min":50,"x_max":800,"o":"m 376 711 q 604 608 526 711 l 604 693 l 800 693 l 800 -278 l 604 -278 l 604 85 q 376 -18 522 -18 q 142 86 236 -18 q 50 346 50 192 q 142 606 50 501 q 376 711 235 711 m 432 540 q 297 485 349 540 q 244 346 244 428 q 297 208 244 265 q 432 153 349 153 q 533 181 488 153 q 604 256 579 210 l 604 436 q 533 511 579 482 q 432 540 488 540 z "},"r":{"ha":588,"x_min":96,"x_max":556,"o":"m 292 0 l 96 0 l 96 693 l 292 693 l 292 576 q 389 671 324 632 q 533 711 457 711 q 556 710 550 711 l 556 518 q 494 525 528 525 q 370 490 426 525 q 292 404 314 454 l 292 0 z "},"s":{"ha":711,"x_min":60,"x_max":661,"o":"m 351 -18 q 60 47 167 -18 l 60 221 q 187 165 110 188 q 343 142 264 142 q 463 200 463 142 q 428 243 463 228 q 392 256 410 251 l 340 268 q 310 276 329 271 q 285 283 292 281 q 110 363 161 317 q 60 499 60 410 q 141 654 60 597 q 365 711 222 711 q 625 647 524 711 l 625 481 q 374 553 501 553 q 263 497 263 553 q 269 477 263 486 q 281 464 275 468 q 301 451 288 460 q 332 442 310 449 q 361 433 354 436 l 435 418 q 606 340 550 392 q 661 199 661 288 q 576 42 661 101 q 351 -18 492 -18 z "},"t":{"ha":613,"x_min":25,"x_max":554,"o":"m 161 215 l 161 529 l 25 529 l 25 693 l 161 693 l 161 883 l 357 883 l 357 693 l 554 693 l 554 529 l 357 529 l 357 254 q 379 180 357 203 q 451 157 401 157 q 553 182 503 157 l 553 19 q 388 -18 492 -18 q 161 215 161 -18 z "},"u":{"ha":860,"x_min":83,"x_max":764,"o":"m 568 251 l 568 693 l 764 693 l 764 0 l 568 0 l 568 83 q 336 -18 475 -18 q 150 58 217 -18 q 83 268 83 133 l 83 693 l 279 693 l 279 308 q 316 197 279 233 q 411 161 353 161 q 499 187 456 161 q 568 251 543 213 z "},"v":{"ha":818,"x_min":18,"x_max":799,"o":"m 497 -6 l 319 -6 l 18 693 l 229 693 l 413 243 l 594 693 l 799 693 l 497 -6 z "},"w":{"ha":1149,"x_min":26,"x_max":1122,"o":"m 428 -6 l 261 -6 l 26 693 l 222 693 l 360 281 l 496 696 l 653 696 l 793 281 l 928 693 l 1122 693 l 885 -6 l 715 -6 l 571 413 l 428 -6 z "},"x":{"ha":807,"x_min":24,"x_max":783,"o":"m 47 693 l 267 693 l 406 499 l 546 693 l 763 693 l 519 363 l 783 0 l 564 0 l 403 222 l 240 0 l 24 0 l 289 361 l 47 693 z "},"y":{"ha":804,"x_min":8,"x_max":783,"o":"m 186 -286 q 47 -258 100 -286 l 47 -87 q 153 -115 96 -115 q 241 -83 206 -115 q 307 24 276 -50 l 8 693 l 219 693 l 403 238 l 576 693 l 783 693 l 463 -72 q 186 -286 371 -286 z "},"z":{"ha":731,"x_min":44,"x_max":685,"o":"m 685 0 l 44 0 l 44 129 l 394 529 l 67 529 l 67 693 l 663 693 l 663 560 l 311 164 l 685 164 l 685 0 z "},"{":{"ha":568,"x_min":68,"x_max":518,"o":"m 518 -286 l 407 -286 q 238 -224 300 -286 q 175 -54 175 -161 l 175 100 q 153 224 175 185 q 68 269 131 263 l 68 425 q 153 468 132 432 q 175 588 175 504 l 175 749 q 238 918 175 856 q 407 981 300 981 l 518 981 l 518 826 l 449 826 q 378 799 404 826 q 353 728 353 772 l 353 531 q 242 347 353 381 q 353 164 353 314 l 353 -33 q 378 -105 353 -78 q 449 -132 404 -132 l 518 -132 l 518 -286 z "},"|":{"ha":481,"x_min":153,"x_max":328,"o":"m 328 -154 l 153 -154 l 153 1056 l 328 1056 l 328 -154 z "},"}":{"ha":568,"x_min":50,"x_max":500,"o":"m 161 -286 l 50 -286 l 50 -132 l 119 -132 q 190 -105 164 -132 q 215 -33 215 -78 l 215 164 q 326 347 215 314 q 215 531 215 381 l 215 728 q 190 799 215 772 q 119 826 164 826 l 50 826 l 50 981 l 161 981 q 331 918 268 981 q 393 749 393 856 l 393 588 q 415 468 393 504 q 500 425 436 432 l 500 269 q 415 224 438 263 q 393 100 393 185 l 393 -54 q 331 -224 393 -161 q 161 -286 268 -286 z "},"~":{"ha":874,"x_min":92,"x_max":782,"o":"m 617 235 q 436 272 550 235 q 256 310 321 310 q 92 246 151 310 l 92 421 q 157 464 111 447 q 256 481 203 481 q 436 443 324 481 q 617 406 550 406 q 782 469 722 406 l 782 293 q 715 251 761 267 q 617 235 669 235 z "}," ":{"ha":356,"x_min":0,"x_max":0,"o":""},"¡":{"ha":463,"x_min":111,"x_max":351,"o":"m 307 369 l 351 -278 l 113 -278 l 156 369 l 307 369 m 111 589 q 147 674 111 639 q 232 708 182 708 q 317 674 282 708 q 351 589 351 639 q 317 502 351 538 q 232 467 282 467 q 147 502 182 467 q 111 589 111 538 z "},"¢":{"ha":717,"x_min":50,"x_max":646,"o":"m 336 700 l 336 856 l 501 856 l 501 706 q 635 665 568 697 l 635 497 q 458 539 544 539 q 304 486 368 539 q 243 347 243 433 q 306 207 243 261 q 458 153 368 153 q 646 200 565 153 l 646 33 q 501 -14 576 -3 l 501 -162 l 336 -162 l 336 -8 q 131 114 213 19 q 50 349 50 208 q 131 579 50 489 q 336 700 213 674 z "},"£":{"ha":836,"x_min":65,"x_max":774,"o":"m 774 0 l 65 0 l 65 179 l 85 179 q 160 203 142 179 q 178 293 178 228 l 178 392 l 65 392 l 65 546 l 178 546 l 178 660 q 272 903 178 814 q 529 992 367 992 q 751 943 658 992 l 751 757 q 561 804 665 804 q 378 632 378 804 l 378 546 l 690 546 l 690 392 l 378 392 l 378 265 q 338 179 378 204 l 774 179 l 774 0 z "},"¤":{"ha":799,"x_min":56,"x_max":739,"o":"m 647 322 l 739 231 l 654 146 l 564 238 q 397 186 488 186 q 231 238 307 186 l 140 146 l 56 231 l 147 322 q 97 488 97 396 q 147 653 97 579 l 56 744 l 140 829 l 231 738 q 397 789 307 789 q 564 738 488 789 l 654 829 l 739 744 l 647 653 q 697 488 697 579 q 647 322 697 396 m 286 375 q 397 329 332 329 q 507 375 464 329 q 553 488 553 422 q 507 599 553 553 q 397 646 464 646 q 286 599 332 646 q 242 488 242 551 q 286 375 242 424 z "},"¥":{"ha":935,"x_min":14,"x_max":919,"o":"m 96 179 l 96 310 l 368 310 l 368 407 l 96 407 l 96 539 l 313 539 l 14 972 l 239 972 l 469 625 l 701 972 l 919 972 l 621 539 l 840 539 l 840 407 l 567 407 l 567 310 l 840 310 l 840 179 l 567 179 l 567 0 l 368 0 l 368 179 l 96 179 z "},"¦":{"ha":481,"x_min":153,"x_max":328,"o":"m 328 -154 l 153 -154 l 153 336 l 328 336 l 328 -154 m 328 565 l 153 565 l 153 1056 l 328 1056 l 328 565 z "},"§":{"ha":897,"x_min":51,"x_max":846,"o":"m 433 -231 q 124 -157 263 -231 l 124 24 q 442 -58 283 -58 q 586 15 586 -58 q 532 75 586 56 q 474 97 506 89 l 438 108 l 354 133 q 129 236 210 176 q 51 401 51 297 q 190 585 51 525 q 107 747 107 650 q 204 926 107 863 q 463 992 303 992 q 772 918 632 992 l 772 736 q 456 819 611 819 q 310 746 310 819 q 358 686 310 713 q 438 658 372 679 q 467 650 444 656 q 510 638 490 644 q 543 628 531 632 q 754 533 676 588 q 846 360 846 472 q 808 251 846 299 q 707 176 771 203 q 790 14 790 114 q 692 -165 790 -100 q 433 -231 593 -231 m 510 271 l 571 251 q 663 342 663 272 q 606 415 663 388 q 546 440 576 431 q 511 451 519 450 l 435 476 q 326 511 346 503 q 233 418 233 489 q 290 346 233 376 q 350 321 325 329 l 385 310 l 461 286 l 510 271 z "},"¨":{"ha":724,"x_min":114,"x_max":625,"o":"m 594 819 q 522 790 565 790 q 449 819 479 790 q 419 893 419 850 q 449 965 419 936 q 522 994 479 994 q 594 965 565 994 q 625 893 625 936 q 594 819 625 850 m 217 790 q 144 820 175 790 q 114 893 114 850 q 144 965 114 935 q 217 994 175 994 q 290 965 260 994 q 319 893 319 936 q 290 820 319 850 q 217 790 260 790 z "},"©":{"ha":1153,"x_min":74,"x_max":1079,"o":"m 219 129 q 147 203 219 129 q 74 486 74 278 q 221 842 74 694 q 578 992 369 992 q 933 843 788 992 q 1079 486 1079 696 q 932 129 1079 278 q 575 -19 783 -19 q 219 129 365 -19 m 611 208 q 404 289 486 208 q 321 486 321 369 q 404 682 321 603 q 611 763 486 763 q 751 731 690 763 l 751 613 q 611 653 683 653 q 492 605 540 653 q 443 486 443 557 q 493 367 443 414 q 617 319 542 319 q 763 365 703 319 l 763 247 q 611 208 699 208 m 575 28 q 897 163 767 28 q 1029 488 1029 299 q 899 811 1029 679 q 578 944 767 944 q 256 810 386 944 q 124 485 124 674 q 254 161 124 296 q 575 28 386 28 z "},"ª":{"ha":615,"x_min":32,"x_max":590,"o":"m 392 600 l 392 656 q 272 689 340 689 q 192 669 222 689 q 163 617 163 650 q 263 543 163 543 q 392 600 343 543 m 561 553 q 590 560 579 553 l 590 461 q 518 443 564 443 q 406 511 428 443 q 224 438 335 438 q 85 485 139 438 q 32 610 32 532 q 90 734 32 689 q 236 779 149 779 q 392 743 322 779 l 392 765 q 249 872 392 872 q 92 828 165 872 l 92 939 q 281 982 165 982 q 456 928 390 982 q 522 779 522 874 l 522 597 q 561 553 522 553 z "},"«":{"ha":819,"x_min":44,"x_max":776,"o":"m 431 49 l 235 49 l 44 297 l 44 396 l 235 644 l 431 644 l 207 347 l 431 49 m 776 49 l 579 49 l 389 297 l 389 396 l 579 644 l 776 644 l 551 347 l 776 49 z "},"¬":{"ha":826,"x_min":92,"x_max":735,"o":"m 735 192 l 560 192 l 560 414 l 92 414 l 92 590 l 735 590 l 735 192 z "},"­":{"ha":696,"x_min":133,"x_max":563,"o":"m 563 297 l 133 297 l 133 474 l 563 474 l 563 297 z "},"®":{"ha":1153,"x_min":74,"x_max":1079,"o":"m 219 129 q 147 203 219 129 q 74 486 74 278 q 221 842 74 694 q 578 992 369 992 q 933 843 788 992 q 1079 486 1079 696 q 932 129 1079 278 q 575 -19 783 -19 q 219 129 365 -19 m 482 233 l 364 233 l 364 765 l 613 765 q 747 721 696 765 q 797 606 797 676 q 769 513 797 553 q 689 458 740 474 l 853 233 l 721 233 l 567 444 l 482 444 l 482 233 m 482 665 l 482 542 l 607 542 q 678 601 678 542 q 659 649 678 632 q 607 665 640 665 l 482 665 m 575 28 q 897 163 767 28 q 1029 488 1029 299 q 899 811 1029 679 q 578 944 767 944 q 256 810 386 944 q 124 485 124 674 q 254 161 124 296 q 575 28 386 28 z "},"¯":{"ha":704,"x_min":136,"x_max":563,"o":"m 563 826 l 136 826 l 136 958 l 563 958 l 563 826 z "},"°":{"ha":547,"x_min":51,"x_max":496,"o":"m 168 772 q 199 696 168 728 q 274 664 229 664 q 349 696 318 664 q 379 772 379 728 q 349 849 379 818 q 274 881 318 881 q 199 849 229 881 q 168 772 168 818 m 429 926 q 496 772 496 861 q 429 618 496 683 q 274 554 365 554 q 117 618 182 554 q 51 772 51 683 q 117 926 51 861 q 274 992 185 992 q 429 926 364 992 z "},"±":{"ha":890,"x_min":92,"x_max":799,"o":"m 533 292 l 356 292 l 356 518 l 92 518 l 92 693 l 356 693 l 356 925 l 533 925 l 533 693 l 799 693 l 799 518 l 533 518 l 533 292 m 799 26 l 92 26 l 92 201 l 799 201 l 799 26 z "},"²":{"ha":494,"x_min":53,"x_max":443,"o":"m 443 447 l 53 447 l 53 543 l 203 671 q 293 800 293 749 q 272 844 293 828 q 215 860 250 860 q 71 806 140 860 l 71 938 q 226 982 136 982 q 365 936 306 982 q 426 817 426 892 q 402 717 426 760 q 315 618 378 674 l 249 558 l 443 558 l 443 447 z "},"³":{"ha":456,"x_min":31,"x_max":422,"o":"m 200 438 q 31 479 101 438 l 31 601 q 189 554 107 554 q 260 574 232 554 q 289 625 289 593 q 265 674 289 656 q 199 693 240 693 q 114 678 149 693 l 114 760 l 235 861 l 46 861 l 46 972 l 397 972 l 397 874 l 286 778 q 384 727 346 765 q 422 622 422 689 q 357 488 422 540 q 200 438 292 438 z "},"´":{"ha":636,"x_min":194,"x_max":563,"o":"m 364 792 l 194 792 l 326 994 l 563 994 l 364 792 z "},"µ":{"ha":872,"x_min":96,"x_max":776,"o":"m 581 251 l 581 693 l 776 693 l 776 0 l 581 0 l 581 83 q 349 -18 488 -18 q 292 -12 313 -18 l 292 -278 l 96 -278 l 96 693 l 292 693 l 292 308 q 328 197 292 233 q 424 161 365 161 q 512 187 468 161 q 581 251 556 213 z "},"¶":{"ha":794,"x_min":46,"x_max":688,"o":"m 688 0 l 488 0 l 488 400 l 378 400 q 135 479 225 400 q 46 686 46 560 q 135 893 46 814 q 378 972 225 972 l 688 972 l 688 0 z "},"·":{"ha":365,"x_min":63,"x_max":304,"o":"m 183 417 q 97 452 132 417 q 63 539 63 488 q 97 624 63 589 q 183 658 132 658 q 269 624 233 658 q 304 539 304 589 q 269 452 304 488 q 183 417 233 417 z "},"¸":{"ha":699,"x_min":150,"x_max":469,"o":"m 376 -201 l 150 -201 l 313 15 l 469 15 l 376 -201 z "},"¹":{"ha":350,"x_min":24,"x_max":297,"o":"m 297 447 l 164 447 l 164 836 l 24 765 l 24 896 l 169 972 l 297 972 l 297 447 z "},"º":{"ha":624,"x_min":26,"x_max":597,"o":"m 209 603 q 230 582 209 603 q 313 561 250 561 q 415 603 375 561 q 456 710 456 646 q 415 815 456 772 q 313 857 375 857 q 208 815 249 857 q 168 710 168 774 q 209 603 168 646 m 26 710 q 107 903 26 826 q 313 982 188 982 q 517 903 436 982 q 597 710 597 826 q 517 515 597 592 q 313 438 435 438 q 107 515 189 438 q 26 710 26 592 z "},"»":{"ha":818,"x_min":43,"x_max":774,"o":"m 239 49 l 43 49 l 267 347 l 43 644 l 239 644 l 429 396 l 429 297 l 239 49 m 583 49 l 388 49 l 611 347 l 388 644 l 583 644 l 774 396 l 774 297 l 583 49 z "},"¼":{"ha":1063,"x_min":24,"x_max":1042,"o":"m 288 0 l 138 0 l 724 972 l 874 972 l 288 0 m 297 447 l 164 447 l 164 836 l 24 765 l 24 896 l 169 972 l 297 972 l 297 447 m 967 0 l 839 0 l 839 125 l 575 125 l 575 219 l 832 525 l 967 525 l 967 228 l 1042 228 l 1042 125 l 967 125 l 967 0 m 839 378 l 710 228 l 839 228 l 839 378 z "},"½":{"ha":1119,"x_min":24,"x_max":1068,"o":"m 288 0 l 138 0 l 724 972 l 874 972 l 288 0 m 297 447 l 164 447 l 164 836 l 24 765 l 24 896 l 169 972 l 297 972 l 297 447 m 1068 0 l 678 0 l 678 96 l 828 224 q 918 353 918 301 q 897 397 918 381 q 840 413 875 413 q 696 358 764 413 l 696 490 q 851 535 761 535 q 990 489 931 535 q 1051 369 1051 444 q 1027 269 1051 313 q 940 171 1003 226 l 874 111 l 1068 111 l 1068 0 z "},"¾":{"ha":1122,"x_min":31,"x_max":1101,"o":"m 1026 0 l 899 0 l 899 125 l 635 125 l 635 219 l 892 525 l 1026 525 l 1026 228 l 1101 228 l 1101 125 l 1026 125 l 1026 0 m 899 378 l 769 228 l 899 228 l 899 378 m 200 438 q 31 479 101 438 l 31 601 q 189 554 107 554 q 260 574 232 554 q 289 625 289 593 q 265 674 289 656 q 199 693 240 693 q 114 678 149 693 l 114 760 l 235 861 l 46 861 l 46 972 l 397 972 l 397 874 l 286 778 q 384 727 346 765 q 422 622 422 689 q 357 488 422 540 q 200 438 292 438 m 349 0 l 199 0 l 785 972 l 935 972 l 349 0 z "},"¿":{"ha":682,"x_min":38,"x_max":647,"o":"m 378 708 q 464 673 429 708 q 499 586 499 638 q 464 501 499 536 q 378 467 429 467 q 292 501 328 467 q 257 586 257 536 q 292 673 257 638 q 378 708 328 708 m 289 369 l 475 369 l 475 174 q 311 108 382 154 q 239 3 239 63 q 283 -79 239 -51 q 399 -107 326 -107 q 647 -29 517 -107 l 647 -204 q 367 -286 528 -286 q 133 -210 231 -286 q 38 -3 38 -135 q 111 165 38 96 q 289 268 185 235 l 289 369 z "},"À":{"ha":1069,"x_min":22,"x_max":1047,"o":"m 232 0 l 22 0 l 439 978 l 631 978 l 1047 0 l 835 0 l 739 225 l 328 225 l 232 0 m 533 728 l 390 390 l 675 390 l 533 728 m 257 1260 l 493 1260 l 625 1057 l 456 1057 l 257 1260 z "},"Á":{"ha":1069,"x_min":22,"x_max":1047,"o":"m 232 0 l 22 0 l 439 978 l 631 978 l 1047 0 l 835 0 l 739 225 l 328 225 l 232 0 m 533 728 l 390 390 l 675 390 l 533 728 m 621 1057 l 451 1057 l 583 1260 l 819 1260 l 621 1057 z "},"Â":{"ha":1069,"x_min":22,"x_max":1047,"o":"m 232 0 l 22 0 l 439 978 l 631 978 l 1047 0 l 835 0 l 739 225 l 328 225 l 232 0 m 533 728 l 390 390 l 675 390 l 533 728 m 443 1058 l 274 1058 l 443 1260 l 632 1260 l 797 1058 l 626 1058 l 533 1165 l 443 1058 z "},"Ã":{"ha":1069,"x_min":22,"x_max":1047,"o":"m 232 0 l 22 0 l 439 978 l 631 978 l 1047 0 l 835 0 l 739 225 l 328 225 l 232 0 m 533 728 l 390 390 l 675 390 l 533 728 m 389 1063 l 282 1063 q 327 1201 283 1146 q 440 1257 371 1257 q 539 1226 483 1257 q 624 1196 594 1196 q 683 1253 671 1196 l 789 1253 q 744 1115 789 1176 q 632 1057 700 1057 q 532 1088 588 1057 q 447 1119 475 1119 q 389 1063 400 1119 z "},"Ä":{"ha":1069,"x_min":22,"x_max":1047,"o":"m 232 0 l 22 0 l 439 978 l 631 978 l 1047 0 l 835 0 l 739 225 l 328 225 l 232 0 m 533 728 l 390 390 l 675 390 l 533 728 m 761 1085 q 689 1056 732 1056 q 615 1085 646 1056 q 586 1158 586 1115 q 615 1231 586 1201 q 689 1260 646 1260 q 761 1231 732 1260 q 790 1158 790 1201 q 761 1085 790 1115 m 383 1056 q 311 1085 342 1056 q 281 1158 281 1115 q 311 1230 281 1200 q 383 1260 342 1260 q 456 1231 426 1260 q 486 1158 486 1201 q 456 1085 486 1115 q 383 1056 426 1056 z "},"Å":{"ha":1069,"x_min":22,"x_max":1047,"o":"m 232 0 l 22 0 l 439 978 l 631 978 l 1047 0 l 835 0 l 739 225 l 328 225 l 232 0 m 533 728 l 390 390 l 675 390 l 533 728 m 681 1164 q 681 1134 681 1164 q 638 1061 681 1104 q 535 1018 594 1018 q 432 1061 475 1018 q 389 1164 389 1104 q 432 1267 389 1224 q 535 1310 475 1310 q 638 1267 594 1310 q 681 1164 681 1224 m 489 1118 q 535 1100 508 1100 q 579 1118 561 1100 q 599 1164 599 1138 q 579 1208 599 1190 q 535 1228 561 1228 q 489 1208 508 1228 q 471 1164 471 1190 q 489 1118 471 1138 z "},"Æ":{"ha":1469,"x_min":6,"x_max":1417,"o":"m 897 429 l 897 179 l 1417 179 l 1417 0 l 697 0 l 697 225 l 350 225 l 225 0 l 6 0 l 554 972 l 1401 972 l 1401 793 l 897 793 l 897 606 l 1301 606 l 1301 429 l 897 429 m 697 799 l 671 799 l 443 390 l 697 390 l 697 799 z "},"Ç":{"ha":940,"x_min":74,"x_max":876,"o":"m 600 -201 l 374 -201 l 514 -12 q 196 150 318 15 q 74 486 74 286 q 222 850 74 708 q 600 992 372 992 q 857 931 742 992 l 857 729 q 601 804 744 804 q 369 714 464 804 q 278 486 278 625 q 372 257 278 347 q 610 168 465 168 q 876 253 769 168 l 876 51 q 681 -14 789 0 l 600 -201 z "},"È":{"ha":889,"x_min":107,"x_max":836,"o":"m 836 0 l 107 0 l 107 972 l 821 972 l 821 793 l 307 793 l 307 606 l 721 606 l 721 429 l 307 429 l 307 179 l 836 179 l 836 0 m 213 1260 l 449 1260 l 581 1057 l 411 1057 l 213 1260 z "},"É":{"ha":889,"x_min":107,"x_max":836,"o":"m 836 0 l 107 0 l 107 972 l 821 972 l 821 793 l 307 793 l 307 606 l 721 606 l 721 429 l 307 429 l 307 179 l 836 179 l 836 0 m 508 1057 l 339 1057 l 471 1260 l 707 1260 l 508 1057 z "},"Ê":{"ha":889,"x_min":107,"x_max":836,"o":"m 836 0 l 107 0 l 107 972 l 821 972 l 821 793 l 307 793 l 307 606 l 721 606 l 721 429 l 307 429 l 307 179 l 836 179 l 836 0 m 378 1058 l 208 1058 l 378 1260 l 567 1260 l 732 1058 l 561 1058 l 468 1165 l 378 1058 z "},"Ë":{"ha":889,"x_min":107,"x_max":836,"o":"m 836 0 l 107 0 l 107 972 l 821 972 l 821 793 l 307 793 l 307 606 l 721 606 l 721 429 l 307 429 l 307 179 l 836 179 l 836 0 m 697 1085 q 625 1056 668 1056 q 551 1085 582 1056 q 522 1158 522 1115 q 551 1231 522 1201 q 625 1260 582 1260 q 697 1231 668 1260 q 726 1158 726 1201 q 697 1085 726 1115 m 319 1056 q 247 1085 278 1056 q 217 1158 217 1115 q 247 1230 217 1200 q 319 1260 278 1260 q 392 1231 363 1260 q 422 1158 422 1201 q 392 1085 422 1115 q 319 1056 363 1056 z "},"Ì":{"ha":426,"x_min":-67,"x_max":313,"o":"m 313 0 l 114 0 l 114 972 l 313 972 l 313 0 m -67 1260 l 169 1260 l 301 1057 l 132 1057 l -67 1260 z "},"Í":{"ha":426,"x_min":114,"x_max":497,"o":"m 313 0 l 114 0 l 114 972 l 313 972 l 313 0 m 299 1057 l 129 1057 l 261 1260 l 497 1260 l 299 1057 z "},"Î":{"ha":426,"x_min":-49,"x_max":475,"o":"m 121 1058 l -49 1058 l 121 1260 l 310 1260 l 475 1058 l 304 1058 l 211 1165 l 121 1058 m 313 0 l 114 0 l 114 972 l 313 972 l 313 0 z "},"Ï":{"ha":426,"x_min":-42,"x_max":468,"o":"m 313 0 l 114 0 l 114 972 l 313 972 l 313 0 m 439 1085 q 367 1056 410 1056 q 293 1085 324 1056 q 264 1158 264 1115 q 293 1231 264 1201 q 367 1260 324 1260 q 439 1231 410 1260 q 468 1158 468 1201 q 439 1085 468 1115 m 61 1056 q -11 1085 19 1056 q -42 1158 -42 1115 q -11 1230 -42 1200 q 61 1260 19 1260 q 134 1231 104 1260 q 164 1158 164 1201 q 134 1085 164 1115 q 61 1056 104 1056 z "},"Ð":{"ha":1153,"x_min":49,"x_max":1079,"o":"m 546 0 l 182 0 l 182 425 l 49 425 l 49 593 l 182 593 l 182 972 l 546 972 q 931 836 782 972 q 1079 486 1079 700 q 931 135 1079 271 q 546 0 783 0 m 382 425 l 382 179 l 529 179 q 783 260 692 179 q 874 486 874 342 q 783 712 874 631 q 529 793 692 793 l 382 793 l 382 593 l 574 593 l 574 425 l 382 425 z "},"Ñ":{"ha":1071,"x_min":107,"x_max":963,"o":"m 303 0 l 107 0 l 107 972 l 278 972 l 768 350 l 768 972 l 963 972 l 963 0 l 797 0 l 303 625 l 303 0 m 389 1063 l 282 1063 q 327 1201 283 1146 q 440 1257 371 1257 q 539 1226 483 1257 q 624 1196 594 1196 q 683 1253 671 1196 l 789 1253 q 744 1115 789 1176 q 632 1057 700 1057 q 532 1088 588 1057 q 447 1119 475 1119 q 389 1063 400 1119 z "},"Ò":{"ha":1156,"x_min":74,"x_max":1082,"o":"m 363 258 q 578 168 449 168 q 792 258 706 168 q 878 486 878 349 q 792 714 878 624 q 578 804 706 804 q 363 714 449 804 q 278 486 278 625 q 363 258 278 347 m 74 486 q 217 844 74 700 q 578 992 360 992 q 938 844 794 992 q 1082 486 1082 697 q 938 128 1082 276 q 578 -19 794 -19 q 217 128 360 -19 q 74 486 74 275 m 297 1260 l 533 1260 l 665 1057 l 496 1057 l 297 1260 z "},"Ó":{"ha":1156,"x_min":74,"x_max":1082,"o":"m 363 258 q 578 168 449 168 q 792 258 706 168 q 878 486 878 349 q 792 714 878 624 q 578 804 706 804 q 363 714 449 804 q 278 486 278 625 q 363 258 278 347 m 74 486 q 217 844 74 700 q 578 992 360 992 q 938 844 794 992 q 1082 486 1082 697 q 938 128 1082 276 q 578 -19 794 -19 q 217 128 360 -19 q 74 486 74 275 m 646 1057 l 476 1057 l 608 1260 l 844 1260 l 646 1057 z "},"Ô":{"ha":1156,"x_min":74,"x_max":1082,"o":"m 363 258 q 578 168 449 168 q 792 258 706 168 q 878 486 878 349 q 792 714 878 624 q 578 804 706 804 q 363 714 449 804 q 278 486 278 625 q 363 258 278 347 m 74 486 q 217 844 74 700 q 578 992 360 992 q 938 844 794 992 q 1082 486 1082 697 q 938 128 1082 276 q 578 -19 794 -19 q 217 128 360 -19 q 74 486 74 275 m 486 1058 l 317 1058 l 486 1260 l 675 1260 l 840 1058 l 669 1058 l 576 1165 l 486 1058 z "},"Õ":{"ha":1156,"x_min":74,"x_max":1082,"o":"m 363 258 q 578 168 449 168 q 792 258 706 168 q 878 486 878 349 q 792 714 878 624 q 578 804 706 804 q 363 714 449 804 q 278 486 278 625 q 363 258 278 347 m 74 486 q 217 844 74 700 q 578 992 360 992 q 938 844 794 992 q 1082 486 1082 697 q 938 128 1082 276 q 578 -19 794 -19 q 217 128 360 -19 q 74 486 74 275 m 432 1063 l 325 1063 q 370 1201 326 1146 q 483 1257 414 1257 q 582 1226 526 1257 q 667 1196 638 1196 q 726 1253 714 1196 l 832 1253 q 788 1115 832 1176 q 675 1057 744 1057 q 575 1088 631 1057 q 490 1119 518 1119 q 432 1063 443 1119 z "},"Ö":{"ha":1156,"x_min":74,"x_max":1082,"o":"m 363 258 q 578 168 449 168 q 792 258 706 168 q 878 486 878 349 q 792 714 878 624 q 578 804 706 804 q 363 714 449 804 q 278 486 278 625 q 363 258 278 347 m 74 486 q 217 844 74 700 q 578 992 360 992 q 938 844 794 992 q 1082 486 1082 697 q 938 128 1082 276 q 578 -19 794 -19 q 217 128 360 -19 q 74 486 74 275 m 804 1085 q 732 1056 775 1056 q 658 1085 689 1056 q 629 1158 629 1115 q 658 1231 629 1201 q 732 1260 689 1260 q 804 1231 775 1260 q 833 1158 833 1201 q 804 1085 833 1115 m 426 1056 q 354 1085 385 1056 q 324 1158 324 1115 q 354 1230 324 1200 q 426 1260 385 1260 q 499 1231 469 1260 q 529 1158 529 1201 q 499 1085 529 1115 q 426 1056 469 1056 z "},"×":{"ha":833,"x_min":92,"x_max":742,"o":"m 418 336 l 215 135 l 92 258 l 294 460 l 92 663 l 215 786 l 417 585 l 619 786 l 742 663 l 542 460 l 742 258 l 619 135 l 418 336 z "},"Ø":{"ha":1156,"x_min":74,"x_max":1082,"o":"m 578 -19 q 303 58 425 -19 l 256 0 l 100 0 l 211 135 q 74 486 74 278 q 217 844 74 700 q 578 992 360 992 q 851 914 725 992 l 900 972 l 1058 972 l 946 836 q 1082 486 1082 692 q 938 128 1082 276 q 578 -19 794 -19 m 278 486 q 338 289 278 374 l 729 764 q 578 804 660 804 q 363 714 449 804 q 278 486 278 625 m 578 168 q 792 258 706 168 q 878 486 878 349 q 818 681 878 596 l 426 207 q 578 168 494 168 z "},"Ù":{"ha":1021,"x_min":94,"x_max":928,"o":"m 510 -19 q 211 93 328 -19 q 94 408 94 206 l 94 972 l 293 972 l 293 401 q 352 228 293 289 q 510 168 411 168 q 669 228 610 168 q 728 401 728 289 l 728 972 l 928 972 l 928 408 q 810 93 928 206 q 510 -19 693 -19 m 238 1260 l 474 1260 l 606 1057 l 436 1057 l 238 1260 z "},"Ú":{"ha":1021,"x_min":94,"x_max":928,"o":"m 510 -19 q 211 93 328 -19 q 94 408 94 206 l 94 972 l 293 972 l 293 401 q 352 228 293 289 q 510 168 411 168 q 669 228 610 168 q 728 401 728 289 l 728 972 l 928 972 l 928 408 q 810 93 928 206 q 510 -19 693 -19 m 588 1057 l 418 1057 l 550 1260 l 786 1260 l 588 1057 z "},"Û":{"ha":1021,"x_min":94,"x_max":928,"o":"m 510 -19 q 211 93 328 -19 q 94 408 94 206 l 94 972 l 293 972 l 293 401 q 352 228 293 289 q 510 168 411 168 q 669 228 610 168 q 728 401 728 289 l 728 972 l 928 972 l 928 408 q 810 93 928 206 q 510 -19 693 -19 m 419 1058 l 250 1058 l 419 1260 l 608 1260 l 774 1058 l 603 1058 l 510 1165 l 419 1058 z "},"Ü":{"ha":1021,"x_min":94,"x_max":928,"o":"m 510 -19 q 211 93 328 -19 q 94 408 94 206 l 94 972 l 293 972 l 293 401 q 352 228 293 289 q 510 168 411 168 q 669 228 610 168 q 728 401 728 289 l 728 972 l 928 972 l 928 408 q 810 93 928 206 q 510 -19 693 -19 m 736 1085 q 664 1056 707 1056 q 590 1085 621 1056 q 561 1158 561 1115 q 590 1231 561 1201 q 664 1260 621 1260 q 736 1231 707 1260 q 765 1158 765 1201 q 736 1085 765 1115 m 358 1056 q 286 1085 317 1056 q 256 1158 256 1115 q 286 1230 256 1200 q 358 1260 317 1260 q 431 1231 401 1260 q 461 1158 461 1201 q 431 1085 461 1115 q 358 1056 401 1056 z "},"Ý":{"ha":967,"x_min":8,"x_max":958,"o":"m 583 0 l 385 0 l 385 436 l 8 972 l 244 972 l 486 626 l 729 972 l 958 972 l 583 440 l 583 0 m 557 1057 l 388 1057 l 519 1260 l 756 1260 l 557 1057 z "},"Þ":{"ha":928,"x_min":107,"x_max":883,"o":"m 107 972 l 307 972 l 307 779 l 544 779 q 792 697 701 779 q 883 486 883 617 q 792 274 883 356 q 544 192 701 192 l 307 192 l 307 0 l 107 0 l 107 972 m 531 604 l 307 604 l 307 363 l 531 363 q 643 394 603 363 q 683 483 683 425 q 643 573 683 542 q 531 604 603 604 z "},"ß":{"ha":869,"x_min":96,"x_max":821,"o":"m 519 -12 q 393 4 436 -12 l 393 161 q 481 146 435 146 q 590 185 549 146 q 631 289 631 224 q 578 405 631 363 q 436 447 526 447 l 411 447 l 411 589 l 435 589 q 530 619 496 589 q 564 701 564 649 q 528 784 564 754 q 435 814 493 814 q 331 772 369 814 q 292 656 292 731 l 292 0 l 96 0 l 96 657 q 189 900 96 811 q 432 989 282 989 q 667 913 582 989 q 751 724 751 838 q 719 600 751 651 q 636 531 686 549 q 768 439 715 508 q 821 269 821 369 q 738 62 821 136 q 519 -12 656 -12 z "},"à":{"ha":836,"x_min":39,"x_max":796,"o":"m 756 151 q 796 160 781 151 l 796 17 q 690 -12 758 -12 q 533 76 572 -12 q 294 -18 442 -18 q 110 46 181 -18 q 39 214 39 110 q 119 383 39 325 q 313 442 200 442 q 513 399 431 442 l 513 419 q 329 550 513 550 q 119 492 217 550 l 119 656 q 376 711 225 711 q 615 639 526 711 q 707 439 707 567 l 707 204 q 756 151 707 151 m 513 274 q 368 314 451 314 q 269 290 306 314 q 232 224 232 267 q 265 156 232 179 q 356 133 299 133 q 513 204 458 133 l 513 274 m 146 1003 l 383 1003 l 515 800 l 346 800 l 146 1003 z "},"á":{"ha":836,"x_min":39,"x_max":796,"o":"m 756 151 q 796 160 781 151 l 796 17 q 690 -12 758 -12 q 533 76 572 -12 q 294 -18 442 -18 q 110 46 181 -18 q 39 214 39 110 q 119 383 39 325 q 313 442 200 442 q 513 399 431 442 l 513 419 q 329 550 513 550 q 119 492 217 550 l 119 656 q 376 711 225 711 q 615 639 526 711 q 707 439 707 567 l 707 204 q 756 151 707 151 m 513 274 q 368 314 451 314 q 269 290 306 314 q 232 224 232 267 q 265 156 232 179 q 356 133 299 133 q 513 204 458 133 l 513 274 m 438 792 l 268 792 l 400 994 l 636 994 l 438 792 z "},"â":{"ha":836,"x_min":39,"x_max":796,"o":"m 756 151 q 796 160 781 151 l 796 17 q 690 -12 758 -12 q 533 76 572 -12 q 294 -18 442 -18 q 110 46 181 -18 q 39 214 39 110 q 119 383 39 325 q 313 442 200 442 q 513 399 431 442 l 513 419 q 329 550 513 550 q 119 492 217 550 l 119 656 q 376 711 225 711 q 615 639 526 711 q 707 439 707 567 l 707 204 q 756 151 707 151 m 513 274 q 368 314 451 314 q 269 290 306 314 q 232 224 232 267 q 265 156 232 179 q 356 133 299 133 q 513 204 458 133 l 513 274 m 283 792 l 115 792 l 285 994 l 474 994 l 639 792 l 467 792 l 375 900 l 283 792 z "},"ã":{"ha":836,"x_min":39,"x_max":796,"o":"m 756 151 q 796 160 781 151 l 796 17 q 690 -12 758 -12 q 533 76 572 -12 q 294 -18 442 -18 q 110 46 181 -18 q 39 214 39 110 q 119 383 39 325 q 313 442 200 442 q 513 399 431 442 l 513 419 q 329 550 513 550 q 119 492 217 550 l 119 656 q 376 711 225 711 q 615 639 526 711 q 707 439 707 567 l 707 204 q 756 151 707 151 m 513 274 q 368 314 451 314 q 269 290 306 314 q 232 224 232 267 q 265 156 232 179 q 356 133 299 133 q 513 204 458 133 l 513 274 m 244 800 l 139 800 q 182 938 139 882 q 296 994 226 994 q 394 964 339 994 q 481 933 451 933 q 539 990 528 933 l 646 990 q 600 853 644 914 q 489 794 556 794 q 389 825 444 794 q 304 857 332 857 q 244 800 257 857 z "},"ä":{"ha":836,"x_min":39,"x_max":796,"o":"m 756 151 q 796 160 781 151 l 796 17 q 690 -12 758 -12 q 533 76 572 -12 q 294 -18 442 -18 q 110 46 181 -18 q 39 214 39 110 q 119 383 39 325 q 313 442 200 442 q 513 399 431 442 l 513 419 q 329 550 513 550 q 119 492 217 550 l 119 656 q 376 711 225 711 q 615 639 526 711 q 707 439 707 567 l 707 204 q 756 151 707 151 m 513 274 q 368 314 451 314 q 269 290 306 314 q 232 224 232 267 q 265 156 232 179 q 356 133 299 133 q 513 204 458 133 l 513 274 m 614 819 q 542 790 585 790 q 468 819 499 790 q 439 893 439 850 q 468 965 439 936 q 542 994 499 994 q 614 965 585 994 q 644 893 644 936 q 614 819 644 850 m 236 790 q 164 820 194 790 q 133 893 133 850 q 164 965 133 935 q 236 994 194 994 q 309 965 279 994 q 339 893 339 936 q 309 820 339 850 q 236 790 279 790 z "},"å":{"ha":836,"x_min":39,"x_max":796,"o":"m 756 151 q 796 160 781 151 l 796 17 q 690 -12 758 -12 q 533 76 572 -12 q 294 -18 442 -18 q 110 46 181 -18 q 39 214 39 110 q 119 383 39 325 q 313 442 200 442 q 513 399 431 442 l 513 419 q 329 550 513 550 q 119 492 217 550 l 119 656 q 376 711 225 711 q 615 639 526 711 q 707 439 707 567 l 707 204 q 756 151 707 151 m 513 274 q 368 314 451 314 q 269 290 306 314 q 232 224 232 267 q 265 156 232 179 q 356 133 299 133 q 513 204 458 133 l 513 274 m 531 903 q 531 873 531 903 q 488 800 531 843 q 385 757 444 757 q 282 800 325 757 q 239 903 239 843 q 282 1006 239 963 q 385 1049 325 1049 q 488 1006 444 1049 q 531 903 531 963 m 339 857 q 385 839 358 839 q 429 857 411 839 q 449 903 449 876 q 429 947 449 929 q 385 967 411 967 q 339 947 358 967 q 321 903 321 929 q 339 857 321 876 z "},"æ":{"ha":1254,"x_min":39,"x_max":1200,"o":"m 1200 344 l 1200 293 l 703 293 q 780 186 718 224 q 935 149 842 149 q 1157 210 1050 149 l 1157 53 q 893 -18 1064 -18 q 592 111 703 -18 q 468 19 546 56 q 300 -18 390 -18 q 111 46 183 -18 q 39 214 39 110 q 119 383 39 325 q 313 442 200 442 q 513 399 431 442 l 513 419 q 329 550 513 550 q 119 492 217 550 l 119 656 q 376 711 225 711 q 626 617 536 711 q 865 711 725 711 q 1110 606 1021 711 q 1200 344 1200 499 m 356 131 q 460 153 413 131 q 531 214 508 176 q 514 276 519 242 q 368 317 453 317 q 269 292 306 317 q 232 224 232 268 q 266 155 232 179 q 356 131 300 131 m 703 418 l 1007 418 q 965 517 1004 478 q 861 557 925 557 q 753 519 796 557 q 703 418 710 481 z "},"ç":{"ha":717,"x_min":50,"x_max":646,"o":"m 50 349 q 161 611 50 513 q 429 711 274 711 q 635 665 543 711 l 635 499 q 458 540 544 540 q 304 486 367 540 q 243 347 243 433 q 306 207 243 261 q 458 153 368 153 q 646 200 565 153 l 646 33 q 531 -8 592 4 l 449 -201 l 222 -201 l 363 -12 q 139 104 228 7 q 50 349 50 201 z "},"è":{"ha":796,"x_min":50,"x_max":742,"o":"m 435 -18 q 161 82 272 -18 q 50 347 50 182 q 150 606 50 501 q 411 711 250 711 q 651 604 561 711 q 742 344 742 497 l 742 293 l 244 293 q 322 186 260 224 q 476 149 383 149 q 699 210 592 149 l 699 53 q 435 -18 606 -18 m 244 418 l 549 418 q 506 517 546 478 q 403 557 467 557 q 294 519 338 557 q 244 418 251 481 m 175 1003 l 413 1003 l 544 800 l 375 800 l 175 1003 z "},"é":{"ha":796,"x_min":50,"x_max":742,"o":"m 435 -18 q 161 82 272 -18 q 50 347 50 182 q 150 606 50 501 q 411 711 250 711 q 651 604 561 711 q 742 344 742 497 l 742 293 l 244 293 q 322 186 260 224 q 476 149 383 149 q 699 210 592 149 l 699 53 q 435 -18 606 -18 m 244 418 l 549 418 q 506 517 546 478 q 403 557 467 557 q 294 519 338 557 q 244 418 251 481 m 471 792 l 301 792 l 433 994 l 669 994 l 471 792 z "},"ê":{"ha":796,"x_min":50,"x_max":742,"o":"m 435 -18 q 161 82 272 -18 q 50 347 50 182 q 150 606 50 501 q 411 711 250 711 q 651 604 561 711 q 742 344 742 497 l 742 293 l 244 293 q 322 186 260 224 q 476 149 383 149 q 699 210 592 149 l 699 53 q 435 -18 606 -18 m 244 418 l 549 418 q 506 517 546 478 q 403 557 467 557 q 294 519 338 557 q 244 418 251 481 m 306 792 l 138 792 l 307 994 l 496 994 l 661 792 l 489 792 l 397 900 l 306 792 z "},"ë":{"ha":796,"x_min":50,"x_max":742,"o":"m 435 -18 q 161 82 272 -18 q 50 347 50 182 q 150 606 50 501 q 411 711 250 711 q 651 604 561 711 q 742 344 742 497 l 742 293 l 244 293 q 322 186 260 224 q 476 149 383 149 q 699 210 592 149 l 699 53 q 435 -18 606 -18 m 244 418 l 549 418 q 506 517 546 478 q 403 557 467 557 q 294 519 338 557 q 244 418 251 481 m 625 819 q 553 790 596 790 q 479 819 510 790 q 450 893 450 850 q 479 965 450 936 q 553 994 510 994 q 625 965 596 994 q 656 893 656 936 q 625 819 656 850 m 247 790 q 175 820 206 790 q 144 893 144 850 q 175 965 144 935 q 247 994 206 994 q 320 965 290 994 q 350 893 350 936 q 320 820 350 850 q 247 790 290 790 z "},"ì":{"ha":371,"x_min":-94,"x_max":283,"o":"m 283 0 l 88 0 l 88 693 l 283 693 l 283 0 m -94 1003 l 143 1003 l 275 800 l 106 800 l -94 1003 z "},"í":{"ha":371,"x_min":88,"x_max":465,"o":"m 283 0 l 88 0 l 88 693 l 283 693 l 283 0 m 267 792 l 97 792 l 229 994 l 465 994 l 267 792 z "},"î":{"ha":371,"x_min":-76,"x_max":447,"o":"m 92 792 l -76 792 l 93 994 l 282 994 l 447 792 l 275 792 l 183 900 l 92 792 m 283 0 l 88 0 l 88 693 l 283 693 l 283 0 z "},"ï":{"ha":369,"x_min":-71,"x_max":440,"o":"m 410 819 q 338 790 381 790 q 264 819 294 790 q 235 893 235 850 q 264 965 235 936 q 338 994 294 994 q 410 965 381 994 q 440 893 440 936 q 410 819 440 850 m 32 790 q -40 820 -10 790 q -71 893 -71 850 q -40 965 -71 935 q 32 994 -10 994 q 105 965 75 994 q 135 893 135 936 q 105 820 135 850 q 32 790 75 790 m 283 0 l 88 0 l 88 693 l 283 693 l 283 0 z "},"ð":{"ha":836,"x_min":50,"x_max":788,"o":"m 418 -18 q 153 81 258 -18 q 50 321 50 179 q 136 549 50 460 q 360 636 224 636 q 490 613 439 636 l 379 760 l 213 696 l 142 792 l 301 854 l 207 972 l 418 972 l 463 914 l 600 965 l 669 868 l 538 818 l 650 664 q 756 492 721 567 q 788 336 788 421 q 682 85 788 186 q 418 -18 576 -18 m 418 497 q 293 448 343 497 q 243 325 243 399 q 292 203 243 251 q 418 154 342 154 q 544 203 494 154 q 594 325 594 251 q 544 448 594 399 q 418 497 494 497 z "},"ñ":{"ha":858,"x_min":96,"x_max":776,"o":"m 289 800 l 183 800 q 226 938 183 882 q 340 994 271 994 q 439 964 383 994 q 525 933 496 933 q 583 990 572 933 l 690 990 q 644 853 689 914 q 533 794 600 794 q 433 825 489 794 q 349 857 376 857 q 289 800 301 857 m 292 442 l 292 0 l 96 0 l 96 693 l 292 693 l 292 610 q 524 711 385 711 q 710 635 643 711 q 776 425 776 560 l 776 0 l 581 0 l 581 385 q 544 496 581 460 q 449 532 507 532 q 360 506 404 532 q 292 442 317 481 z "},"ò":{"ha":868,"x_min":50,"x_max":819,"o":"m 243 347 q 243 306 243 347 q 297 208 243 264 q 435 153 351 153 q 572 208 518 153 q 626 347 626 265 q 572 485 626 431 q 435 540 518 540 q 297 485 351 540 q 243 347 243 431 m 50 347 q 158 606 50 501 q 435 711 265 711 q 711 606 604 711 q 819 347 819 500 q 711 86 819 192 q 435 -18 603 -18 q 158 86 267 -18 q 50 347 50 192 m 164 1003 l 401 1003 l 533 800 l 364 800 l 164 1003 z "},"ó":{"ha":868,"x_min":50,"x_max":819,"o":"m 243 347 q 243 306 243 347 q 297 208 243 264 q 435 153 351 153 q 572 208 518 153 q 626 347 626 265 q 572 485 626 431 q 435 540 518 540 q 297 485 351 540 q 243 347 243 431 m 50 347 q 158 606 50 501 q 435 711 265 711 q 711 606 604 711 q 819 347 819 500 q 711 86 819 192 q 435 -18 603 -18 q 158 86 267 -18 q 50 347 50 192 m 506 792 l 336 792 l 468 994 l 704 994 l 506 792 z "},"ô":{"ha":868,"x_min":50,"x_max":819,"o":"m 243 347 q 243 306 243 347 q 297 208 243 264 q 435 153 351 153 q 572 208 518 153 q 626 347 626 265 q 572 485 626 431 q 435 540 518 540 q 297 485 351 540 q 243 347 243 431 m 50 347 q 158 606 50 501 q 435 711 265 711 q 711 606 604 711 q 819 347 819 500 q 711 86 819 192 q 435 -18 603 -18 q 158 86 267 -18 q 50 347 50 192 m 340 792 l 172 792 l 342 994 l 531 994 l 696 792 l 524 792 l 432 900 l 340 792 z "},"õ":{"ha":868,"x_min":50,"x_max":819,"o":"m 243 347 q 243 306 243 347 q 297 208 243 264 q 435 153 351 153 q 572 208 518 153 q 626 347 626 265 q 572 485 626 431 q 435 540 518 540 q 297 485 351 540 q 243 347 243 431 m 50 347 q 158 606 50 501 q 435 711 265 711 q 711 606 604 711 q 819 347 819 500 q 711 86 819 192 q 435 -18 603 -18 q 158 86 267 -18 q 50 347 50 192 m 288 800 l 182 800 q 225 938 182 882 q 339 994 269 994 q 438 964 382 994 q 524 933 494 933 q 582 990 571 933 l 689 990 q 643 853 686 914 q 532 794 599 794 q 432 825 488 794 q 347 857 375 857 q 288 800 300 857 z "},"ö":{"ha":868,"x_min":50,"x_max":819,"o":"m 243 347 q 243 306 243 347 q 297 208 243 264 q 435 153 351 153 q 572 208 518 153 q 626 347 626 265 q 572 485 626 431 q 435 540 518 540 q 297 485 351 540 q 243 347 243 431 m 50 347 q 158 606 50 501 q 435 711 265 711 q 711 606 604 711 q 819 347 819 500 q 711 86 819 192 q 435 -18 603 -18 q 158 86 267 -18 q 50 347 50 192 m 660 819 q 588 790 631 790 q 514 819 544 790 q 485 893 485 850 q 514 965 485 936 q 588 994 544 994 q 660 965 631 994 q 690 893 690 936 q 660 819 690 850 m 282 790 q 210 820 240 790 q 179 893 179 850 q 210 965 179 935 q 282 994 240 994 q 355 965 325 994 q 385 893 385 936 q 355 820 385 850 q 282 790 325 790 z "},"÷":{"ha":878,"x_min":92,"x_max":786,"o":"m 526 686 q 440 651 492 651 q 353 686 389 651 q 317 774 317 722 q 353 860 317 825 q 440 896 389 896 q 526 860 492 896 q 563 774 563 825 q 526 686 563 722 m 786 372 l 92 372 l 92 547 l 786 547 l 786 372 m 526 58 q 440 24 492 24 q 353 58 389 24 q 317 146 317 94 q 353 233 317 197 q 440 269 389 269 q 526 233 492 269 q 563 146 563 197 q 526 58 563 94 z "},"ø":{"ha":868,"x_min":50,"x_max":819,"o":"m 435 -18 q 232 32 322 -18 l 206 0 l 69 0 l 150 94 q 50 347 50 197 q 158 606 50 501 q 435 711 265 711 q 636 661 547 711 l 664 693 l 800 693 l 718 597 q 819 347 819 494 q 711 86 819 192 q 435 -18 603 -18 m 243 347 q 274 238 243 285 l 518 524 q 435 542 481 542 q 297 486 351 542 q 243 347 243 431 m 435 153 q 572 208 518 153 q 626 347 626 264 q 596 456 626 408 l 351 169 q 435 153 389 153 z "},"ù":{"ha":860,"x_min":83,"x_max":764,"o":"m 764 693 l 764 0 l 568 0 l 568 83 q 336 -18 475 -18 q 150 58 217 -18 q 83 268 83 133 l 83 693 l 279 693 l 279 308 q 316 197 279 233 q 411 161 353 161 q 499 187 456 161 q 568 251 543 213 l 568 693 l 764 693 m 178 1003 l 415 1003 l 547 800 l 378 800 l 178 1003 z "},"ú":{"ha":860,"x_min":83,"x_max":764,"o":"m 764 693 l 764 0 l 568 0 l 568 83 q 336 -18 475 -18 q 150 58 217 -18 q 83 268 83 133 l 83 693 l 279 693 l 279 308 q 316 197 279 233 q 411 161 353 161 q 499 187 456 161 q 568 251 543 213 l 568 693 l 764 693 m 475 792 l 306 792 l 438 994 l 674 994 l 475 792 z "},"û":{"ha":860,"x_min":83,"x_max":764,"o":"m 764 693 l 764 0 l 568 0 l 568 83 q 336 -18 475 -18 q 150 58 217 -18 q 83 268 83 133 l 83 693 l 279 693 l 279 308 q 316 197 279 233 q 411 161 353 161 q 499 187 456 161 q 568 251 543 213 l 568 693 l 764 693 m 331 792 l 163 792 l 332 994 l 521 994 l 686 792 l 514 792 l 422 900 l 331 792 z "},"ü":{"ha":860,"x_min":83,"x_max":764,"o":"m 764 693 l 764 0 l 568 0 l 568 83 q 336 -18 475 -18 q 150 58 217 -18 q 83 268 83 133 l 83 693 l 279 693 l 279 308 q 316 197 279 233 q 411 161 353 161 q 499 187 456 161 q 568 251 543 213 l 568 693 l 764 693 m 650 819 q 578 790 621 790 q 504 819 535 790 q 475 893 475 850 q 504 965 475 936 q 578 994 535 994 q 650 965 621 994 q 681 893 681 936 q 650 819 681 850 m 272 790 q 200 820 231 790 q 169 893 169 850 q 200 965 169 935 q 272 994 231 994 q 345 965 315 994 q 375 893 375 936 q 345 820 375 850 q 272 790 315 790 z "},"ý":{"ha":804,"x_min":8,"x_max":783,"o":"m 186 -286 q 47 -258 100 -286 l 47 -87 q 153 -115 96 -115 q 241 -83 206 -115 q 307 24 276 -50 l 8 693 l 219 693 l 403 238 l 576 693 l 783 693 l 463 -72 q 186 -286 371 -286 m 463 792 l 293 792 l 425 994 l 661 994 l 463 792 z "},"þ":{"ha":894,"x_min":96,"x_max":846,"o":"m 519 -18 q 292 85 369 -18 l 292 -278 l 96 -278 l 96 972 l 292 972 l 292 608 q 519 711 374 711 q 753 606 661 711 q 846 347 846 503 q 753 86 846 192 q 519 -18 661 -18 m 464 153 q 599 208 547 153 q 651 347 651 265 q 599 485 651 428 q 464 540 547 540 q 363 512 408 540 q 292 438 317 483 l 292 257 q 363 182 317 211 q 464 153 408 153 z "},"ÿ":{"ha":804,"x_min":8,"x_max":783,"o":"m 186 -286 q 47 -258 100 -286 l 47 -87 q 153 -115 96 -115 q 241 -83 206 -115 q 307 24 276 -50 l 8 693 l 219 693 l 403 238 l 576 693 l 783 693 l 463 -72 q 186 -286 371 -286 m 619 819 q 547 790 590 790 q 474 819 504 790 q 444 893 444 850 q 474 965 444 936 q 547 994 504 994 q 619 965 590 994 q 650 893 650 936 q 619 819 650 850 m 242 790 q 169 820 200 790 q 139 893 139 850 q 169 965 139 935 q 242 994 200 994 q 315 965 285 994 q 344 893 344 936 q 315 820 344 850 q 242 790 285 790 z "},"Ā":{"ha":1069,"x_min":22,"x_max":1047,"o":"m 232 0 l 22 0 l 439 978 l 631 978 l 1047 0 l 835 0 l 739 225 l 328 225 l 232 0 m 533 728 l 390 390 l 675 390 l 533 728 m 747 1090 l 322 1090 l 322 1222 l 747 1222 l 747 1090 z "},"ā":{"ha":836,"x_min":39,"x_max":796,"o":"m 756 151 q 796 160 781 151 l 796 17 q 690 -12 758 -12 q 533 76 572 -12 q 294 -18 442 -18 q 110 46 181 -18 q 39 214 39 110 q 119 383 39 325 q 313 442 200 442 q 513 399 431 442 l 513 419 q 329 550 513 550 q 119 492 217 550 l 119 656 q 376 711 225 711 q 615 639 526 711 q 707 439 707 567 l 707 204 q 756 151 707 151 m 513 274 q 368 314 451 314 q 269 290 306 314 q 232 224 232 267 q 265 156 232 179 q 356 133 299 133 q 513 204 458 133 l 513 274 m 607 826 l 181 826 l 181 958 l 607 958 l 607 826 z "},"Ă":{"ha":1069,"x_min":22,"x_max":1047,"o":"m 232 0 l 22 0 l 439 978 l 631 978 l 1047 0 l 835 0 l 739 225 l 328 225 l 232 0 m 533 728 l 390 390 l 675 390 l 533 728 m 306 1263 l 438 1263 q 467 1189 440 1217 q 535 1161 493 1161 q 603 1189 576 1161 q 632 1263 629 1217 l 764 1263 q 694 1097 761 1158 q 535 1036 629 1036 q 374 1097 442 1036 q 306 1263 307 1158 z "},"ă":{"ha":836,"x_min":39,"x_max":796,"o":"m 756 151 q 796 160 781 151 l 796 17 q 690 -12 758 -12 q 533 76 572 -12 q 294 -18 442 -18 q 110 46 181 -18 q 39 214 39 110 q 119 383 39 325 q 313 442 200 442 q 513 399 431 442 l 513 419 q 329 550 513 550 q 119 492 217 550 l 119 656 q 376 711 225 711 q 615 639 526 711 q 707 439 707 567 l 707 204 q 756 151 707 151 m 513 274 q 368 314 451 314 q 269 290 306 314 q 232 224 232 267 q 265 156 232 179 q 356 133 299 133 q 513 204 458 133 l 513 274 m 386 779 q 224 841 289 779 q 156 1004 160 903 l 289 1004 q 318 931 292 958 q 386 903 344 903 q 453 931 428 903 q 482 1004 479 958 l 614 1004 q 546 840 611 901 q 386 779 481 779 z "},"Ą":{"ha":1069,"x_min":22,"x_max":1124,"o":"m 1040 -281 q 910 -240 958 -281 q 863 -137 863 -200 q 925 0 863 -62 l 835 0 l 739 225 l 328 225 l 232 0 l 22 0 l 439 978 l 631 978 l 1047 0 q 999 -97 999 -49 q 1019 -145 999 -128 q 1074 -162 1039 -162 q 1124 -153 1106 -162 l 1124 -269 q 1040 -281 1093 -281 m 533 728 l 390 390 l 675 390 l 533 728 z "},"ą":{"ha":819,"x_min":39,"x_max":872,"o":"m 789 -264 q 659 -224 707 -264 q 611 -121 611 -183 q 651 -8 611 -64 q 533 76 563 6 q 294 -18 442 -18 q 110 46 181 -18 q 39 214 39 110 q 119 383 39 325 q 313 442 200 442 q 513 399 431 442 l 513 419 q 329 550 513 550 q 119 492 217 550 l 119 656 q 376 711 225 711 q 615 639 526 711 q 707 439 707 567 l 707 204 q 756 151 707 151 q 796 160 781 151 l 796 17 q 747 -81 747 -32 q 767 -128 747 -111 q 822 -146 788 -146 q 872 -136 854 -146 l 872 -253 q 789 -264 842 -264 m 513 204 l 513 274 q 368 314 451 314 q 269 290 306 314 q 232 224 232 267 q 265 156 232 179 q 356 133 299 133 q 513 204 458 133 z "},"Ć":{"ha":940,"x_min":74,"x_max":876,"o":"m 600 -19 q 224 122 374 -19 q 74 486 74 267 q 222 850 74 708 q 600 992 372 992 q 857 931 742 992 l 857 729 q 601 804 744 804 q 369 714 464 804 q 278 486 278 625 q 372 257 278 347 q 610 168 465 168 q 876 253 769 168 l 876 51 q 600 -19 758 -19 m 610 1057 l 440 1057 l 572 1260 l 808 1260 l 610 1057 z "},"ć":{"ha":713,"x_min":50,"x_max":646,"o":"m 426 -18 q 161 82 272 -18 q 50 349 50 185 q 161 611 50 513 q 429 711 274 711 q 635 665 543 711 l 635 499 q 458 540 544 540 q 304 486 367 540 q 243 347 243 433 q 306 207 243 261 q 458 153 368 153 q 646 200 565 153 l 646 33 q 426 -18 549 -18 m 435 792 l 265 792 l 397 994 l 633 994 l 435 792 z "},"Ĉ":{"ha":940,"x_min":74,"x_max":876,"o":"m 600 -19 q 224 122 374 -19 q 74 486 74 267 q 222 850 74 708 q 600 992 372 992 q 857 931 742 992 l 857 729 q 601 804 744 804 q 369 714 464 804 q 278 486 278 625 q 372 257 278 347 q 610 168 465 168 q 876 253 769 168 l 876 51 q 600 -19 758 -19 m 454 1058 l 285 1058 l 454 1260 l 643 1260 l 808 1058 l 638 1058 l 544 1165 l 454 1058 z "},"ĉ":{"ha":717,"x_min":50,"x_max":649,"o":"m 426 -18 q 161 82 272 -18 q 50 349 50 185 q 161 611 50 513 q 429 711 274 711 q 635 665 543 711 l 635 499 q 458 540 544 540 q 304 486 367 540 q 243 347 243 433 q 306 207 243 261 q 458 153 368 153 q 646 200 565 153 l 646 33 q 426 -18 549 -18 m 293 792 l 125 792 l 294 994 l 483 994 l 649 792 l 476 792 l 385 900 l 293 792 z "},"Ċ":{"ha":940,"x_min":74,"x_max":876,"o":"m 600 -19 q 224 122 374 -19 q 74 486 74 267 q 222 850 74 708 q 600 992 372 992 q 857 931 742 992 l 857 729 q 601 804 744 804 q 369 714 464 804 q 278 486 278 625 q 372 257 278 347 q 610 168 465 168 q 876 253 769 168 l 876 51 q 600 -19 758 -19 m 569 1056 q 497 1085 528 1056 q 467 1158 467 1115 q 497 1230 467 1200 q 569 1260 528 1260 q 642 1230 613 1260 q 672 1158 672 1200 q 642 1085 672 1115 q 569 1056 613 1056 z "},"ċ":{"ha":717,"x_min":50,"x_max":646,"o":"m 426 -18 q 161 82 272 -18 q 50 349 50 185 q 161 611 50 513 q 429 711 274 711 q 635 665 543 711 l 635 499 q 458 540 544 540 q 304 486 367 540 q 243 347 243 433 q 306 207 243 261 q 458 153 368 153 q 646 200 565 153 l 646 33 q 426 -18 549 -18 m 413 790 q 340 820 371 790 q 310 893 310 850 q 340 965 310 935 q 413 994 371 994 q 485 965 456 994 q 514 893 514 936 q 485 820 514 850 q 413 790 456 790 z "},"Č":{"ha":940,"x_min":74,"x_max":876,"o":"m 600 -19 q 224 122 374 -19 q 74 486 74 267 q 222 850 74 708 q 600 992 372 992 q 857 931 742 992 l 857 729 q 601 804 744 804 q 369 714 464 804 q 278 486 278 625 q 372 257 278 347 q 610 168 465 168 q 876 253 769 168 l 876 51 q 600 -19 758 -19 m 649 1260 l 818 1260 l 649 1057 l 460 1057 l 294 1260 l 465 1260 l 558 1151 l 649 1260 z "},"č":{"ha":717,"x_min":50,"x_max":656,"o":"m 426 -18 q 161 82 272 -18 q 50 349 50 185 q 161 611 50 513 q 429 711 274 711 q 635 665 543 711 l 635 499 q 458 540 544 540 q 304 486 367 540 q 243 347 243 433 q 306 207 243 261 q 458 153 368 153 q 646 200 565 153 l 646 33 q 426 -18 549 -18 m 486 994 l 656 994 l 486 792 l 297 792 l 131 994 l 303 994 l 394 886 l 486 994 z "},"Ď":{"ha":1078,"x_min":107,"x_max":1004,"o":"m 471 0 l 107 0 l 107 972 l 471 972 q 856 836 707 972 q 1004 486 1004 700 q 856 135 1004 271 q 471 0 708 0 m 307 793 l 307 179 l 454 179 q 708 260 617 179 q 799 486 799 342 q 708 712 799 631 q 454 793 617 793 l 307 793 m 576 1260 l 746 1260 l 576 1057 l 388 1057 l 222 1260 l 393 1260 l 486 1151 l 576 1260 z "},"ď":{"ha":1140,"x_min":50,"x_max":1160,"o":"m 376 -18 q 142 86 236 -18 q 50 347 50 192 q 142 606 50 501 q 376 711 235 711 q 604 608 522 711 l 604 972 l 800 972 l 800 0 l 604 0 l 604 85 q 376 -18 526 -18 m 432 153 q 533 182 488 153 q 604 257 579 211 l 604 438 q 533 512 579 483 q 432 540 488 540 q 297 485 349 540 q 244 347 244 428 q 297 208 244 265 q 432 153 349 153 m 1043 689 l 897 689 l 979 972 l 1160 972 l 1043 689 z "},"Đ":{"ha":1153,"x_min":49,"x_max":1079,"o":"m 546 0 l 182 0 l 182 425 l 49 425 l 49 593 l 182 593 l 182 972 l 546 972 q 931 836 782 972 q 1079 486 1079 700 q 931 135 1079 271 q 546 0 783 0 m 382 425 l 382 179 l 529 179 q 783 260 692 179 q 874 486 874 342 q 783 712 874 631 q 529 793 692 793 l 382 793 l 382 593 l 574 593 l 574 425 l 382 425 z "},"đ":{"ha":888,"x_min":50,"x_max":931,"o":"m 604 776 l 435 776 l 435 878 l 604 878 l 604 972 l 800 972 l 800 878 l 931 878 l 931 776 l 800 776 l 800 0 l 604 0 l 604 85 q 376 -18 526 -18 q 142 86 236 -18 q 50 347 50 192 q 142 606 50 501 q 376 711 235 711 q 604 608 522 711 l 604 776 m 432 153 q 533 182 488 153 q 604 257 579 211 l 604 438 q 533 512 579 483 q 432 540 488 540 q 297 485 349 540 q 244 347 244 428 q 297 208 244 265 q 432 153 349 153 z "},"Ē":{"ha":889,"x_min":107,"x_max":836,"o":"m 836 0 l 107 0 l 107 972 l 821 972 l 821 793 l 307 793 l 307 606 l 721 606 l 721 429 l 307 429 l 307 179 l 836 179 l 836 0 m 682 1090 l 257 1090 l 257 1222 l 682 1222 l 682 1090 z "},"ē":{"ha":796,"x_min":50,"x_max":742,"o":"m 435 -18 q 161 82 272 -18 q 50 347 50 182 q 150 606 50 501 q 411 711 250 711 q 651 604 561 711 q 742 344 742 497 l 742 293 l 244 293 q 322 186 260 224 q 476 149 383 149 q 699 210 592 149 l 699 53 q 435 -18 606 -18 m 244 418 l 549 418 q 506 517 546 478 q 403 557 467 557 q 294 519 338 557 q 244 418 251 481 m 614 826 l 188 826 l 188 958 l 614 958 l 614 826 z "},"Ĕ":{"ha":889,"x_min":107,"x_max":836,"o":"m 836 0 l 107 0 l 107 972 l 821 972 l 821 793 l 307 793 l 307 606 l 721 606 l 721 429 l 307 429 l 307 179 l 836 179 l 836 0 m 240 1263 l 372 1263 q 401 1189 375 1217 q 469 1161 428 1161 q 538 1189 511 1161 q 567 1263 564 1217 l 699 1263 q 629 1097 696 1158 q 469 1036 564 1036 q 308 1097 376 1036 q 240 1263 242 1158 z "},"ĕ":{"ha":796,"x_min":50,"x_max":742,"o":"m 435 -18 q 161 82 272 -18 q 50 347 50 182 q 150 606 50 501 q 411 711 250 711 q 651 604 561 711 q 742 344 742 497 l 742 293 l 244 293 q 322 186 260 224 q 476 149 383 149 q 699 210 592 149 l 699 53 q 435 -18 606 -18 m 244 418 l 549 418 q 506 517 546 478 q 403 557 467 557 q 294 519 338 557 q 244 418 251 481 m 400 779 q 238 841 303 779 q 169 1004 174 903 l 303 1004 q 332 931 306 958 q 400 903 358 903 q 467 931 442 903 q 496 1004 493 958 l 628 1004 q 560 840 625 901 q 400 779 494 779 z "},"Ė":{"ha":889,"x_min":107,"x_max":836,"o":"m 836 0 l 107 0 l 107 972 l 821 972 l 821 793 l 307 793 l 307 606 l 721 606 l 721 429 l 307 429 l 307 179 l 836 179 l 836 0 m 469 1056 q 397 1085 428 1056 q 367 1158 367 1115 q 397 1230 367 1200 q 469 1260 428 1260 q 542 1230 513 1260 q 572 1158 572 1200 q 542 1085 572 1115 q 469 1056 513 1056 z "},"ė":{"ha":796,"x_min":50,"x_max":742,"o":"m 435 -18 q 161 82 272 -18 q 50 347 50 182 q 150 606 50 501 q 411 711 250 711 q 651 604 561 711 q 742 344 742 497 l 742 293 l 244 293 q 322 186 260 224 q 476 149 383 149 q 699 210 592 149 l 699 53 q 435 -18 606 -18 m 244 418 l 549 418 q 506 517 546 478 q 403 557 467 557 q 294 519 338 557 q 244 418 251 481 m 400 790 q 328 820 358 790 q 297 893 297 850 q 328 965 297 935 q 400 994 358 994 q 472 965 443 994 q 501 893 501 936 q 472 820 501 850 q 400 790 443 790 z "},"Ę":{"ha":889,"x_min":107,"x_max":913,"o":"m 714 0 l 107 0 l 107 972 l 821 972 l 821 793 l 307 793 l 307 606 l 721 606 l 721 429 l 307 429 l 307 179 l 836 179 l 836 0 q 788 -97 788 -49 q 808 -145 788 -128 q 863 -162 828 -162 q 913 -153 894 -162 l 913 -269 q 829 -281 882 -281 q 699 -240 747 -281 q 651 -137 651 -200 q 714 0 651 -62 z "},"ę":{"ha":796,"x_min":50,"x_max":775,"o":"m 692 -228 q 562 -187 610 -228 q 514 -85 514 -147 q 531 -10 514 -47 q 435 -18 485 -18 q 161 82 272 -18 q 50 347 50 182 q 150 606 50 501 q 411 711 250 711 q 651 604 561 711 q 742 344 742 497 l 742 293 l 244 293 q 322 186 260 224 q 476 149 383 149 q 699 210 592 149 l 699 53 q 650 -44 650 4 q 670 -92 650 -75 q 725 -110 690 -110 q 775 -100 757 -110 l 775 -217 q 692 -228 744 -228 m 244 418 l 549 418 q 506 517 546 478 q 403 557 467 557 q 294 519 338 557 q 244 418 251 481 z "},"Ě":{"ha":889,"x_min":107,"x_max":836,"o":"m 836 0 l 107 0 l 107 972 l 821 972 l 821 793 l 307 793 l 307 606 l 721 606 l 721 429 l 307 429 l 307 179 l 836 179 l 836 0 m 564 1260 l 733 1260 l 564 1057 l 375 1057 l 210 1260 l 381 1260 l 474 1151 l 564 1260 z "},"ě":{"ha":796,"x_min":50,"x_max":742,"o":"m 435 -18 q 161 82 272 -18 q 50 347 50 182 q 150 606 50 501 q 411 711 250 711 q 651 604 561 711 q 742 344 742 497 l 742 293 l 244 293 q 322 186 260 224 q 476 149 383 149 q 699 210 592 149 l 699 53 q 435 -18 606 -18 m 244 418 l 549 418 q 506 517 546 478 q 403 557 467 557 q 294 519 338 557 q 244 418 251 481 m 492 994 l 661 994 l 492 792 l 303 792 l 136 994 l 308 994 l 400 886 l 492 994 z "},"Ĝ":{"ha":1065,"x_min":74,"x_max":988,"o":"m 592 -19 q 222 122 369 -19 q 74 486 74 267 q 222 850 74 708 q 599 992 369 992 q 890 918 767 992 l 890 721 q 613 804 756 804 q 371 715 464 804 q 278 482 278 628 q 368 251 278 338 q 592 165 458 165 q 788 229 719 165 l 788 564 l 988 564 l 988 135 q 821 25 925 68 q 592 -19 713 -19 m 464 1058 l 294 1058 l 464 1260 l 653 1260 l 818 1058 l 647 1058 l 554 1165 l 464 1058 z "},"ĝ":{"ha":886,"x_min":50,"x_max":797,"o":"m 601 613 l 601 693 l 797 693 l 797 81 q 678 -192 797 -97 q 396 -286 558 -286 q 124 -226 225 -286 l 124 -50 q 375 -117 233 -117 q 456 -108 418 -117 q 528 -78 493 -99 q 582 -20 563 -58 q 601 71 601 18 l 601 114 q 372 15 519 15 q 140 115 231 15 q 50 364 50 217 q 140 611 50 510 q 372 711 231 711 q 601 613 519 711 m 429 185 q 531 211 485 185 q 601 279 576 238 l 601 446 q 531 514 576 488 q 429 540 485 540 q 297 490 347 540 q 246 363 246 439 q 298 235 246 286 q 429 185 350 185 m 340 792 l 172 792 l 342 994 l 531 994 l 696 792 l 524 792 l 432 900 l 340 792 z "},"Ğ":{"ha":1065,"x_min":74,"x_max":988,"o":"m 592 -19 q 222 122 369 -19 q 74 486 74 267 q 222 850 74 708 q 599 992 369 992 q 890 918 767 992 l 890 721 q 613 804 756 804 q 371 715 464 804 q 278 482 278 628 q 368 251 278 338 q 592 165 458 165 q 788 229 719 165 l 788 564 l 988 564 l 988 135 q 821 25 925 68 q 592 -19 713 -19 m 343 1279 l 475 1279 q 504 1206 478 1233 q 572 1178 531 1178 q 640 1206 614 1178 q 669 1279 667 1233 l 801 1279 q 732 1114 799 1175 q 572 1053 667 1053 q 411 1114 479 1053 q 343 1279 344 1175 z "},"ğ":{"ha":886,"x_min":50,"x_max":797,"o":"m 601 613 l 601 693 l 797 693 l 797 81 q 678 -192 797 -97 q 396 -286 558 -286 q 124 -226 225 -286 l 124 -50 q 375 -117 233 -117 q 456 -108 418 -117 q 528 -78 493 -99 q 582 -20 563 -58 q 601 71 601 18 l 601 114 q 372 15 519 15 q 140 115 231 15 q 50 364 50 217 q 140 611 50 510 q 372 711 231 711 q 601 613 519 711 m 429 185 q 531 211 485 185 q 601 279 576 238 l 601 446 q 531 514 576 488 q 429 540 485 540 q 297 490 347 540 q 246 363 246 439 q 298 235 246 286 q 429 185 350 185 m 426 779 q 265 841 329 779 q 196 1004 200 903 l 329 1004 q 358 931 332 958 q 426 903 385 903 q 494 931 468 903 q 522 1004 519 958 l 654 1004 q 586 840 651 901 q 426 779 521 779 z "},"Ġ":{"ha":1065,"x_min":74,"x_max":988,"o":"m 592 -19 q 222 122 369 -19 q 74 486 74 267 q 222 850 74 708 q 599 992 369 992 q 890 918 767 992 l 890 721 q 613 804 756 804 q 371 715 464 804 q 278 482 278 628 q 368 251 278 338 q 592 165 458 165 q 788 229 719 165 l 788 564 l 988 564 l 988 135 q 821 25 925 68 q 592 -19 713 -19 m 575 1056 q 503 1085 533 1056 q 472 1158 472 1115 q 503 1230 472 1200 q 575 1260 533 1260 q 648 1230 618 1260 q 678 1158 678 1200 q 648 1085 678 1115 q 575 1056 618 1056 z "},"ġ":{"ha":886,"x_min":50,"x_max":797,"o":"m 601 613 l 601 693 l 797 693 l 797 81 q 678 -192 797 -97 q 396 -286 558 -286 q 124 -226 225 -286 l 124 -50 q 375 -117 233 -117 q 456 -108 418 -117 q 528 -78 493 -99 q 582 -20 563 -58 q 601 71 601 18 l 601 114 q 372 15 519 15 q 140 115 231 15 q 50 364 50 217 q 140 611 50 510 q 372 711 231 711 q 601 613 519 711 m 429 185 q 531 211 485 185 q 601 279 576 238 l 601 446 q 531 514 576 488 q 429 540 485 540 q 297 490 347 540 q 246 363 246 439 q 298 235 246 286 q 429 185 350 185 m 429 790 q 357 820 388 790 q 326 893 326 850 q 357 965 326 935 q 429 994 388 994 q 501 965 472 994 q 531 893 531 936 q 501 820 531 850 q 429 790 472 790 z "},"Ģ":{"ha":1065,"x_min":74,"x_max":988,"o":"m 592 -19 q 222 122 369 -19 q 74 486 74 267 q 222 850 74 708 q 599 992 369 992 q 890 918 767 992 l 890 721 q 613 804 756 804 q 371 715 464 804 q 278 482 278 628 q 368 251 278 338 q 592 165 458 165 q 788 229 719 165 l 788 564 l 988 564 l 988 135 q 821 25 925 68 q 592 -19 713 -19 m 579 -375 l 433 -375 l 515 -92 l 696 -92 l 579 -375 z "},"ģ":{"ha":886,"x_min":50,"x_max":797,"o":"m 601 613 l 601 693 l 797 693 l 797 81 q 678 -192 797 -97 q 396 -286 558 -286 q 124 -226 225 -286 l 124 -50 q 375 -117 233 -117 q 456 -108 418 -117 q 528 -78 493 -99 q 582 -20 563 -58 q 601 71 601 18 l 601 114 q 372 15 519 15 q 140 115 231 15 q 50 364 50 217 q 140 611 50 510 q 372 711 231 711 q 601 613 519 711 m 429 185 q 531 211 485 185 q 601 279 576 238 l 601 446 q 531 514 576 488 q 429 540 485 540 q 297 490 347 540 q 246 363 246 439 q 298 235 246 286 q 429 185 350 185 m 454 1081 l 600 1081 l 518 797 l 338 797 l 454 1081 z "},"Ĥ":{"ha":1053,"x_min":107,"x_max":944,"o":"m 307 0 l 107 0 l 107 972 l 307 972 l 307 608 l 746 608 l 746 972 l 944 972 l 944 0 l 746 0 l 746 426 l 307 426 l 307 0 m 433 1058 l 264 1058 l 433 1260 l 622 1260 l 788 1058 l 617 1058 l 524 1165 l 433 1058 z "},"ĥ":{"ha":847,"x_min":-76,"x_max":765,"o":"m 85 0 l 85 972 l 281 972 l 281 608 q 513 711 375 711 q 699 635 632 711 q 765 425 765 560 l 765 0 l 569 0 l 569 385 q 533 496 569 460 q 438 532 496 532 q 349 506 393 532 q 281 442 306 481 l 281 0 l 85 0 m 93 1058 l -76 1058 l 93 1260 l 282 1260 l 447 1058 l 276 1058 l 183 1165 l 93 1058 z "},"Ħ":{"ha":1164,"x_min":64,"x_max":1100,"o":"m 363 0 l 164 0 l 164 719 l 64 719 l 64 849 l 164 849 l 164 972 l 363 972 l 363 849 l 803 849 l 803 972 l 1001 972 l 1001 849 l 1100 849 l 1100 719 l 1001 719 l 1001 0 l 803 0 l 803 426 l 363 426 l 363 0 m 363 719 l 363 608 l 803 608 l 803 719 l 363 719 z "},"ħ":{"ha":924,"x_min":19,"x_max":842,"o":"m 357 343 l 357 0 l 161 0 l 161 719 l 19 719 l 19 849 l 161 849 l 161 972 l 357 972 l 357 849 l 579 849 l 579 719 l 357 719 l 357 510 q 589 613 451 613 q 775 537 708 613 q 842 326 842 461 l 842 0 l 646 0 l 646 286 q 609 397 646 361 q 514 433 572 433 q 426 408 469 433 q 357 343 382 382 z "},"Ĩ":{"ha":426,"x_min":-40,"x_max":467,"o":"m 67 1063 l -40 1063 q 5 1201 -39 1146 q 118 1257 49 1257 q 217 1226 161 1257 q 301 1196 272 1196 q 361 1253 349 1196 l 467 1253 q 422 1115 467 1176 q 310 1057 378 1057 q 210 1088 265 1057 q 125 1119 153 1119 q 67 1063 78 1119 m 313 0 l 114 0 l 114 972 l 313 972 l 313 0 z "},"ĩ":{"ha":371,"x_min":-68,"x_max":439,"o":"m 38 800 l -68 800 q -24 938 -68 881 q 89 994 21 994 q 188 964 132 994 q 274 933 244 933 q 332 990 321 933 l 439 990 q 393 853 436 914 q 282 794 350 794 q 182 825 238 794 q 97 857 125 857 q 38 800 50 857 m 283 0 l 88 0 l 88 693 l 283 693 l 283 0 z "},"Ī":{"ha":426,"x_min":0,"x_max":425,"o":"m 425 1090 l 0 1090 l 0 1222 l 425 1222 l 425 1090 m 313 0 l 114 0 l 114 972 l 313 972 l 313 0 z "},"ī":{"ha":371,"x_min":-28,"x_max":399,"o":"m 283 0 l 88 0 l 88 693 l 283 693 l 283 0 m 399 826 l -28 826 l -28 958 l 399 958 l 399 826 z "},"Ĭ":{"ha":426,"x_min":-17,"x_max":442,"o":"m -17 1263 l 115 1263 q 144 1189 118 1217 q 213 1161 171 1161 q 281 1189 254 1161 q 310 1263 307 1217 l 442 1263 q 372 1097 439 1158 q 213 1036 307 1036 q 51 1097 119 1036 q -17 1263 -15 1158 m 313 0 l 114 0 l 114 972 l 313 972 l 313 0 z "},"ĭ":{"ha":371,"x_min":-46,"x_max":413,"o":"m 185 779 q 23 841 88 779 q -46 1004 -42 903 l 88 1004 q 117 931 90 958 q 185 903 143 903 q 252 931 226 903 q 281 1004 278 958 l 413 1004 q 344 840 410 901 q 185 779 279 779 m 283 0 l 88 0 l 88 693 l 283 693 l 283 0 z "},"Į":{"ha":426,"x_min":114,"x_max":389,"o":"m 190 0 l 114 0 l 114 972 l 313 972 l 313 0 q 264 -97 264 -49 q 284 -145 264 -128 q 339 -162 304 -162 q 389 -153 371 -162 l 389 -269 q 306 -281 358 -281 q 176 -240 224 -281 q 128 -137 128 -200 q 190 0 128 -62 z "},"į":{"ha":407,"x_min":86,"x_max":378,"o":"m 179 0 l 106 0 l 106 693 l 301 693 l 301 0 q 253 -97 253 -49 q 273 -145 253 -128 q 328 -162 293 -162 q 378 -153 360 -162 l 378 -269 q 294 -281 347 -281 q 165 -240 213 -281 q 117 -137 117 -200 q 179 0 117 -62 m 86 876 q 120 960 86 926 q 203 994 154 994 q 285 960 251 994 q 319 876 319 926 q 285 794 319 828 q 203 760 251 760 q 120 794 154 760 q 86 876 86 828 z "},"İ":{"ha":426,"x_min":111,"x_max":317,"o":"m 214 1056 q 142 1085 172 1056 q 111 1158 111 1115 q 142 1230 111 1200 q 214 1260 172 1260 q 287 1230 257 1260 q 317 1158 317 1200 q 287 1085 317 1115 q 214 1056 257 1056 m 313 0 l 114 0 l 114 972 l 313 972 l 313 0 z "},"ı":{"ha":371,"x_min":88,"x_max":283,"o":"m 283 0 l 88 0 l 88 693 l 283 693 l 283 0 z "},"Ĳ":{"ha":881,"x_min":114,"x_max":779,"o":"m 313 375 l 114 375 l 114 972 l 313 972 l 313 375 m 669 64 q 383 -19 558 -19 q 114 40 208 -19 l 114 239 q 351 168 219 168 q 524 215 468 168 q 581 364 581 261 l 581 972 l 779 972 l 779 335 q 669 64 779 147 z "},"ĳ":{"ha":797,"x_min":86,"x_max":710,"o":"m 440 -286 q 286 -256 338 -286 l 286 -89 q 390 -115 335 -115 q 496 -6 496 -115 l 496 693 l 692 693 l 692 -25 q 624 -217 692 -149 q 440 -286 557 -286 m 475 876 q 509 960 475 926 q 592 994 543 994 q 675 960 640 994 q 710 876 710 926 q 675 794 710 828 q 592 760 640 760 q 509 794 543 760 q 475 876 475 828 m 301 0 l 106 0 l 106 693 l 301 693 l 301 0 m 86 876 q 120 960 86 926 q 203 994 154 994 q 285 960 251 994 q 319 876 319 926 q 285 794 319 828 q 203 760 251 760 q 120 794 154 760 q 86 876 86 828 z "},"Ĵ":{"ha":693,"x_min":22,"x_max":758,"o":"m 256 -19 q 22 38 104 -19 l 22 235 q 214 168 106 168 q 353 212 308 168 q 399 353 399 256 l 399 972 l 597 972 l 597 319 q 570 158 597 226 q 494 53 543 90 q 387 -2 446 15 q 256 -19 328 -19 m 404 1058 l 235 1058 l 404 1260 l 593 1260 l 758 1058 l 588 1058 l 494 1165 l 404 1058 z "},"ĵ":{"ha":407,"x_min":-104,"x_max":467,"o":"m 50 -286 q -104 -256 -53 -286 l -104 -90 q 0 -117 -56 -117 q 106 -7 106 -117 l 106 693 l 301 693 l 301 -25 q 234 -217 301 -149 q 50 -286 167 -286 m 111 800 l -57 800 l 113 1003 l 301 1003 l 467 800 l 294 800 l 203 908 l 111 800 z "},"Ķ":{"ha":981,"x_min":107,"x_max":981,"o":"m 307 0 l 107 0 l 107 972 l 307 972 l 307 589 l 665 972 l 910 972 l 497 526 l 981 0 l 725 0 l 307 449 l 307 0 m 504 -375 l 358 -375 l 440 -92 l 621 -92 l 504 -375 z "},"ķ":{"ha":821,"x_min":85,"x_max":807,"o":"m 281 0 l 85 0 l 85 972 l 281 972 l 281 440 l 519 693 l 760 693 l 458 381 l 807 0 l 554 0 l 281 299 l 281 0 m 418 -375 l 272 -375 l 354 -92 l 535 -92 l 418 -375 z "},"ĸ":{"ha":832,"x_min":96,"x_max":818,"o":"m 292 0 l 96 0 l 96 693 l 292 693 l 292 440 l 531 693 l 771 693 l 469 381 l 818 0 l 565 0 l 292 299 l 292 0 z "},"Ĺ":{"ha":838,"x_min":107,"x_max":800,"o":"m 800 0 l 107 0 l 107 972 l 307 972 l 307 179 l 800 179 l 800 0 m 293 1057 l 124 1057 l 256 1260 l 492 1260 l 293 1057 z "},"ĺ":{"ha":431,"x_min":83,"x_max":468,"o":"m 268 -18 q 133 28 182 -18 q 83 174 83 75 l 83 972 l 279 972 l 279 225 q 342 156 279 156 q 392 168 371 156 l 392 7 q 268 -18 342 -18 m 269 1057 l 100 1057 l 232 1260 l 468 1260 l 269 1057 z "},"Ļ":{"ha":838,"x_min":107,"x_max":800,"o":"m 800 0 l 107 0 l 107 972 l 307 972 l 307 179 l 800 179 l 800 0 m 464 -375 l 318 -375 l 400 -92 l 581 -92 l 464 -375 z "},"ļ":{"ha":442,"x_min":96,"x_max":404,"o":"m 281 -18 q 145 28 194 -18 q 96 174 96 75 l 96 972 l 292 972 l 292 225 q 354 156 292 156 q 404 168 383 156 l 404 7 q 281 -18 354 -18 m 258 -375 l 113 -375 l 194 -92 l 375 -92 l 258 -375 z "},"Ľ":{"ha":849,"x_min":107,"x_max":800,"o":"m 800 0 l 107 0 l 107 972 l 307 972 l 307 179 l 800 179 l 800 0 m 676 689 l 531 689 l 613 972 l 793 972 l 676 689 z "},"ľ":{"ha":594,"x_min":74,"x_max":614,"o":"m 258 -18 q 123 28 172 -18 q 74 174 74 75 l 74 972 l 269 972 l 269 225 q 332 156 269 156 q 382 168 361 156 l 382 7 q 258 -18 332 -18 m 497 689 l 351 689 l 433 972 l 614 972 l 497 689 z "},"Ŀ":{"ha":838,"x_min":107,"x_max":800,"o":"m 679 414 q 593 449 628 414 q 558 536 558 485 q 593 621 558 586 q 679 656 628 656 q 765 621 729 656 q 800 536 800 586 q 765 449 800 485 q 679 414 729 414 m 800 0 l 107 0 l 107 972 l 307 972 l 307 179 l 800 179 l 800 0 z "},"ŀ":{"ha":661,"x_min":86,"x_max":608,"o":"m 271 -18 q 135 28 185 -18 q 86 174 86 75 l 86 972 l 282 972 l 282 225 q 344 156 282 156 q 394 168 374 156 l 394 7 q 271 -18 344 -18 m 488 414 q 401 449 436 414 q 367 536 367 485 q 401 621 367 586 q 488 656 436 656 q 573 621 538 656 q 608 536 608 586 q 573 449 608 485 q 488 414 538 414 z "},"Ł":{"ha":881,"x_min":15,"x_max":843,"o":"m 150 388 l 15 301 l 15 474 l 150 560 l 150 972 l 350 972 l 350 689 l 553 821 l 553 649 l 350 517 l 350 179 l 843 179 l 843 0 l 150 0 l 150 388 z "},"ł":{"ha":546,"x_min":22,"x_max":503,"o":"m 164 369 l 22 278 l 22 450 l 164 542 l 164 972 l 360 972 l 360 668 l 503 761 l 503 589 l 360 496 l 360 225 q 422 156 360 156 q 472 168 451 156 l 472 7 q 349 -18 422 -18 q 213 28 263 -18 q 164 174 164 75 l 164 369 z "},"Ń":{"ha":1071,"x_min":107,"x_max":963,"o":"m 303 0 l 107 0 l 107 972 l 278 972 l 768 350 l 768 972 l 963 972 l 963 0 l 797 0 l 303 625 l 303 0 m 610 1057 l 440 1057 l 572 1260 l 808 1260 l 610 1057 z "},"ń":{"ha":858,"x_min":96,"x_max":776,"o":"m 292 442 l 292 0 l 96 0 l 96 693 l 292 693 l 292 610 q 524 711 385 711 q 710 635 643 711 q 776 425 776 560 l 776 0 l 581 0 l 581 385 q 544 496 581 460 q 449 532 507 532 q 360 506 404 532 q 292 442 317 481 m 479 792 l 310 792 l 442 994 l 678 994 l 479 792 z "},"Ņ":{"ha":1071,"x_min":107,"x_max":963,"o":"m 303 0 l 107 0 l 107 972 l 278 972 l 768 350 l 768 972 l 963 972 l 963 0 l 797 0 l 303 625 l 303 0 m 557 -375 l 411 -375 l 493 -92 l 674 -92 l 557 -375 z "},"ņ":{"ha":858,"x_min":96,"x_max":776,"o":"m 292 442 l 292 0 l 96 0 l 96 693 l 292 693 l 292 610 q 524 711 385 711 q 710 635 643 711 q 776 425 776 560 l 776 0 l 581 0 l 581 385 q 544 496 581 460 q 449 532 507 532 q 360 506 404 532 q 292 442 317 481 m 422 -375 l 276 -375 l 358 -92 l 539 -92 l 422 -375 z "},"Ň":{"ha":1071,"x_min":107,"x_max":963,"o":"m 303 0 l 107 0 l 107 972 l 278 972 l 768 350 l 768 972 l 963 972 l 963 0 l 797 0 l 303 625 l 303 0 m 628 1260 l 797 1260 l 628 1057 l 439 1057 l 274 1260 l 444 1260 l 538 1151 l 628 1260 z "},"ň":{"ha":858,"x_min":96,"x_max":776,"o":"m 292 442 l 292 0 l 96 0 l 96 693 l 292 693 l 292 610 q 524 711 385 711 q 710 635 643 711 q 776 425 776 560 l 776 0 l 581 0 l 581 385 q 544 496 581 460 q 449 532 507 532 q 360 506 404 532 q 292 442 317 481 m 529 994 l 699 994 l 529 792 l 340 792 l 174 994 l 346 994 l 438 886 l 529 994 z "},"ŉ":{"ha":1054,"x_min":19,"x_max":972,"o":"m 488 442 l 488 0 l 292 0 l 292 693 l 488 693 l 488 610 q 719 711 581 711 q 906 635 839 711 q 972 425 972 560 l 972 0 l 776 0 l 776 385 q 740 496 776 460 q 644 532 703 532 q 556 506 600 532 q 488 442 513 481 m 165 689 l 19 689 l 101 972 l 282 972 l 165 689 z "},"Ŋ":{"ha":1071,"x_min":107,"x_max":963,"o":"m 303 0 l 107 0 l 107 972 l 278 972 l 768 350 l 768 972 l 963 972 l 963 -3 q 892 -212 963 -137 q 694 -286 821 -286 q 528 -254 589 -286 l 528 -81 q 644 -111 579 -111 q 765 14 765 -111 l 765 40 l 303 625 l 303 0 z "},"ŋ":{"ha":858,"x_min":96,"x_max":776,"o":"m 525 -286 q 371 -256 422 -286 l 371 -89 q 475 -115 419 -115 q 581 -6 581 -115 l 581 385 q 544 496 581 460 q 449 532 507 532 q 360 506 404 532 q 292 442 317 481 l 292 0 l 96 0 l 96 693 l 292 693 l 292 610 q 524 711 385 711 q 710 635 643 711 q 776 425 776 560 l 776 -25 q 709 -217 776 -149 q 525 -286 642 -286 z "},"Ō":{"ha":1156,"x_min":74,"x_max":1082,"o":"m 363 258 q 578 168 449 168 q 792 258 706 168 q 878 486 878 349 q 792 714 878 624 q 578 804 706 804 q 363 714 449 804 q 278 486 278 625 q 363 258 278 347 m 74 486 q 217 844 74 700 q 578 992 360 992 q 938 844 794 992 q 1082 486 1082 697 q 938 128 1082 276 q 578 -19 794 -19 q 217 128 360 -19 q 74 486 74 275 m 790 1090 l 365 1090 l 365 1222 l 790 1222 l 790 1090 z "},"ō":{"ha":868,"x_min":50,"x_max":819,"o":"m 243 347 q 243 306 243 347 q 297 208 243 264 q 435 153 351 153 q 572 208 518 153 q 626 347 626 265 q 572 485 626 431 q 435 540 518 540 q 297 485 351 540 q 243 347 243 431 m 50 347 q 158 606 50 501 q 435 711 265 711 q 711 606 604 711 q 819 347 819 500 q 711 86 819 192 q 435 -18 603 -18 q 158 86 267 -18 q 50 347 50 192 m 649 826 l 222 826 l 222 958 l 649 958 l 649 826 z "},"Ŏ":{"ha":1156,"x_min":74,"x_max":1082,"o":"m 363 258 q 578 168 449 168 q 792 258 706 168 q 878 486 878 349 q 792 714 878 624 q 578 804 706 804 q 363 714 449 804 q 278 486 278 625 q 363 258 278 347 m 74 486 q 217 844 74 700 q 578 992 360 992 q 938 844 794 992 q 1082 486 1082 697 q 938 128 1082 276 q 578 -19 794 -19 q 217 128 360 -19 q 74 486 74 275 m 349 1279 l 481 1279 q 510 1206 483 1233 q 578 1178 536 1178 q 646 1206 619 1178 q 675 1279 672 1233 l 807 1279 q 738 1114 804 1175 q 578 1053 672 1053 q 417 1114 485 1053 q 349 1279 350 1175 z "},"ŏ":{"ha":868,"x_min":50,"x_max":819,"o":"m 243 347 q 243 306 243 347 q 297 208 243 264 q 435 153 351 153 q 572 208 518 153 q 626 347 626 265 q 572 485 626 431 q 435 540 518 540 q 297 485 351 540 q 243 347 243 431 m 50 347 q 158 606 50 501 q 435 711 265 711 q 711 606 604 711 q 819 347 819 500 q 711 86 819 192 q 435 -18 603 -18 q 158 86 267 -18 q 50 347 50 192 m 435 789 q 273 851 338 789 q 204 1014 208 913 l 338 1014 q 367 940 340 968 q 435 913 393 913 q 502 940 476 913 q 531 1014 528 968 l 663 1014 q 594 850 660 911 q 435 789 529 789 z "},"Ő":{"ha":1156,"x_min":74,"x_max":1082,"o":"m 363 258 q 578 168 449 168 q 792 258 706 168 q 878 486 878 349 q 792 714 878 624 q 578 804 706 804 q 363 714 449 804 q 278 486 278 625 q 363 258 278 347 m 74 486 q 217 844 74 700 q 578 992 360 992 q 938 844 794 992 q 1082 486 1082 697 q 938 128 1082 276 q 578 -19 794 -19 q 217 128 360 -19 q 74 486 74 275 m 833 1057 l 663 1057 l 794 1260 l 1033 1260 l 833 1057 m 517 1057 l 346 1057 l 478 1260 l 717 1260 l 517 1057 z "},"ő":{"ha":868,"x_min":50,"x_max":872,"o":"m 243 347 q 243 306 243 347 q 297 208 243 264 q 435 153 351 153 q 572 208 518 153 q 626 347 626 265 q 572 485 626 431 q 435 540 518 540 q 297 485 351 540 q 243 347 243 431 m 50 347 q 158 606 50 501 q 435 711 265 711 q 711 606 604 711 q 819 347 819 500 q 711 86 819 192 q 435 -18 603 -18 q 158 86 267 -18 q 50 347 50 192 m 672 792 l 501 792 l 633 994 l 872 994 l 672 792 m 356 792 l 185 792 l 317 994 l 556 994 l 356 792 z "},"Œ":{"ha":1499,"x_min":74,"x_max":1446,"o":"m 1446 0 l 607 0 q 222 135 369 0 q 74 486 74 271 q 222 836 74 700 q 607 972 371 972 l 1431 972 l 1431 793 l 926 793 l 926 606 l 1331 606 l 1331 429 l 926 429 l 926 179 l 1446 179 l 1446 0 m 624 179 l 726 179 l 726 793 l 624 793 q 369 712 460 793 q 279 486 279 631 q 369 260 279 342 q 624 179 460 179 z "},"œ":{"ha":1360,"x_min":50,"x_max":1306,"o":"m 1306 344 l 1306 293 l 808 293 q 885 186 824 224 q 1040 149 947 149 q 1263 210 1156 149 l 1263 53 q 993 -18 1169 -18 q 714 94 819 -18 q 431 -18 603 -18 q 158 88 265 -18 q 50 347 50 194 q 158 606 50 501 q 435 711 265 711 q 714 594 603 711 q 971 711 817 711 q 1215 604 1125 711 q 1306 344 1306 497 m 243 347 q 243 306 243 347 q 297 208 243 264 q 435 153 351 153 q 572 208 518 153 q 626 347 626 265 q 572 486 626 431 q 435 542 518 542 q 297 486 351 542 q 243 347 243 431 m 808 418 l 1113 418 q 1070 517 1110 478 q 967 557 1031 557 q 858 519 901 557 q 808 418 815 481 z "},"Ŕ":{"ha":1014,"x_min":107,"x_max":990,"o":"m 307 0 l 107 0 l 107 972 l 557 972 q 801 892 713 972 q 892 685 892 813 q 838 516 892 588 q 690 415 785 444 l 990 0 l 758 0 l 475 393 l 307 393 l 307 0 m 307 797 l 307 561 l 546 561 q 652 592 614 561 q 690 679 690 622 q 652 766 690 735 q 546 797 614 797 l 307 797 m 489 1057 l 319 1057 l 451 1260 l 688 1260 l 489 1057 z "},"ŕ":{"ha":588,"x_min":96,"x_max":556,"o":"m 292 0 l 96 0 l 96 693 l 292 693 l 292 576 q 389 671 324 632 q 533 711 457 711 q 556 710 550 711 l 556 518 q 494 525 528 525 q 370 490 426 525 q 292 404 314 454 l 292 0 m 353 792 l 183 792 l 315 994 l 551 994 l 353 792 z "},"Ŗ":{"ha":1014,"x_min":107,"x_max":990,"o":"m 307 0 l 107 0 l 107 972 l 557 972 q 801 892 713 972 q 892 685 892 813 q 838 516 892 588 q 690 415 785 444 l 990 0 l 758 0 l 475 393 l 307 393 l 307 0 m 307 797 l 307 561 l 546 561 q 652 592 614 561 q 690 679 690 622 q 652 766 690 735 q 546 797 614 797 l 307 797 m 511 -375 l 365 -375 l 447 -92 l 628 -92 l 511 -375 z "},"ŗ":{"ha":588,"x_min":24,"x_max":556,"o":"m 292 0 l 96 0 l 96 693 l 292 693 l 292 576 q 389 671 324 632 q 533 711 457 711 q 556 710 550 711 l 556 518 q 494 525 528 525 q 370 490 426 525 q 292 404 314 454 l 292 0 m 169 -375 l 24 -375 l 106 -92 l 286 -92 l 169 -375 z "},"Ř":{"ha":1014,"x_min":107,"x_max":990,"o":"m 307 0 l 107 0 l 107 972 l 557 972 q 801 892 713 972 q 892 685 892 813 q 838 516 892 588 q 690 415 785 444 l 990 0 l 758 0 l 475 393 l 307 393 l 307 0 m 307 797 l 307 561 l 546 561 q 652 592 614 561 q 690 679 690 622 q 652 766 690 735 q 546 797 614 797 l 307 797 m 558 1260 l 728 1260 l 558 1057 l 369 1057 l 204 1260 l 375 1260 l 468 1151 l 558 1260 z "},"ř":{"ha":576,"x_min":40,"x_max":565,"o":"m 281 0 l 85 0 l 85 693 l 281 693 l 281 576 q 378 671 313 632 q 522 711 446 711 q 544 710 539 711 l 544 518 q 483 525 517 525 q 359 490 415 525 q 281 404 303 454 l 281 0 m 396 994 l 565 994 l 396 792 l 207 792 l 40 994 l 213 994 l 304 886 l 396 994 z "},"Ś":{"ha":871,"x_min":60,"x_max":815,"o":"m 429 -19 q 60 85 210 -19 l 60 293 q 221 201 121 240 q 421 164 322 164 q 556 194 503 164 q 608 276 608 224 q 558 357 608 333 q 503 382 538 369 l 469 393 l 392 417 l 319 440 q 254 464 304 444 q 192 493 211 481 q 100 578 119 543 q 67 714 67 644 q 165 917 67 843 q 433 992 264 992 q 751 911 604 992 l 751 717 q 436 808 603 808 q 271 713 271 808 q 322 646 271 671 q 401 617 353 629 q 507 586 467 599 q 718 485 628 549 q 815 282 815 417 q 706 61 815 142 q 429 -19 596 -19 m 457 1057 l 288 1057 l 419 1260 l 656 1260 l 457 1057 z "},"ś":{"ha":711,"x_min":60,"x_max":661,"o":"m 351 -18 q 60 47 167 -18 l 60 221 q 187 165 110 188 q 343 142 264 142 q 463 200 463 142 q 428 243 463 228 q 392 256 410 251 l 340 268 q 310 276 329 271 q 285 283 292 281 q 110 363 161 317 q 60 499 60 410 q 141 654 60 597 q 365 711 222 711 q 625 647 524 711 l 625 481 q 374 553 501 553 q 263 497 263 553 q 269 477 263 486 q 281 464 275 468 q 301 451 288 460 q 332 442 310 449 q 361 433 354 436 l 435 418 q 606 340 550 392 q 661 199 661 288 q 576 42 661 101 q 351 -18 492 -18 m 389 792 l 219 792 l 351 994 l 588 994 l 389 792 z "},"Ŝ":{"ha":871,"x_min":60,"x_max":815,"o":"m 429 -19 q 60 85 210 -19 l 60 293 q 221 201 121 240 q 421 164 322 164 q 556 194 503 164 q 608 276 608 224 q 558 357 608 333 q 503 382 538 369 l 469 393 l 392 417 l 319 440 q 254 464 304 444 q 192 493 211 481 q 100 578 119 543 q 67 714 67 644 q 165 917 67 843 q 433 992 264 992 q 751 911 604 992 l 751 717 q 436 808 603 808 q 271 713 271 808 q 322 646 271 671 q 401 617 353 629 q 507 586 467 599 q 718 485 628 549 q 815 282 815 417 q 706 61 815 142 q 429 -19 596 -19 m 336 1058 l 167 1058 l 336 1260 l 525 1260 l 690 1058 l 519 1058 l 426 1165 l 336 1058 z "},"ŝ":{"ha":711,"x_min":60,"x_max":661,"o":"m 351 -18 q 60 47 167 -18 l 60 221 q 187 165 110 188 q 343 142 264 142 q 463 200 463 142 q 428 243 463 228 q 392 256 410 251 l 340 268 q 310 276 329 271 q 285 283 292 281 q 110 363 161 317 q 60 499 60 410 q 141 654 60 597 q 365 711 222 711 q 625 647 524 711 l 625 481 q 374 553 501 553 q 263 497 263 553 q 269 477 263 486 q 281 464 275 468 q 301 451 288 460 q 332 442 310 449 q 361 433 354 436 l 435 418 q 606 340 550 392 q 661 199 661 288 q 576 42 661 101 q 351 -18 492 -18 m 258 792 l 90 792 l 260 994 l 449 994 l 614 792 l 442 792 l 350 900 l 258 792 z "},"Ş":{"ha":871,"x_min":60,"x_max":815,"o":"m 453 -201 l 226 -201 l 365 -17 q 60 85 185 -3 l 60 293 q 221 201 121 240 q 421 164 322 164 q 556 194 503 164 q 608 276 608 224 q 558 357 608 333 q 503 382 538 369 l 469 393 l 392 417 l 319 440 q 254 464 304 444 q 192 493 211 481 q 100 578 119 543 q 67 714 67 644 q 165 917 67 843 q 433 992 264 992 q 751 911 604 992 l 751 717 q 436 808 603 808 q 271 713 271 808 q 322 646 271 671 q 401 617 353 629 q 507 586 467 599 q 718 485 628 549 q 815 282 815 417 q 740 92 815 168 q 535 -10 664 15 l 453 -201 z "},"ş":{"ha":711,"x_min":60,"x_max":661,"o":"m 365 -201 l 139 -201 l 278 -15 q 60 47 139 -3 l 60 221 q 187 165 110 188 q 343 142 264 142 q 463 200 463 142 q 428 243 463 228 q 392 256 410 251 l 340 268 q 310 276 329 271 q 285 283 292 281 q 110 363 161 317 q 60 499 60 410 q 141 654 60 597 q 365 711 222 711 q 625 647 524 711 l 625 481 q 374 553 501 553 q 263 497 263 553 q 269 477 263 486 q 281 464 275 468 q 301 451 288 460 q 332 442 310 449 q 361 433 354 436 l 435 418 q 606 340 550 392 q 661 199 661 288 q 604 64 661 119 q 447 -10 547 8 l 365 -201 z "},"Š":{"ha":871,"x_min":60,"x_max":815,"o":"m 429 -19 q 60 85 210 -19 l 60 293 q 221 201 121 240 q 421 164 322 164 q 556 194 503 164 q 608 276 608 224 q 558 357 608 333 q 503 382 538 369 l 469 393 l 392 417 l 319 440 q 254 464 304 444 q 192 493 211 481 q 100 578 119 543 q 67 714 67 644 q 165 917 67 843 q 433 992 264 992 q 751 911 604 992 l 751 717 q 436 808 603 808 q 271 713 271 808 q 322 646 271 671 q 401 617 353 629 q 507 586 467 599 q 718 485 628 549 q 815 282 815 417 q 706 61 815 142 q 429 -19 596 -19 m 517 1260 l 686 1260 l 517 1057 l 328 1057 l 163 1260 l 333 1260 l 426 1151 l 517 1260 z "},"š":{"ha":711,"x_min":60,"x_max":661,"o":"m 351 -18 q 60 47 167 -18 l 60 221 q 187 165 110 188 q 343 142 264 142 q 463 200 463 142 q 428 243 463 228 q 392 256 410 251 l 340 268 q 310 276 329 271 q 285 283 292 281 q 110 363 161 317 q 60 499 60 410 q 141 654 60 597 q 365 711 222 711 q 625 647 524 711 l 625 481 q 374 553 501 553 q 263 497 263 553 q 269 477 263 486 q 281 464 275 468 q 301 451 288 460 q 332 442 310 449 q 361 433 354 436 l 435 418 q 606 340 550 392 q 661 199 661 288 q 576 42 661 101 q 351 -18 492 -18 m 454 994 l 624 994 l 454 792 l 265 792 l 99 994 l 271 994 l 363 886 l 454 994 z "},"Ţ":{"ha":899,"x_min":42,"x_max":857,"o":"m 442 -201 l 215 -201 l 365 0 l 349 0 l 349 793 l 42 793 l 42 972 l 857 972 l 857 793 l 549 793 l 549 0 l 528 0 l 442 -201 z "},"ţ":{"ha":613,"x_min":25,"x_max":554,"o":"m 161 215 l 161 529 l 25 529 l 25 693 l 161 693 l 161 883 l 357 883 l 357 693 l 554 693 l 554 529 l 357 529 l 357 254 q 379 180 357 203 q 451 157 401 157 q 553 182 503 157 l 553 19 q 450 -12 514 -4 l 369 -201 l 143 -201 l 290 -3 q 161 215 161 42 z "},"Ť":{"ha":899,"x_min":42,"x_max":857,"o":"m 42 793 l 42 972 l 857 972 l 857 793 l 549 793 l 549 0 l 349 0 l 349 793 l 42 793 m 542 1260 l 711 1260 l 542 1057 l 353 1057 l 188 1260 l 358 1260 l 451 1151 l 542 1260 z "},"ť":{"ha":861,"x_min":35,"x_max":881,"o":"m 171 529 l 35 529 l 35 693 l 171 693 l 171 883 l 367 883 l 367 693 l 564 693 l 564 529 l 367 529 l 367 254 q 389 180 367 203 q 461 157 411 157 q 563 182 513 157 l 563 19 q 397 -18 503 -18 q 171 215 171 -18 l 171 529 m 764 689 l 618 689 l 700 972 l 881 972 l 764 689 z "},"Ŧ":{"ha":899,"x_min":42,"x_max":857,"o":"m 549 0 l 349 0 l 349 417 l 178 417 l 178 581 l 349 581 l 349 793 l 42 793 l 42 972 l 857 972 l 857 793 l 549 793 l 549 581 l 717 581 l 717 417 l 549 417 l 549 0 z "},"ŧ":{"ha":613,"x_min":25,"x_max":554,"o":"m 161 296 l 25 296 l 25 439 l 161 439 l 161 529 l 25 529 l 25 693 l 161 693 l 161 883 l 357 883 l 357 693 l 554 693 l 554 529 l 357 529 l 357 439 l 554 439 l 554 296 l 357 296 l 357 254 q 379 180 357 203 q 451 157 401 157 q 553 182 503 157 l 553 19 q 388 -18 492 -18 q 161 215 161 -18 l 161 296 z "},"Ũ":{"ha":1021,"x_min":94,"x_max":928,"o":"m 365 1063 l 258 1063 q 303 1201 260 1146 q 417 1257 347 1257 q 515 1226 460 1257 q 600 1196 571 1196 q 660 1253 647 1196 l 765 1253 q 721 1115 765 1176 q 608 1057 678 1057 q 508 1088 564 1057 q 424 1119 451 1119 q 365 1063 376 1119 m 510 -19 q 211 93 328 -19 q 94 408 94 206 l 94 972 l 293 972 l 293 401 q 352 228 293 289 q 510 168 411 168 q 669 228 610 168 q 728 401 728 289 l 728 972 l 928 972 l 928 408 q 810 93 928 206 q 510 -19 693 -19 z "},"ũ":{"ha":860,"x_min":83,"x_max":764,"o":"m 764 693 l 764 0 l 568 0 l 568 83 q 336 -18 475 -18 q 150 58 217 -18 q 83 268 83 133 l 83 693 l 279 693 l 279 308 q 316 197 279 233 q 411 161 353 161 q 499 187 456 161 q 568 251 543 213 l 568 693 l 764 693 m 278 800 l 172 800 q 215 938 172 882 q 329 994 260 994 q 428 964 372 994 q 514 933 485 933 q 572 990 561 933 l 679 990 q 633 853 678 914 q 522 794 589 794 q 422 825 478 794 q 338 857 365 857 q 278 800 290 857 z "},"Ū":{"ha":1021,"x_min":94,"x_max":928,"o":"m 510 -19 q 211 93 328 -19 q 94 408 94 206 l 94 972 l 293 972 l 293 401 q 352 228 293 289 q 510 168 411 168 q 669 228 610 168 q 728 401 728 289 l 728 972 l 928 972 l 928 408 q 810 93 928 206 q 510 -19 693 -19 m 724 1090 l 299 1090 l 299 1222 l 724 1222 l 724 1090 z "},"ū":{"ha":860,"x_min":83,"x_max":764,"o":"m 764 693 l 764 0 l 568 0 l 568 83 q 336 -18 475 -18 q 150 58 217 -18 q 83 268 83 133 l 83 693 l 279 693 l 279 308 q 316 197 279 233 q 411 161 353 161 q 499 187 456 161 q 568 251 543 213 l 568 693 l 764 693 m 638 826 l 211 826 l 211 958 l 638 958 l 638 826 z "},"Ŭ":{"ha":1021,"x_min":94,"x_max":928,"o":"m 510 -19 q 211 93 328 -19 q 94 408 94 206 l 94 972 l 293 972 l 293 401 q 352 228 293 289 q 510 168 411 168 q 669 228 610 168 q 728 401 728 289 l 728 972 l 928 972 l 928 408 q 810 93 928 206 q 510 -19 693 -19 m 282 1263 l 414 1263 q 443 1189 417 1217 q 511 1161 469 1161 q 579 1189 553 1161 q 608 1263 606 1217 l 740 1263 q 671 1097 738 1158 q 511 1036 606 1036 q 350 1097 418 1036 q 282 1263 283 1158 z "},"ŭ":{"ha":860,"x_min":83,"x_max":764,"o":"m 764 693 l 764 0 l 568 0 l 568 83 q 336 -18 475 -18 q 150 58 217 -18 q 83 268 83 133 l 83 693 l 279 693 l 279 308 q 316 197 279 233 q 411 161 353 161 q 499 187 456 161 q 568 251 543 213 l 568 693 l 764 693 m 425 779 q 263 841 328 779 q 194 1004 199 903 l 328 1004 q 357 931 331 958 q 425 903 383 903 q 492 931 467 903 q 521 1004 518 958 l 653 1004 q 585 840 650 901 q 425 779 519 779 z "},"Ů":{"ha":1021,"x_min":94,"x_max":928,"o":"m 657 1164 q 657 1134 657 1164 q 614 1061 657 1104 q 511 1018 571 1018 q 408 1061 451 1018 q 365 1164 365 1104 q 408 1267 365 1224 q 511 1310 451 1310 q 614 1267 571 1310 q 657 1164 657 1224 m 465 1118 q 511 1100 485 1100 q 556 1118 538 1100 q 575 1164 575 1138 q 556 1208 575 1190 q 511 1228 538 1228 q 465 1208 485 1228 q 447 1164 447 1190 q 465 1118 447 1138 m 510 -19 q 211 93 328 -19 q 94 408 94 206 l 94 972 l 293 972 l 293 401 q 352 228 293 289 q 510 168 411 168 q 669 228 610 168 q 728 401 728 289 l 728 972 l 928 972 l 928 408 q 810 93 928 206 q 510 -19 693 -19 z "},"ů":{"ha":860,"x_min":83,"x_max":764,"o":"m 764 693 l 764 0 l 568 0 l 568 83 q 336 -18 475 -18 q 150 58 217 -18 q 83 268 83 133 l 83 693 l 279 693 l 279 308 q 316 197 279 233 q 411 161 353 161 q 499 187 456 161 q 568 251 543 213 l 568 693 l 764 693 m 571 903 q 571 873 571 903 q 528 800 571 843 q 425 757 485 757 q 322 800 365 757 q 279 903 279 843 q 322 1006 279 963 q 425 1049 365 1049 q 528 1006 485 1049 q 571 903 571 963 m 379 857 q 425 839 399 839 q 469 857 451 839 q 489 903 489 876 q 469 947 489 929 q 425 967 451 967 q 379 947 399 967 q 361 903 361 929 q 379 857 361 876 z "},"Ű":{"ha":1021,"x_min":94,"x_max":928,"o":"m 510 -19 q 211 93 328 -19 q 94 408 94 206 l 94 972 l 293 972 l 293 401 q 352 228 293 289 q 510 168 411 168 q 669 228 610 168 q 728 401 728 289 l 728 972 l 928 972 l 928 408 q 810 93 928 206 q 510 -19 693 -19 m 728 1057 l 557 1057 l 689 1260 l 928 1260 l 728 1057 m 411 1057 l 240 1057 l 372 1260 l 611 1260 l 411 1057 z "},"ű":{"ha":849,"x_min":83,"x_max":856,"o":"m 764 693 l 764 0 l 568 0 l 568 83 q 336 -18 475 -18 q 150 58 217 -18 q 83 268 83 133 l 83 693 l 279 693 l 279 308 q 316 197 279 233 q 411 161 353 161 q 499 187 456 161 q 568 251 543 213 l 568 693 l 764 693 m 656 792 l 485 792 l 617 994 l 856 994 l 656 792 m 339 792 l 168 792 l 300 994 l 539 994 l 339 792 z "},"Ų":{"ha":1021,"x_min":94,"x_max":928,"o":"m 676 -161 q 726 -153 703 -161 l 726 -268 q 643 -281 693 -281 q 513 -240 561 -281 q 465 -136 465 -200 q 508 -19 465 -71 q 210 93 326 -17 q 94 408 94 206 l 94 972 l 293 972 l 293 401 q 352 228 293 289 q 510 168 411 168 q 669 228 610 168 q 728 401 728 289 l 728 972 l 928 972 l 928 408 q 870 170 928 264 q 696 17 813 76 q 601 -97 601 -32 q 622 -144 601 -128 q 676 -161 642 -161 z "},"ų":{"ha":860,"x_min":83,"x_max":840,"o":"m 757 -281 q 627 -240 675 -281 q 579 -137 579 -200 q 642 0 579 -62 l 568 0 l 568 83 q 336 -18 475 -18 q 150 58 217 -18 q 83 268 83 133 l 83 693 l 279 693 l 279 308 q 316 197 279 233 q 411 161 353 161 q 499 187 456 161 q 568 251 543 213 l 568 693 l 764 693 l 764 0 q 715 -97 715 -49 q 735 -145 715 -128 q 790 -162 756 -162 q 840 -153 822 -162 l 840 -269 q 757 -281 810 -281 z "},"Ŵ":{"ha":1493,"x_min":29,"x_max":1465,"o":"m 532 -6 l 356 -6 l 29 972 l 251 972 l 451 317 l 671 975 l 826 975 l 1047 317 l 1247 972 l 1465 972 l 1138 -6 l 961 -6 l 749 643 l 532 -6 m 656 1058 l 486 1058 l 656 1260 l 844 1260 l 1010 1058 l 839 1058 l 746 1165 l 656 1058 z "},"ŵ":{"ha":1174,"x_min":26,"x_max":1122,"o":"m 428 -6 l 261 -6 l 26 693 l 222 693 l 360 281 l 496 696 l 653 696 l 793 281 l 928 693 l 1122 693 l 885 -6 l 715 -6 l 571 413 l 428 -6 m 479 792 l 311 792 l 481 994 l 669 994 l 835 792 l 663 792 l 571 900 l 479 792 z "},"Ŷ":{"ha":967,"x_min":8,"x_max":958,"o":"m 583 0 l 385 0 l 385 436 l 8 972 l 244 972 l 486 626 l 729 972 l 958 972 l 583 440 l 583 0 m 392 1058 l 222 1058 l 392 1260 l 581 1260 l 746 1058 l 575 1058 l 482 1165 l 392 1058 z "},"ŷ":{"ha":804,"x_min":8,"x_max":783,"o":"m 186 -286 q 47 -258 100 -286 l 47 -87 q 153 -115 96 -115 q 241 -83 206 -115 q 307 24 276 -50 l 8 693 l 219 693 l 403 238 l 576 693 l 783 693 l 463 -72 q 186 -286 371 -286 m 304 792 l 136 792 l 306 994 l 494 994 l 660 792 l 488 792 l 396 900 l 304 792 z "},"Ÿ":{"ha":967,"x_min":8,"x_max":958,"o":"m 583 0 l 385 0 l 385 436 l 8 972 l 244 972 l 486 626 l 729 972 l 958 972 l 583 440 l 583 0 m 710 1085 q 638 1056 681 1056 q 564 1085 594 1056 q 535 1158 535 1115 q 564 1231 535 1201 q 638 1260 594 1260 q 710 1231 681 1260 q 739 1158 739 1201 q 710 1085 739 1115 m 332 1056 q 260 1085 290 1056 q 229 1158 229 1115 q 260 1230 229 1200 q 332 1260 290 1260 q 405 1231 375 1260 q 435 1158 435 1201 q 405 1085 435 1115 q 332 1056 375 1056 z "},"Ź":{"ha":890,"x_min":46,"x_max":844,"o":"m 844 0 l 46 0 l 46 142 l 551 793 l 69 793 l 69 972 l 822 972 l 822 832 l 318 179 l 844 179 l 844 0 m 492 1057 l 322 1057 l 454 1260 l 690 1260 l 492 1057 z "},"ź":{"ha":731,"x_min":44,"x_max":685,"o":"m 685 0 l 44 0 l 44 129 l 394 529 l 67 529 l 67 693 l 663 693 l 663 560 l 311 164 l 685 164 l 685 0 m 396 792 l 226 792 l 358 994 l 594 994 l 396 792 z "},"Ż":{"ha":890,"x_min":46,"x_max":844,"o":"m 844 0 l 46 0 l 46 142 l 551 793 l 69 793 l 69 972 l 822 972 l 822 832 l 318 179 l 844 179 l 844 0 m 444 1056 q 372 1085 403 1056 q 342 1158 342 1115 q 372 1230 342 1200 q 444 1260 403 1260 q 517 1230 488 1260 q 547 1158 547 1200 q 517 1085 547 1115 q 444 1056 488 1056 z "},"ż":{"ha":731,"x_min":44,"x_max":685,"o":"m 685 0 l 44 0 l 44 129 l 394 529 l 67 529 l 67 693 l 663 693 l 663 560 l 311 164 l 685 164 l 685 0 m 365 790 q 293 820 324 790 q 263 893 263 850 q 293 965 263 935 q 365 994 324 994 q 438 965 408 994 q 467 893 467 936 q 438 820 467 850 q 365 790 408 790 z "},"Ž":{"ha":890,"x_min":46,"x_max":844,"o":"m 844 0 l 46 0 l 46 142 l 551 793 l 69 793 l 69 972 l 822 972 l 822 832 l 318 179 l 844 179 l 844 0 m 538 1260 l 707 1260 l 538 1057 l 349 1057 l 183 1260 l 354 1260 l 447 1151 l 538 1260 z "},"ž":{"ha":731,"x_min":44,"x_max":685,"o":"m 685 0 l 44 0 l 44 129 l 394 529 l 67 529 l 67 693 l 663 693 l 663 560 l 311 164 l 685 164 l 685 0 m 457 994 l 626 994 l 457 792 l 268 792 l 101 994 l 274 994 l 365 886 l 457 994 z "},"ſ":{"ha":569,"x_min":25,"x_max":560,"o":"m 344 732 l 344 0 l 149 0 l 149 529 l 25 529 l 25 693 l 149 693 l 149 758 q 210 926 149 864 q 383 989 271 989 q 560 960 485 989 l 560 801 q 440 825 497 825 q 344 732 344 825 z "},"ƒ":{"ha":700,"x_min":-103,"x_max":706,"o":"m 569 989 q 706 963 653 989 l 706 801 q 611 819 660 819 q 451 658 479 819 l 440 593 l 625 593 l 625 429 l 414 429 l 346 1 q 246 -208 325 -131 q 33 -286 167 -286 q -103 -260 -50 -286 l -103 -99 q -8 -117 -57 -117 q 151 44 124 -117 l 213 429 l 68 429 l 68 593 l 239 593 l 257 701 q 357 911 278 833 q 569 989 436 989 z "},"Ș":{"ha":871,"x_min":60,"x_max":815,"o":"m 429 -19 q 60 85 210 -19 l 60 293 q 221 201 121 240 q 421 164 322 164 q 556 194 503 164 q 608 276 608 224 q 558 357 608 333 q 503 382 538 369 l 469 393 l 392 417 l 319 440 q 254 464 304 444 q 192 493 211 481 q 100 578 119 543 q 67 714 67 644 q 165 917 67 843 q 433 992 264 992 q 751 911 604 992 l 751 717 q 436 808 603 808 q 271 713 271 808 q 322 646 271 671 q 401 617 353 629 q 507 586 467 599 q 718 485 628 549 q 815 282 815 417 q 706 61 815 142 q 429 -19 596 -19 m 426 -375 l 281 -375 l 363 -92 l 543 -92 l 426 -375 z "},"ș":{"ha":711,"x_min":60,"x_max":661,"o":"m 351 -18 q 60 47 167 -18 l 60 221 q 187 165 110 188 q 343 142 264 142 q 463 200 463 142 q 428 243 463 228 q 392 256 410 251 l 340 268 q 310 276 329 271 q 285 283 292 281 q 110 363 161 317 q 60 499 60 410 q 141 654 60 597 q 365 711 222 711 q 625 647 524 711 l 625 481 q 374 553 501 553 q 263 497 263 553 q 269 477 263 486 q 281 464 275 468 q 301 451 288 460 q 332 442 310 449 q 361 433 354 436 l 435 418 q 606 340 550 392 q 661 199 661 288 q 576 42 661 101 q 351 -18 492 -18 m 364 -375 l 218 -375 l 300 -92 l 481 -92 l 364 -375 z "},"Ț":{"ha":899,"x_min":42,"x_max":857,"o":"m 42 793 l 42 972 l 857 972 l 857 793 l 549 793 l 549 0 l 349 0 l 349 793 l 42 793 m 424 -375 l 278 -375 l 360 -92 l 540 -92 l 424 -375 z "},"ț":{"ha":613,"x_min":25,"x_max":554,"o":"m 161 215 l 161 529 l 25 529 l 25 693 l 161 693 l 161 883 l 357 883 l 357 693 l 554 693 l 554 529 l 357 529 l 357 254 q 379 180 357 203 q 451 157 401 157 q 553 182 503 157 l 553 19 q 388 -18 492 -18 q 161 215 161 -18 m 356 -375 l 210 -375 l 292 -92 l 472 -92 l 356 -375 z "},"ˆ":{"ha":750,"x_min":115,"x_max":639,"o":"m 283 792 l 115 792 l 285 994 l 474 994 l 639 792 l 467 792 l 375 900 l 283 792 z "},"ˇ":{"ha":714,"x_min":60,"x_max":585,"o":"m 415 994 l 585 994 l 415 792 l 226 792 l 60 994 l 232 994 l 324 886 l 415 994 z "},"ˉ":{"ha":699,"x_min":118,"x_max":581,"o":"m 581 828 l 118 828 l 118 958 l 581 958 l 581 828 z "},"˘":{"ha":667,"x_min":101,"x_max":560,"o":"m 332 779 q 170 841 235 779 q 101 1004 106 903 l 235 1004 q 264 931 238 958 q 332 903 290 903 q 399 931 374 903 q 428 1004 425 958 l 560 1004 q 492 840 557 901 q 332 779 426 779 z "},"˙":{"ha":789,"x_min":293,"x_max":497,"o":"m 396 790 q 324 820 354 790 q 293 893 293 850 q 324 965 293 935 q 396 994 354 994 q 468 965 439 994 q 497 893 497 936 q 468 820 497 850 q 396 790 439 790 z "},"˚":{"ha":771,"x_min":219,"x_max":511,"o":"m 511 903 q 511 873 511 903 q 468 800 511 843 q 365 757 425 757 q 263 800 306 757 q 219 903 219 843 q 263 1006 219 963 q 365 1049 306 1049 q 468 1006 425 1049 q 511 903 511 963 m 319 857 q 365 839 339 839 q 410 857 392 839 q 429 903 429 876 q 410 947 429 929 q 365 967 392 967 q 319 947 339 967 q 301 903 301 929 q 319 857 301 876 z "},"˛":{"ha":689,"x_min":242,"x_max":503,"o":"m 419 -278 q 290 -237 338 -278 q 242 -135 242 -197 q 304 3 242 -60 l 426 3 q 378 -94 378 -46 q 398 -142 378 -125 q 453 -160 418 -160 q 503 -150 485 -160 l 503 -267 q 419 -278 472 -278 z "},"˜":{"ha":707,"x_min":97,"x_max":604,"o":"m 203 800 l 97 800 q 140 938 97 882 q 254 994 185 994 q 353 964 297 994 q 439 933 410 933 q 497 990 486 933 l 604 990 q 558 853 603 914 q 447 794 514 794 q 347 825 403 794 q 263 857 290 857 q 203 800 215 857 z "},"˝":{"ha":868,"x_min":93,"x_max":781,"o":"m 581 792 l 410 792 l 542 994 l 781 994 l 581 792 m 264 792 l 93 792 l 225 994 l 464 994 l 264 792 z "},"́":{"ha":17,"x_min":-499,"x_max":-131,"o":"m -329 792 l -499 792 l -367 994 l -131 994 l -329 792 z "},";":{"ha":396,"x_min":8,"x_max":344,"o":"m 169 -211 l 8 -211 l 128 210 l 338 210 l 169 -211 m 224 443 q 138 478 172 443 q 103 565 103 514 q 138 650 103 615 q 224 685 172 685 q 309 650 274 685 q 344 565 344 615 q 309 478 344 514 q 224 443 274 443 z "},"Δ":{"ha":1069,"x_min":22,"x_max":1047,"o":"m 1047 0 l 22 0 l 439 972 l 631 972 l 1047 0 m 533 724 l 303 176 l 764 176 l 533 724 z "},"Ω":{"ha":1100,"x_min":99,"x_max":1001,"o":"m 1001 531 q 963 333 1001 429 q 864 179 925 238 l 1000 179 l 1000 0 l 631 0 l 631 151 q 751 296 704 204 q 797 496 797 388 q 729 717 797 631 q 550 804 661 804 q 371 717 439 804 q 303 496 303 631 q 349 296 303 388 q 469 151 396 204 l 469 0 l 100 0 l 100 179 l 236 179 q 137 333 175 238 q 99 531 99 429 q 222 856 99 719 q 550 992 346 992 q 878 856 754 992 q 1001 531 1001 719 z "},"μ":{"ha":872,"x_min":96,"x_max":776,"o":"m 581 251 l 581 693 l 776 693 l 776 0 l 581 0 l 581 83 q 349 -18 488 -18 q 292 -12 313 -18 l 292 -278 l 96 -278 l 96 693 l 292 693 l 292 308 q 328 197 292 233 q 424 161 365 161 q 512 187 468 161 q 581 251 556 213 z "},"π":{"ha":972,"x_min":36,"x_max":913,"o":"m 779 -15 q 639 40 692 -15 q 586 199 586 94 l 586 529 l 367 529 l 367 0 l 171 0 l 171 529 l 36 529 l 36 693 l 913 693 l 913 529 l 775 529 l 775 256 q 791 182 775 204 q 844 160 807 160 q 913 181 886 160 l 913 19 q 779 -15 865 -15 z "},"Ё":{"ha":889,"x_min":107,"x_max":836,"o":"m 836 0 l 107 0 l 107 972 l 821 972 l 821 793 l 307 793 l 307 606 l 721 606 l 721 429 l 307 429 l 307 179 l 836 179 l 836 0 m 696 1085 q 624 1056 667 1056 q 550 1085 581 1056 q 521 1158 521 1115 q 550 1231 521 1201 q 624 1260 581 1260 q 696 1231 667 1260 q 725 1158 725 1201 q 696 1085 725 1115 m 318 1056 q 246 1085 276 1056 q 215 1158 215 1115 q 246 1230 215 1200 q 318 1260 276 1260 q 391 1231 361 1260 q 421 1158 421 1201 q 391 1085 421 1115 q 318 1056 361 1056 z "},"Ђ":{"ha":1082,"x_min":42,"x_max":1038,"o":"m 717 -11 q 599 4 647 -11 l 599 167 q 688 151 640 151 q 798 188 756 151 q 840 282 840 224 q 790 383 840 344 q 653 422 739 422 q 458 382 546 422 l 458 0 l 260 0 l 260 793 l 42 793 l 42 972 l 767 972 l 767 793 l 458 793 l 458 569 q 678 607 558 607 q 939 518 842 607 q 1038 288 1038 428 q 950 74 1038 158 q 717 -11 865 -11 z "},"Ѓ":{"ha":857,"x_min":107,"x_max":808,"o":"m 307 0 l 107 0 l 107 972 l 808 972 l 808 793 l 307 793 l 307 0 m 500 1057 l 331 1057 l 463 1260 l 699 1260 l 500 1057 z "},"Є":{"ha":933,"x_min":79,"x_max":875,"o":"m 603 -19 q 231 128 382 -19 q 79 486 79 275 q 229 844 79 699 q 600 992 378 992 q 857 929 740 992 l 857 733 q 597 807 742 807 q 411 744 493 807 q 306 585 331 685 l 675 585 l 675 417 l 296 417 q 403 235 317 306 q 601 165 489 165 q 875 249 771 165 l 875 50 q 603 -19 757 -19 z "},"Ѕ":{"ha":874,"x_min":63,"x_max":818,"o":"m 432 -19 q 63 85 213 -19 l 63 293 q 224 201 124 240 q 424 164 325 164 q 558 194 506 164 q 611 276 611 224 q 561 357 611 333 q 506 382 540 369 l 472 393 l 394 417 l 322 440 q 257 464 307 444 q 194 493 214 481 q 103 578 122 543 q 69 714 69 644 q 168 917 69 843 q 436 992 267 992 q 754 911 607 992 l 754 717 q 439 808 607 808 q 274 713 274 808 q 325 646 274 671 q 404 617 356 629 q 510 586 471 599 q 721 485 631 549 q 818 282 818 417 q 708 61 818 142 q 432 -19 599 -19 z "},"І":{"ha":426,"x_min":114,"x_max":313,"o":"m 313 0 l 114 0 l 114 972 l 313 972 l 313 0 z "},"Ї":{"ha":426,"x_min":-42,"x_max":468,"o":"m 313 0 l 114 0 l 114 972 l 313 972 l 313 0 m 439 1085 q 367 1056 410 1056 q 293 1085 324 1056 q 264 1158 264 1115 q 293 1231 264 1201 q 367 1260 324 1260 q 439 1231 410 1260 q 468 1158 468 1201 q 439 1085 468 1115 m 61 1056 q -11 1085 19 1056 q -42 1158 -42 1115 q -11 1230 -42 1200 q 61 1260 19 1260 q 134 1231 104 1260 q 164 1158 164 1201 q 134 1085 164 1115 q 61 1056 104 1056 z "},"Ј":{"ha":708,"x_min":39,"x_max":614,"o":"m 272 -19 q 39 38 121 -19 l 39 235 q 231 168 122 168 q 370 212 325 168 q 415 353 415 256 l 415 972 l 614 972 l 614 319 q 587 158 614 226 q 511 53 560 90 q 403 -2 463 15 q 272 -19 344 -19 z "},"Љ":{"ha":1531,"x_min":10,"x_max":1486,"o":"m 703 793 l 415 793 l 410 596 q 332 125 399 253 q 92 -4 264 -4 q 10 8 39 -4 l 10 189 q 81 178 40 178 q 186 285 158 178 q 218 688 214 394 l 222 972 l 901 972 l 901 651 l 1110 651 q 1385 560 1283 651 q 1486 325 1486 471 q 1385 90 1486 179 q 1110 0 1282 0 l 703 0 l 703 793 m 901 485 l 901 174 l 1097 174 q 1235 215 1185 174 q 1285 328 1285 256 q 1235 443 1285 401 q 1097 485 1185 485 l 901 485 z "},"Њ":{"ha":1560,"x_min":107,"x_max":1515,"o":"m 1139 0 l 732 0 l 732 451 l 307 451 l 307 0 l 107 0 l 107 972 l 307 972 l 307 628 l 732 628 l 732 972 l 931 972 l 931 651 l 1139 651 q 1414 560 1311 651 q 1515 325 1515 471 q 1414 90 1515 179 q 1139 0 1311 0 m 931 485 l 931 174 l 1126 174 q 1264 215 1214 174 q 1314 328 1314 256 q 1264 443 1314 401 q 1126 485 1214 485 l 931 485 z "},"Ћ":{"ha":1113,"x_min":42,"x_max":1036,"o":"m 458 381 l 458 0 l 260 0 l 260 793 l 42 793 l 42 972 l 767 972 l 767 793 l 458 793 l 458 571 q 678 607 560 607 q 943 526 850 607 q 1036 289 1036 444 l 1036 0 l 838 0 l 838 256 q 792 383 838 344 q 651 422 746 422 q 458 381 544 422 z "},"Ќ":{"ha":981,"x_min":107,"x_max":981,"o":"m 307 0 l 107 0 l 107 972 l 307 972 l 307 589 l 665 972 l 910 972 l 497 526 l 981 0 l 725 0 l 307 449 l 307 0 m 538 1057 l 368 1057 l 500 1260 l 736 1260 l 538 1057 z "},"Ў":{"ha":921,"x_min":15,"x_max":910,"o":"m 246 -19 q 99 8 146 -19 l 99 185 q 211 158 146 158 q 308 186 272 158 q 383 293 343 213 l 15 972 l 236 972 l 482 494 l 697 972 l 910 972 l 551 211 q 246 -19 443 -19 m 206 1263 l 353 1263 q 381 1189 353 1217 q 458 1161 410 1161 q 536 1189 507 1161 q 567 1263 565 1217 l 714 1263 q 642 1090 713 1154 q 460 1025 571 1025 q 278 1090 349 1025 q 206 1263 207 1154 z "},"Џ":{"ha":1022,"x_min":107,"x_max":914,"o":"m 604 -199 l 415 -199 l 415 0 l 107 0 l 107 972 l 307 972 l 307 179 l 714 179 l 714 972 l 914 972 l 914 0 l 604 0 l 604 -199 z "},"А":{"ha":1069,"x_min":22,"x_max":1047,"o":"m 232 0 l 22 0 l 439 978 l 631 978 l 1047 0 l 835 0 l 739 225 l 328 225 l 232 0 m 533 728 l 390 390 l 675 390 l 533 728 z "},"Б":{"ha":954,"x_min":107,"x_max":894,"o":"m 526 0 l 107 0 l 107 972 l 813 972 l 813 793 l 307 793 l 307 638 l 526 638 q 794 549 697 638 q 894 318 894 458 q 796 88 894 178 q 526 0 697 0 m 307 471 l 307 176 l 511 176 q 646 214 599 176 q 693 322 693 251 q 645 432 693 393 q 511 471 597 471 l 307 471 z "},"В":{"ha":994,"x_min":107,"x_max":933,"o":"m 596 0 l 107 0 l 107 972 l 564 972 q 778 908 699 972 q 858 729 858 844 q 824 608 858 658 q 736 536 789 558 q 875 450 815 519 q 933 276 933 382 q 842 76 933 153 q 596 0 751 0 m 307 426 l 307 172 l 558 172 q 675 205 633 172 q 717 299 717 238 q 675 393 717 360 q 558 426 633 426 l 307 426 m 307 806 l 307 592 l 532 592 q 630 619 594 592 q 665 697 665 647 q 630 777 665 749 q 532 806 594 806 l 307 806 z "},"Г":{"ha":857,"x_min":107,"x_max":808,"o":"m 307 0 l 107 0 l 107 972 l 808 972 l 808 793 l 307 793 l 307 0 z "},"Д":{"ha":1104,"x_min":25,"x_max":1065,"o":"m 213 -199 l 25 -199 l 25 179 l 121 179 q 218 429 186 279 q 249 818 249 574 l 249 972 l 932 972 l 932 179 l 1065 179 l 1065 -199 l 878 -199 l 878 0 l 213 0 l 213 -199 m 342 179 l 732 179 l 732 793 l 447 793 q 424 447 447 592 q 342 179 401 303 z "},"Е":{"ha":889,"x_min":107,"x_max":836,"o":"m 836 0 l 107 0 l 107 972 l 821 972 l 821 793 l 307 793 l 307 606 l 721 606 l 721 429 l 307 429 l 307 179 l 836 179 l 836 0 z "},"Ж":{"ha":1432,"x_min":8,"x_max":1424,"o":"m 268 0 l 8 0 l 419 504 l 50 972 l 296 972 l 615 563 l 615 972 l 815 972 l 815 563 l 1136 972 l 1382 972 l 1011 504 l 1424 0 l 1163 0 l 815 429 l 815 0 l 615 0 l 615 429 l 268 0 z "},"З":{"ha":874,"x_min":49,"x_max":813,"o":"m 400 -19 q 49 71 189 -19 l 49 265 q 201 194 113 221 q 372 167 290 167 q 545 204 483 167 q 607 308 607 242 q 552 398 607 367 q 400 429 497 429 l 278 429 l 278 597 l 424 597 q 581 704 581 597 q 532 780 581 753 q 399 807 483 807 q 88 735 231 807 l 88 919 q 408 992 222 992 q 676 915 578 992 q 778 715 778 839 q 740 595 778 646 q 646 521 701 544 q 767 433 721 493 q 813 288 813 372 q 701 68 813 158 q 400 -19 592 -19 z "},"И":{"ha":1058,"x_min":107,"x_max":950,"o":"m 275 0 l 107 0 l 107 972 l 307 972 l 307 339 l 778 972 l 950 972 l 950 0 l 751 0 l 751 638 l 275 0 z "},"Й":{"ha":1058,"x_min":107,"x_max":950,"o":"m 275 0 l 107 0 l 107 972 l 307 972 l 307 339 l 778 972 l 950 972 l 950 0 l 751 0 l 751 638 l 275 0 m 274 1263 l 421 1263 q 449 1189 421 1217 q 526 1161 478 1161 q 604 1189 575 1161 q 635 1263 633 1217 l 782 1263 q 710 1090 781 1154 q 528 1025 639 1025 q 346 1090 417 1025 q 274 1263 275 1154 z "},"К":{"ha":981,"x_min":107,"x_max":981,"o":"m 307 0 l 107 0 l 107 972 l 307 972 l 307 589 l 665 972 l 910 972 l 497 526 l 981 0 l 725 0 l 307 449 l 307 0 z "},"Л":{"ha":1017,"x_min":10,"x_max":908,"o":"m 10 8 l 10 189 q 81 178 40 178 q 186 285 158 178 q 218 688 214 394 l 222 972 l 908 972 l 908 0 l 710 0 l 710 793 l 415 793 l 410 596 q 332 125 399 253 q 92 -4 264 -4 q 10 8 39 -4 z "},"М":{"ha":1175,"x_min":107,"x_max":1067,"o":"m 307 0 l 107 0 l 107 972 l 306 972 l 588 569 l 869 972 l 1067 972 l 1067 0 l 869 0 l 869 665 l 646 353 l 535 353 l 307 665 l 307 0 z "},"Н":{"ha":1053,"x_min":107,"x_max":944,"o":"m 307 0 l 107 0 l 107 972 l 307 972 l 307 608 l 746 608 l 746 972 l 944 972 l 944 0 l 746 0 l 746 426 l 307 426 l 307 0 z "},"О":{"ha":1156,"x_min":74,"x_max":1082,"o":"m 363 258 q 578 168 449 168 q 792 258 706 168 q 878 486 878 349 q 792 714 878 624 q 578 804 706 804 q 363 714 449 804 q 278 486 278 625 q 363 258 278 347 m 74 486 q 217 844 74 700 q 578 992 360 992 q 938 844 794 992 q 1082 486 1082 697 q 938 128 1082 276 q 578 -19 794 -19 q 217 128 360 -19 q 74 486 74 275 z "},"П":{"ha":1029,"x_min":107,"x_max":921,"o":"m 307 0 l 107 0 l 107 972 l 921 972 l 921 0 l 722 0 l 722 793 l 307 793 l 307 0 z "},"Р":{"ha":915,"x_min":107,"x_max":871,"o":"m 307 0 l 107 0 l 107 972 l 532 972 q 779 890 689 972 q 871 679 871 810 q 779 467 871 547 q 532 385 689 385 l 307 385 l 307 0 m 307 797 l 307 556 l 518 556 q 631 587 590 556 q 671 676 671 618 q 631 766 671 735 q 518 797 590 797 l 307 797 z "},"С":{"ha":940,"x_min":74,"x_max":876,"o":"m 600 -19 q 224 122 374 -19 q 74 486 74 267 q 222 850 74 708 q 600 992 372 992 q 857 931 742 992 l 857 729 q 601 804 744 804 q 369 714 464 804 q 278 486 278 625 q 372 257 278 347 q 610 168 465 168 q 876 253 769 168 l 876 51 q 600 -19 758 -19 z "},"Т":{"ha":899,"x_min":42,"x_max":857,"o":"m 42 793 l 42 972 l 857 972 l 857 793 l 549 793 l 549 0 l 349 0 l 349 793 l 42 793 z "},"У":{"ha":921,"x_min":15,"x_max":910,"o":"m 246 -19 q 99 8 146 -19 l 99 185 q 211 158 146 158 q 308 186 272 158 q 383 293 343 213 l 15 972 l 236 972 l 482 494 l 697 972 l 910 972 l 551 211 q 246 -19 443 -19 z "},"Ф":{"ha":1288,"x_min":74,"x_max":1214,"o":"m 744 -37 l 543 -37 l 543 69 q 196 201 318 78 q 74 494 74 325 q 196 788 74 665 q 543 919 319 911 l 543 1008 l 744 1008 l 744 919 q 1092 788 968 911 q 1214 494 1214 665 q 1092 201 1214 325 q 744 69 969 78 l 744 -37 m 543 250 l 543 739 q 349 672 418 738 q 279 494 279 606 q 349 319 279 385 q 543 250 418 253 m 744 739 l 744 250 q 939 319 869 253 q 1008 494 1008 385 q 939 672 1008 606 q 744 739 869 738 z "},"Х":{"ha":1007,"x_min":8,"x_max":999,"o":"m 67 972 l 300 972 l 504 682 l 711 972 l 942 972 l 621 525 l 999 0 l 765 0 l 501 363 l 239 0 l 8 0 l 388 524 l 67 972 z "},"Ц":{"ha":1088,"x_min":107,"x_max":1049,"o":"m 1049 -199 l 860 -199 l 860 0 l 107 0 l 107 972 l 307 972 l 307 179 l 714 179 l 714 972 l 914 972 l 914 179 l 1049 179 l 1049 -199 z "},"Ч":{"ha":961,"x_min":75,"x_max":853,"o":"m 853 0 l 654 0 l 654 379 q 435 344 551 344 q 168 425 261 344 q 75 661 75 506 l 75 972 l 275 972 l 275 694 q 320 567 275 606 q 461 529 365 529 q 654 571 569 529 l 654 972 l 853 972 l 853 0 z "},"Ш":{"ha":1435,"x_min":107,"x_max":1326,"o":"m 1326 0 l 107 0 l 107 972 l 307 972 l 307 179 l 617 179 l 617 972 l 815 972 l 815 179 l 1126 179 l 1126 972 l 1326 972 l 1326 0 z "},"Щ":{"ha":1500,"x_min":107,"x_max":1461,"o":"m 1461 -199 l 1272 -199 l 1272 0 l 107 0 l 107 972 l 307 972 l 307 179 l 618 179 l 618 972 l 817 972 l 817 179 l 1128 179 l 1128 972 l 1326 972 l 1326 179 l 1461 179 l 1461 -199 z "},"Ъ":{"ha":1111,"x_min":28,"x_max":1067,"o":"m 690 0 l 276 0 l 276 793 l 28 793 l 28 972 l 476 972 l 476 651 l 690 651 q 965 560 864 651 q 1067 325 1067 471 q 965 90 1067 179 q 690 0 863 0 m 476 482 l 476 176 l 679 176 q 816 216 767 176 q 865 328 865 256 q 816 442 865 401 q 679 482 767 482 l 476 482 z "},"Ы":{"ha":1289,"x_min":107,"x_max":1181,"o":"m 1181 0 l 981 0 l 981 972 l 1181 972 l 1181 0 m 488 0 l 107 0 l 107 972 l 307 972 l 307 651 l 488 651 q 763 560 661 651 q 864 325 864 471 q 763 90 864 179 q 488 0 660 0 m 307 482 l 307 176 l 476 176 q 613 216 564 176 q 663 328 663 256 q 613 442 663 401 q 476 482 564 482 l 307 482 z "},"Ь":{"ha":942,"x_min":107,"x_max":897,"o":"m 521 0 l 107 0 l 107 972 l 307 972 l 307 651 l 521 651 q 796 560 694 651 q 897 325 897 471 q 796 90 897 179 q 521 0 693 0 m 307 482 l 307 176 l 510 176 q 647 216 597 176 q 696 328 696 256 q 647 442 696 401 q 510 482 597 482 l 307 482 z "},"Э":{"ha":933,"x_min":64,"x_max":860,"o":"m 336 -19 q 64 50 182 -19 l 64 249 q 338 165 168 165 q 536 235 450 165 q 643 417 622 306 l 264 417 l 264 585 l 633 585 q 528 744 608 685 q 342 807 447 807 q 82 733 197 807 l 82 929 q 339 992 199 992 q 710 844 561 992 q 860 486 860 699 q 708 128 860 275 q 336 -19 557 -19 z "},"Ю":{"ha":1458,"x_min":107,"x_max":1385,"o":"m 914 992 q 1250 844 1117 992 q 1385 486 1385 700 q 1250 126 1385 274 q 914 -19 1117 -19 q 607 97 732 -19 q 450 399 483 217 l 310 399 l 310 0 l 107 0 l 107 972 l 310 972 l 310 581 l 451 581 q 608 875 481 758 q 914 992 736 992 m 914 168 q 1107 254 1032 168 q 1182 486 1182 342 q 1107 717 1182 631 q 914 804 1032 804 q 722 717 797 804 q 647 486 647 631 q 722 256 647 343 q 914 168 797 168 z "},"Я":{"ha":1018,"x_min":24,"x_max":910,"o":"m 254 0 l 24 0 l 328 415 q 178 516 232 444 q 125 685 125 588 q 215 892 125 813 q 460 972 304 972 l 910 972 l 910 0 l 710 0 l 710 393 l 540 393 l 254 0 m 471 561 l 710 561 l 710 797 l 471 797 q 365 766 403 797 q 326 679 326 735 q 365 592 326 622 q 471 561 403 561 z "},"а":{"ha":836,"x_min":39,"x_max":796,"o":"m 756 151 q 796 160 781 151 l 796 17 q 690 -12 758 -12 q 533 76 572 -12 q 294 -18 442 -18 q 110 46 181 -18 q 39 214 39 110 q 119 383 39 325 q 313 442 200 442 q 513 399 431 442 l 513 419 q 329 550 513 550 q 119 492 217 550 l 119 656 q 376 711 225 711 q 615 639 526 711 q 707 439 707 567 l 707 204 q 756 151 707 151 m 513 204 l 513 274 q 368 314 451 314 q 269 290 306 314 q 232 224 232 267 q 265 156 232 179 q 356 133 299 133 q 513 204 458 133 z "},"б":{"ha":846,"x_min":54,"x_max":797,"o":"m 490 649 q 711 564 626 649 q 797 339 797 478 q 693 82 797 182 q 435 -18 592 -18 q 153 104 250 -18 q 54 433 54 228 q 93 669 54 574 q 218 826 132 764 q 421 929 307 892 q 717 997 533 968 l 717 815 l 643 803 l 571 790 q 506 776 542 785 q 388 742 451 765 q 297 683 343 725 q 232 531 240 633 q 490 649 325 649 m 433 147 q 556 197 508 147 q 604 325 604 247 q 558 442 604 399 q 440 486 513 486 q 329 456 383 486 q 246 381 275 426 q 297 208 247 268 q 433 147 346 147 z "},"в":{"ha":813,"x_min":96,"x_max":757,"o":"m 504 0 l 96 0 l 96 693 l 488 693 q 651 644 593 693 q 710 515 710 594 q 625 368 710 411 q 757 190 757 322 q 690 51 757 101 q 504 0 624 0 m 289 293 l 289 138 l 456 138 q 557 215 557 138 q 456 293 557 293 l 289 293 m 289 558 l 289 417 l 425 417 q 518 488 518 417 q 425 558 518 558 l 289 558 z "},"г":{"ha":672,"x_min":96,"x_max":646,"o":"m 292 0 l 96 0 l 96 693 l 646 693 l 646 529 l 292 529 l 292 0 z "},"д":{"ha":939,"x_min":28,"x_max":900,"o":"m 215 -176 l 28 -176 l 28 164 l 117 164 q 200 558 196 288 l 203 693 l 786 693 l 786 164 l 900 164 l 900 -176 l 715 -176 l 715 0 l 215 0 l 215 -176 m 317 164 l 594 164 l 594 529 l 378 529 q 317 164 378 314 z "},"е":{"ha":796,"x_min":50,"x_max":742,"o":"m 435 -18 q 161 82 272 -18 q 50 347 50 182 q 150 606 50 501 q 411 711 250 711 q 651 604 561 711 q 742 344 742 497 l 742 293 l 244 293 q 322 186 260 224 q 476 149 383 149 q 699 210 592 149 l 699 53 q 435 -18 606 -18 m 244 418 l 549 418 q 506 517 546 478 q 403 557 467 557 q 294 519 338 557 q 244 418 251 481 z "},"ж":{"ha":1154,"x_min":18,"x_max":1136,"o":"m 250 0 l 18 0 l 317 369 l 49 693 l 269 693 l 481 432 l 481 693 l 674 693 l 674 432 l 883 693 l 1104 693 l 836 369 l 1136 0 l 903 0 l 674 296 l 674 0 l 481 0 l 481 296 l 250 0 z "},"з":{"ha":739,"x_min":69,"x_max":683,"o":"m 339 -18 q 69 35 178 -18 l 69 193 q 311 138 176 138 q 434 158 390 138 q 478 218 478 179 q 356 286 478 286 l 219 286 l 219 428 l 356 428 q 456 489 456 428 q 314 556 456 556 q 89 508 185 556 l 89 661 q 357 711 196 711 q 569 657 483 711 q 656 521 656 603 q 556 372 656 406 q 648 312 613 354 q 683 207 683 269 q 588 44 683 108 q 339 -18 494 -18 z "},"и":{"ha":882,"x_min":96,"x_max":786,"o":"m 279 0 l 96 0 l 96 693 l 289 693 l 289 285 l 603 693 l 786 693 l 786 0 l 593 0 l 593 408 l 279 0 z "},"й":{"ha":882,"x_min":96,"x_max":786,"o":"m 279 0 l 96 0 l 96 693 l 289 693 l 289 285 l 603 693 l 786 693 l 786 0 l 593 0 l 593 408 l 279 0 m 440 769 q 260 834 329 769 q 189 1007 190 899 l 336 1007 q 364 933 336 961 q 439 906 392 906 q 513 933 486 906 q 542 1007 540 961 l 690 1007 q 618 833 689 897 q 440 769 549 769 z "},"к":{"ha":832,"x_min":96,"x_max":818,"o":"m 292 0 l 96 0 l 96 693 l 292 693 l 292 440 l 531 693 l 771 693 l 469 381 l 818 0 l 565 0 l 292 299 l 292 0 z "},"л":{"ha":879,"x_min":28,"x_max":783,"o":"m 588 529 l 374 529 l 371 432 q 339 189 364 278 q 256 47 313 96 q 101 -6 200 -3 q 28 7 50 -6 l 28 167 q 68 161 43 161 q 158 250 136 161 q 181 489 179 329 l 185 693 l 783 693 l 783 0 l 588 0 l 588 529 z "},"м":{"ha":982,"x_min":96,"x_max":886,"o":"m 281 0 l 96 0 l 96 693 l 289 693 l 490 435 l 693 693 l 886 693 l 886 0 l 701 0 l 701 428 l 529 213 l 451 213 l 281 428 l 281 0 z "},"н":{"ha":868,"x_min":96,"x_max":772,"o":"m 292 0 l 96 0 l 96 693 l 292 693 l 292 436 l 576 436 l 576 693 l 772 693 l 772 0 l 576 0 l 576 272 l 292 272 l 292 0 z "},"о":{"ha":868,"x_min":50,"x_max":819,"o":"m 243 347 q 243 306 243 347 q 297 208 243 264 q 435 153 351 153 q 572 208 518 153 q 626 347 626 265 q 572 485 626 431 q 435 540 518 540 q 297 485 351 540 q 243 347 243 431 m 50 347 q 158 606 50 501 q 435 711 265 711 q 711 606 604 711 q 819 347 819 500 q 711 86 819 192 q 435 -18 603 -18 q 158 86 267 -18 q 50 347 50 192 z "},"п":{"ha":860,"x_min":96,"x_max":764,"o":"m 292 0 l 96 0 l 96 693 l 764 693 l 764 0 l 568 0 l 568 529 l 292 529 l 292 0 z "},"р":{"ha":894,"x_min":96,"x_max":846,"o":"m 519 711 q 753 606 661 711 q 846 346 846 503 q 753 86 846 192 q 519 -18 661 -18 q 292 85 374 -18 l 292 -278 l 96 -278 l 96 693 l 292 693 l 292 608 q 519 711 369 711 m 464 540 q 363 511 408 540 q 292 436 317 482 l 292 256 q 363 181 317 210 q 464 153 408 153 q 599 208 547 153 q 651 346 651 265 q 599 485 651 428 q 464 540 547 540 z "},"с":{"ha":717,"x_min":50,"x_max":646,"o":"m 426 -18 q 161 82 272 -18 q 50 349 50 185 q 161 611 50 513 q 429 711 274 711 q 635 665 543 711 l 635 499 q 458 540 544 540 q 304 486 367 540 q 243 347 243 433 q 306 207 243 261 q 458 153 368 153 q 646 200 565 153 l 646 33 q 426 -18 549 -18 z "},"т":{"ha":672,"x_min":21,"x_max":653,"o":"m 433 0 l 238 0 l 238 529 l 21 529 l 21 693 l 653 693 l 653 529 l 433 529 l 433 0 z "},"у":{"ha":804,"x_min":8,"x_max":783,"o":"m 186 -286 q 47 -258 100 -286 l 47 -87 q 153 -115 96 -115 q 241 -83 206 -115 q 307 24 276 -50 l 8 693 l 219 693 l 403 238 l 576 693 l 783 693 l 463 -72 q 186 -286 371 -286 z "},"ф":{"ha":1054,"x_min":50,"x_max":1006,"o":"m 432 701 l 432 972 l 625 972 l 625 701 q 904 594 803 693 q 1006 347 1006 497 q 906 101 1006 194 q 625 -7 807 7 l 625 -278 l 432 -278 l 432 -7 q 150 99 254 -1 q 50 347 50 199 q 151 593 50 499 q 432 701 251 688 m 432 150 l 432 543 q 291 485 343 538 q 239 347 239 433 q 291 208 239 261 q 432 150 343 154 m 625 543 l 625 150 q 766 208 714 154 q 818 347 818 261 q 766 485 818 433 q 625 543 714 538 z "},"х":{"ha":824,"x_min":24,"x_max":783,"o":"m 47 693 l 267 693 l 406 499 l 546 693 l 763 693 l 519 363 l 783 0 l 564 0 l 403 222 l 240 0 l 24 0 l 289 361 l 47 693 z "},"ц":{"ha":919,"x_min":96,"x_max":881,"o":"m 881 -176 l 692 -176 l 692 0 l 96 0 l 96 693 l 292 693 l 292 164 l 571 164 l 571 693 l 767 693 l 767 164 l 881 164 l 881 -176 z "},"ч":{"ha":801,"x_min":63,"x_max":706,"o":"m 706 0 l 510 0 l 510 228 q 358 204 442 204 q 63 488 63 204 l 63 693 l 258 693 l 258 507 q 288 401 258 432 q 389 369 318 369 q 510 396 463 369 l 510 693 l 706 693 l 706 0 z "},"ш":{"ha":1194,"x_min":96,"x_max":1099,"o":"m 1099 0 l 96 0 l 96 693 l 289 693 l 289 164 l 500 164 l 500 693 l 692 693 l 692 164 l 907 164 l 907 693 l 1099 693 l 1099 0 z "},"щ":{"ha":1251,"x_min":96,"x_max":1213,"o":"m 1213 -176 l 1036 -176 l 1036 0 l 96 0 l 96 693 l 289 693 l 289 164 l 500 164 l 500 693 l 692 693 l 692 164 l 907 164 l 907 693 l 1099 693 l 1099 164 l 1213 164 l 1213 -176 z "},"ъ":{"ha":910,"x_min":19,"x_max":863,"o":"m 586 0 l 214 0 l 214 529 l 19 529 l 19 693 l 410 693 l 410 490 l 576 490 q 785 424 707 490 q 863 246 863 357 q 790 69 863 140 q 586 0 717 0 m 410 344 l 410 151 l 546 151 q 635 176 603 151 q 667 247 667 201 q 635 319 667 293 q 546 344 603 344 l 410 344 z "},"ы":{"ha":1092,"x_min":96,"x_max":996,"o":"m 996 0 l 803 0 l 803 693 l 996 693 l 996 0 m 443 0 l 96 0 l 96 693 l 292 693 l 292 490 l 433 490 q 642 424 564 490 q 719 246 719 357 q 647 69 719 140 q 443 0 574 0 m 292 344 l 292 151 l 403 151 q 492 176 460 151 q 524 247 524 201 q 492 319 524 293 q 403 344 460 344 l 292 344 z "},"ь":{"ha":792,"x_min":96,"x_max":744,"o":"m 468 0 l 96 0 l 96 693 l 292 693 l 292 490 l 458 490 q 667 424 589 490 q 744 246 744 357 q 672 69 744 140 q 468 0 599 0 m 292 344 l 292 151 l 428 151 q 517 176 485 151 q 549 247 549 201 q 517 319 549 293 q 428 344 485 344 l 292 344 z "},"э":{"ha":710,"x_min":68,"x_max":661,"o":"m 285 -18 q 68 32 158 -18 l 68 192 q 254 144 157 144 q 391 182 333 144 q 463 281 449 219 l 207 281 l 207 417 l 461 417 q 390 514 446 478 q 254 550 333 550 q 82 510 165 550 l 82 667 q 285 711 174 711 q 550 611 439 711 q 661 349 661 513 q 550 82 661 182 q 285 -18 439 -18 z "},"ю":{"ha":1163,"x_min":96,"x_max":1114,"o":"m 754 -18 q 519 64 617 -18 q 403 274 426 144 l 292 274 l 292 0 l 96 0 l 96 693 l 292 693 l 292 438 l 407 438 q 526 635 435 558 q 754 711 619 711 q 1013 606 913 711 q 1114 347 1114 503 q 1013 86 1114 192 q 754 -18 913 -18 m 754 153 q 874 208 828 153 q 921 347 921 264 q 874 485 921 431 q 754 540 828 540 q 632 485 679 540 q 585 347 585 431 q 631 208 585 265 q 754 153 678 153 z "},"я":{"ha":824,"x_min":35,"x_max":728,"o":"m 254 0 l 35 0 l 221 264 q 83 468 83 314 q 153 631 83 569 q 356 693 224 693 l 728 693 l 728 0 l 532 0 l 532 229 l 414 229 l 254 0 m 388 371 l 532 371 l 532 540 l 388 540 q 311 518 339 540 q 283 456 283 496 q 311 393 283 415 q 388 371 339 371 z "},"ё":{"ha":796,"x_min":50,"x_max":742,"o":"m 435 -18 q 161 82 272 -18 q 50 347 50 182 q 150 606 50 501 q 411 711 250 711 q 651 604 561 711 q 742 344 742 497 l 742 293 l 244 293 q 322 186 260 224 q 476 149 383 149 q 699 210 592 149 l 699 53 q 435 -18 606 -18 m 244 418 l 549 418 q 506 517 546 478 q 403 557 467 557 q 294 519 338 557 q 244 418 251 481 m 625 819 q 553 790 596 790 q 479 819 510 790 q 450 893 450 850 q 479 965 450 936 q 553 994 510 994 q 625 965 596 994 q 656 893 656 936 q 625 819 656 850 m 247 790 q 175 820 206 790 q 144 893 144 850 q 175 965 144 935 q 247 994 206 994 q 320 965 290 994 q 350 893 350 936 q 320 820 350 850 q 247 790 290 790 z "},"ђ":{"ha":924,"x_min":19,"x_max":842,"o":"m 590 -286 q 436 -256 488 -286 l 436 -89 q 540 -115 485 -115 q 646 -6 646 -115 l 646 286 q 609 397 646 361 q 514 433 572 433 q 426 408 469 433 q 357 343 382 382 l 357 0 l 161 0 l 161 719 l 19 719 l 19 849 l 161 849 l 161 972 l 357 972 l 357 849 l 579 849 l 579 719 l 357 719 l 357 510 q 589 613 451 613 q 775 537 708 613 q 842 326 842 461 l 842 -25 q 774 -217 842 -149 q 590 -286 707 -286 z "},"ѓ":{"ha":672,"x_min":96,"x_max":646,"o":"m 292 0 l 96 0 l 96 693 l 646 693 l 646 529 l 292 529 l 292 0 m 400 792 l 231 792 l 363 994 l 599 994 l 400 792 z "},"є":{"ha":714,"x_min":56,"x_max":649,"o":"m 432 -18 q 167 82 278 -18 q 56 349 56 182 q 167 611 56 513 q 432 711 278 711 q 635 667 543 711 l 635 510 q 463 550 551 550 q 327 514 383 550 q 256 417 271 478 l 510 417 l 510 281 l 254 281 q 326 182 268 219 q 463 144 383 144 q 649 192 560 144 l 649 32 q 432 -18 558 -18 z "},"ѕ":{"ha":681,"x_min":50,"x_max":651,"o":"m 342 -18 q 50 47 157 -18 l 50 221 q 177 165 100 188 q 333 142 254 142 q 453 200 453 142 q 418 243 453 228 q 382 256 400 251 l 331 268 q 301 276 319 271 q 275 283 282 281 q 101 363 151 317 q 50 499 50 410 q 131 654 50 597 q 356 711 213 711 q 615 647 514 711 l 615 481 q 364 553 492 553 q 253 497 253 553 q 259 477 253 486 q 272 464 265 468 q 292 451 278 460 q 322 442 300 449 q 351 433 344 436 l 425 418 q 596 340 540 392 q 651 199 651 288 q 567 42 651 101 q 342 -18 482 -18 z "},"і":{"ha":407,"x_min":86,"x_max":319,"o":"m 301 0 l 106 0 l 106 693 l 301 693 l 301 0 m 86 876 q 120 960 86 926 q 203 994 154 994 q 285 960 251 994 q 319 876 319 926 q 285 794 319 828 q 203 760 251 760 q 120 794 154 760 q 86 876 86 828 z "},"ї":{"ha":369,"x_min":-71,"x_max":440,"o":"m 410 819 q 338 790 381 790 q 264 819 294 790 q 235 893 235 850 q 264 965 235 936 q 338 994 294 994 q 410 965 381 994 q 440 893 440 936 q 410 819 440 850 m 32 790 q -40 820 -10 790 q -71 893 -71 850 q -40 965 -71 935 q 32 994 -10 994 q 105 965 75 994 q 135 893 135 936 q 105 820 135 850 q 32 790 75 790 m 283 0 l 88 0 l 88 693 l 283 693 l 283 0 z "},"ј":{"ha":407,"x_min":-104,"x_max":319,"o":"m 50 -286 q -104 -256 -53 -286 l -104 -89 q 0 -115 -56 -115 q 106 -6 106 -115 l 106 693 l 301 693 l 301 -25 q 234 -217 301 -149 q 50 -286 167 -286 m 85 876 q 119 960 85 926 q 201 994 153 994 q 285 960 250 994 q 319 876 319 926 q 285 794 319 828 q 201 760 250 760 q 119 794 153 760 q 85 876 85 828 z "},"љ":{"ha":1276,"x_min":28,"x_max":1229,"o":"m 953 0 l 581 0 l 581 529 l 374 529 q 351 239 365 311 q 139 -3 308 17 q 101 -6 114 -6 q 28 7 50 -6 l 28 167 q 68 161 43 161 q 163 257 142 161 q 183 525 183 342 l 185 693 l 776 693 l 776 490 l 943 490 q 1151 424 1074 490 q 1229 246 1229 357 q 1157 69 1229 140 q 953 0 1083 0 m 776 344 l 776 151 l 913 151 q 1001 176 969 151 q 1033 247 1033 201 q 1001 319 1033 293 q 913 344 969 344 l 776 344 z "},"њ":{"ha":1263,"x_min":96,"x_max":1215,"o":"m 939 0 l 567 0 l 567 296 l 292 296 l 292 0 l 96 0 l 96 693 l 292 693 l 292 453 l 567 453 l 567 693 l 763 693 l 763 490 l 929 490 q 1138 424 1060 490 q 1215 246 1215 357 q 1143 69 1215 140 q 939 0 1069 0 m 763 344 l 763 151 l 899 151 q 988 176 956 151 q 1019 247 1019 201 q 988 319 1019 293 q 899 344 956 344 l 763 344 z "},"ћ":{"ha":924,"x_min":19,"x_max":842,"o":"m 357 343 l 357 0 l 161 0 l 161 719 l 19 719 l 19 849 l 161 849 l 161 972 l 357 972 l 357 849 l 579 849 l 579 719 l 357 719 l 357 510 q 589 613 451 613 q 775 537 708 613 q 842 326 842 461 l 842 0 l 646 0 l 646 286 q 609 397 646 361 q 514 433 572 433 q 426 408 469 433 q 357 343 382 382 z "},"ќ":{"ha":832,"x_min":96,"x_max":818,"o":"m 292 0 l 96 0 l 96 693 l 292 693 l 292 440 l 531 693 l 771 693 l 469 381 l 818 0 l 565 0 l 292 299 l 292 0 m 486 792 l 317 792 l 449 994 l 685 994 l 486 792 z "},"ў":{"ha":804,"x_min":8,"x_max":783,"o":"m 186 -286 q 47 -258 100 -286 l 47 -87 q 153 -115 96 -115 q 241 -83 206 -115 q 307 24 276 -50 l 8 693 l 219 693 l 403 238 l 576 693 l 783 693 l 463 -72 q 186 -286 371 -286 m 396 769 q 215 834 285 769 q 144 1007 146 899 l 292 1007 q 319 933 292 961 q 394 906 347 906 q 469 933 442 906 q 497 1007 496 961 l 646 1007 q 574 833 644 897 q 396 769 504 769 z "},"џ":{"ha":863,"x_min":96,"x_max":767,"o":"m 526 -176 l 336 -176 l 336 0 l 96 0 l 96 693 l 292 693 l 292 164 l 571 164 l 571 693 l 767 693 l 767 0 l 526 0 l 526 -176 z "},"Ґ":{"ha":854,"x_min":107,"x_max":806,"o":"m 307 0 l 107 0 l 107 972 l 625 972 l 625 1165 l 806 1165 l 806 793 l 307 793 l 307 0 z "},"ґ":{"ha":672,"x_min":96,"x_max":646,"o":"m 292 0 l 96 0 l 96 693 l 467 693 l 467 865 l 646 865 l 646 529 l 292 529 l 292 0 z "},"Ḃ":{"ha":994,"x_min":107,"x_max":933,"o":"m 596 0 l 107 0 l 107 972 l 564 972 q 778 908 699 972 q 858 729 858 844 q 824 608 858 658 q 736 536 789 558 q 875 450 815 519 q 933 276 933 382 q 842 76 933 153 q 596 0 751 0 m 307 426 l 307 172 l 558 172 q 675 205 633 172 q 717 299 717 238 q 675 393 717 360 q 558 426 633 426 l 307 426 m 307 806 l 307 592 l 532 592 q 630 619 594 592 q 665 697 665 647 q 630 777 665 749 q 532 806 594 806 l 307 806 m 465 1056 q 393 1085 424 1056 q 363 1158 363 1115 q 393 1230 363 1200 q 465 1260 424 1260 q 538 1230 508 1260 q 568 1158 568 1200 q 538 1085 568 1115 q 465 1056 508 1056 z "},"ḃ":{"ha":894,"x_min":96,"x_max":846,"o":"m 519 -18 q 292 85 369 -18 l 292 0 l 96 0 l 96 972 l 292 972 l 292 608 q 519 711 374 711 q 753 606 661 711 q 846 347 846 503 q 753 86 846 192 q 519 -18 661 -18 m 464 153 q 599 208 547 153 q 651 347 651 265 q 599 485 651 428 q 464 540 547 540 q 363 512 408 540 q 292 438 317 483 l 292 257 q 363 182 317 211 q 464 153 408 153 m 461 1056 q 389 1085 419 1056 q 358 1158 358 1115 q 389 1230 358 1200 q 461 1260 419 1260 q 534 1230 504 1260 q 564 1158 564 1200 q 534 1085 564 1115 q 461 1056 504 1056 z "},"Ḋ":{"ha":1078,"x_min":107,"x_max":1004,"o":"m 471 0 l 107 0 l 107 972 l 471 972 q 856 836 707 972 q 1004 486 1004 700 q 856 135 1004 271 q 471 0 708 0 m 307 793 l 307 179 l 454 179 q 708 260 617 179 q 799 486 799 342 q 708 712 799 631 q 454 793 617 793 l 307 793 m 493 1056 q 421 1085 451 1056 q 390 1158 390 1115 q 421 1230 390 1200 q 493 1260 451 1260 q 566 1230 536 1260 q 596 1158 596 1200 q 566 1085 596 1115 q 493 1056 536 1056 z "},"ḋ":{"ha":896,"x_min":50,"x_max":800,"o":"m 376 -18 q 142 86 236 -18 q 50 347 50 192 q 142 606 50 501 q 376 711 235 711 q 604 608 522 711 l 604 972 l 800 972 l 800 0 l 604 0 l 604 85 q 376 -18 526 -18 m 432 153 q 533 182 488 153 q 604 257 579 211 l 604 438 q 533 512 579 483 q 432 540 488 540 q 297 485 349 540 q 244 347 244 428 q 297 208 244 265 q 432 153 349 153 m 443 1056 q 371 1085 401 1056 q 340 1158 340 1115 q 371 1230 340 1200 q 443 1260 401 1260 q 516 1230 486 1260 q 546 1158 546 1200 q 516 1085 546 1115 q 443 1056 486 1056 z "},"Ḟ":{"ha":872,"x_min":107,"x_max":819,"o":"m 307 0 l 107 0 l 107 972 l 819 972 l 819 793 l 307 793 l 307 596 l 703 596 l 703 419 l 307 419 l 307 0 m 463 1056 q 390 1085 421 1056 q 360 1158 360 1115 q 390 1230 360 1200 q 463 1260 421 1260 q 535 1230 506 1260 q 565 1158 565 1200 q 535 1085 565 1115 q 463 1056 506 1056 z "},"ḟ":{"ha":590,"x_min":25,"x_max":560,"o":"m 149 0 l 149 529 l 25 529 l 25 693 l 149 693 l 149 758 q 210 926 149 864 q 383 989 271 989 q 560 960 485 989 l 560 801 q 440 825 497 825 q 344 732 344 825 l 344 693 l 560 693 l 560 529 l 344 529 l 344 0 l 149 0 m 356 1056 q 283 1085 314 1056 q 253 1158 253 1115 q 283 1230 253 1200 q 356 1260 314 1260 q 428 1230 399 1260 q 458 1158 458 1200 q 428 1085 458 1115 q 356 1056 399 1056 z "},"Ṁ":{"ha":1175,"x_min":107,"x_max":1067,"o":"m 307 0 l 107 0 l 107 972 l 306 972 l 588 569 l 869 972 l 1067 972 l 1067 0 l 869 0 l 869 665 l 646 353 l 535 353 l 307 665 l 307 0 m 586 1056 q 514 1085 544 1056 q 483 1158 483 1115 q 514 1230 483 1200 q 586 1260 544 1260 q 659 1230 629 1260 q 689 1158 689 1200 q 659 1085 689 1115 q 586 1056 629 1056 z "},"ṁ":{"ha":1286,"x_min":96,"x_max":1204,"o":"m 292 0 l 96 0 l 96 693 l 292 693 l 292 608 q 503 711 369 711 q 637 678 578 711 q 718 593 696 644 q 818 678 753 646 q 957 711 883 711 q 1138 639 1071 711 q 1204 433 1204 567 l 1204 0 l 1008 0 l 1008 389 q 893 532 1008 532 q 808 506 849 532 q 749 438 768 479 l 749 0 l 553 0 l 553 389 q 438 532 553 532 q 354 506 396 532 q 292 440 313 479 l 292 0 m 650 790 q 578 820 608 790 q 547 893 547 850 q 578 965 547 935 q 650 994 608 994 q 722 965 693 994 q 751 893 751 936 q 722 820 751 850 q 650 790 693 790 z "},"Ṗ":{"ha":915,"x_min":107,"x_max":871,"o":"m 307 0 l 107 0 l 107 972 l 532 972 q 779 890 689 972 q 871 679 871 810 q 779 467 871 547 q 532 385 689 385 l 307 385 l 307 0 m 307 797 l 307 556 l 518 556 q 631 587 590 556 q 671 676 671 618 q 631 766 671 735 q 518 797 590 797 l 307 797 m 460 1056 q 388 1085 418 1056 q 357 1158 357 1115 q 388 1230 357 1200 q 460 1260 418 1260 q 533 1230 503 1260 q 563 1158 563 1200 q 533 1085 563 1115 q 460 1056 503 1056 z "},"ṗ":{"ha":894,"x_min":96,"x_max":846,"o":"m 519 711 q 753 606 661 711 q 846 346 846 503 q 753 86 846 192 q 519 -18 661 -18 q 292 85 374 -18 l 292 -278 l 96 -278 l 96 693 l 292 693 l 292 608 q 519 711 369 711 m 464 540 q 363 511 408 540 q 292 436 317 482 l 292 256 q 363 181 317 210 q 464 153 408 153 q 599 208 547 153 q 651 346 651 265 q 599 485 651 428 q 464 540 547 540 m 465 790 q 393 820 424 790 q 363 893 363 850 q 393 965 363 935 q 465 994 424 994 q 538 965 508 994 q 567 893 567 936 q 538 820 567 850 q 465 790 508 790 z "},"Ṡ":{"ha":871,"x_min":60,"x_max":815,"o":"m 429 -19 q 60 85 210 -19 l 60 293 q 221 201 121 240 q 421 164 322 164 q 556 194 503 164 q 608 276 608 224 q 558 357 608 333 q 503 382 538 369 l 469 393 l 392 417 l 319 440 q 254 464 304 444 q 192 493 211 481 q 100 578 119 543 q 67 714 67 644 q 165 917 67 843 q 433 992 264 992 q 751 911 604 992 l 751 717 q 436 808 603 808 q 271 713 271 808 q 322 646 271 671 q 401 617 353 629 q 507 586 467 599 q 718 485 628 549 q 815 282 815 417 q 706 61 815 142 q 429 -19 596 -19 m 422 1056 q 350 1085 381 1056 q 319 1158 319 1115 q 350 1230 319 1200 q 422 1260 381 1260 q 495 1230 465 1260 q 525 1158 525 1200 q 495 1085 525 1115 q 422 1056 465 1056 z "},"ṡ":{"ha":711,"x_min":60,"x_max":661,"o":"m 351 -18 q 60 47 167 -18 l 60 221 q 187 165 110 188 q 343 142 264 142 q 463 200 463 142 q 428 243 463 228 q 392 256 410 251 l 340 268 q 310 276 329 271 q 285 283 292 281 q 110 363 161 317 q 60 499 60 410 q 141 654 60 597 q 365 711 222 711 q 625 647 524 711 l 625 481 q 374 553 501 553 q 263 497 263 553 q 269 477 263 486 q 281 464 275 468 q 301 451 288 460 q 332 442 310 449 q 361 433 354 436 l 435 418 q 606 340 550 392 q 661 199 661 288 q 576 42 661 101 q 351 -18 492 -18 m 344 790 q 272 820 303 790 q 242 893 242 850 q 272 965 242 935 q 344 994 303 994 q 417 965 388 994 q 446 893 446 936 q 417 820 446 850 q 344 790 388 790 z "},"Ṫ":{"ha":899,"x_min":42,"x_max":857,"o":"m 42 793 l 42 972 l 857 972 l 857 793 l 549 793 l 549 0 l 349 0 l 349 793 l 42 793 m 447 1056 q 375 1085 406 1056 q 344 1158 344 1115 q 375 1230 344 1200 q 447 1260 406 1260 q 520 1230 490 1260 q 550 1158 550 1200 q 520 1085 550 1115 q 447 1056 490 1056 z "},"ṫ":{"ha":613,"x_min":25,"x_max":554,"o":"m 161 529 l 25 529 l 25 693 l 161 693 l 161 883 l 357 883 l 357 693 l 554 693 l 554 529 l 357 529 l 357 254 q 379 180 357 203 q 451 157 401 157 q 553 182 503 157 l 553 19 q 388 -18 492 -18 q 161 215 161 -18 l 161 529 m 260 943 q 188 973 218 943 q 157 1046 157 1003 q 188 1117 157 1088 q 260 1147 218 1147 q 332 1118 303 1147 q 361 1046 361 1089 q 332 973 361 1003 q 260 943 303 943 z "},"Ẁ":{"ha":1493,"x_min":29,"x_max":1465,"o":"m 532 -6 l 356 -6 l 29 972 l 251 972 l 451 317 l 671 975 l 826 975 l 1047 317 l 1247 972 l 1465 972 l 1138 -6 l 961 -6 l 749 643 l 532 -6 m 464 1260 l 700 1260 l 832 1057 l 663 1057 l 464 1260 z "},"ẁ":{"ha":1174,"x_min":26,"x_max":1122,"o":"m 428 -6 l 261 -6 l 26 693 l 222 693 l 360 281 l 496 696 l 653 696 l 793 281 l 928 693 l 1122 693 l 885 -6 l 715 -6 l 571 413 l 428 -6 m 292 1003 l 529 1003 l 661 800 l 492 800 l 292 1003 z "},"Ẃ":{"ha":1493,"x_min":29,"x_max":1465,"o":"m 532 -6 l 356 -6 l 29 972 l 251 972 l 451 317 l 671 975 l 826 975 l 1047 317 l 1247 972 l 1465 972 l 1138 -6 l 961 -6 l 749 643 l 532 -6 m 838 1057 l 668 1057 l 800 1260 l 1036 1260 l 838 1057 z "},"ẃ":{"ha":1174,"x_min":26,"x_max":1122,"o":"m 428 -6 l 261 -6 l 26 693 l 222 693 l 360 281 l 496 696 l 653 696 l 793 281 l 928 693 l 1122 693 l 885 -6 l 715 -6 l 571 413 l 428 -6 m 667 792 l 497 792 l 629 994 l 865 994 l 667 792 z "},"Ẅ":{"ha":1493,"x_min":29,"x_max":1465,"o":"m 532 -6 l 356 -6 l 29 972 l 251 972 l 451 317 l 671 975 l 826 975 l 1047 317 l 1247 972 l 1465 972 l 1138 -6 l 961 -6 l 749 643 l 532 -6 m 974 1085 q 901 1056 944 1056 q 828 1085 858 1056 q 799 1158 799 1115 q 828 1231 799 1201 q 901 1260 858 1260 q 974 1231 944 1260 q 1003 1158 1003 1201 q 974 1085 1003 1115 m 596 1056 q 524 1085 554 1056 q 493 1158 493 1115 q 524 1230 493 1200 q 596 1260 554 1260 q 669 1231 639 1260 q 699 1158 699 1201 q 669 1085 699 1115 q 596 1056 639 1056 z "},"ẅ":{"ha":1174,"x_min":26,"x_max":1122,"o":"m 428 -6 l 261 -6 l 26 693 l 222 693 l 360 281 l 496 696 l 653 696 l 793 281 l 928 693 l 1122 693 l 885 -6 l 715 -6 l 571 413 l 428 -6 m 799 819 q 726 790 769 790 q 653 819 683 790 q 624 893 624 850 q 653 965 624 936 q 726 994 683 994 q 799 965 769 994 q 829 893 829 936 q 799 819 829 850 m 421 790 q 349 820 379 790 q 318 893 318 850 q 349 965 318 935 q 421 994 379 994 q 494 965 464 994 q 524 893 524 936 q 494 820 524 850 q 421 790 464 790 z "},"Ỳ":{"ha":967,"x_min":8,"x_max":958,"o":"m 583 0 l 385 0 l 385 436 l 8 972 l 244 972 l 486 626 l 729 972 l 958 972 l 583 440 l 583 0 m 219 1260 l 456 1260 l 588 1057 l 418 1057 l 219 1260 z "},"ỳ":{"ha":804,"x_min":8,"x_max":783,"o":"m 186 -286 q 47 -258 100 -286 l 47 -87 q 153 -115 96 -115 q 241 -83 206 -115 q 307 24 276 -50 l 8 693 l 219 693 l 403 238 l 576 693 l 783 693 l 463 -72 q 186 -286 371 -286 m 151 1003 l 389 1003 l 521 800 l 351 800 l 151 1003 z "},"–":{"ha":1071,"x_min":133,"x_max":938,"o":"m 938 297 l 133 297 l 133 474 l 938 474 l 938 297 z "},"—":{"ha":1274,"x_min":133,"x_max":1140,"o":"m 1140 297 l 133 297 l 133 474 l 1140 474 l 1140 297 z "},"―":{"ha":1071,"x_min":133,"x_max":938,"o":"m 938 297 l 133 297 l 133 474 l 938 474 l 938 297 z "},"‘":{"ha":403,"x_min":35,"x_max":364,"o":"m 203 972 l 364 972 l 244 551 l 35 551 l 203 972 z "},"’":{"ha":403,"x_min":36,"x_max":365,"o":"m 197 551 l 36 551 l 156 972 l 365 972 l 197 551 z "},"‚":{"ha":389,"x_min":8,"x_max":338,"o":"m 169 -211 l 8 -211 l 128 210 l 338 210 l 169 -211 z "},"“":{"ha":704,"x_min":35,"x_max":665,"o":"m 504 972 l 665 972 l 546 551 l 336 551 l 504 972 m 203 972 l 364 972 l 244 551 l 35 551 l 203 972 z "},"”":{"ha":704,"x_min":36,"x_max":667,"o":"m 499 551 l 338 551 l 457 972 l 667 972 l 499 551 m 197 551 l 36 551 l 156 972 l 365 972 l 197 551 z "},"„":{"ha":690,"x_min":8,"x_max":639,"o":"m 471 -211 l 310 -211 l 429 210 l 639 210 l 471 -211 m 169 -211 l 8 -211 l 128 210 l 338 210 l 169 -211 z "},"†":{"ha":694,"x_min":40,"x_max":654,"o":"m 426 0 l 268 0 l 268 568 l 40 568 l 40 722 l 268 722 l 268 972 l 426 972 l 426 722 l 654 722 l 654 568 l 426 568 l 426 0 z "},"‡":{"ha":694,"x_min":40,"x_max":654,"o":"m 426 0 l 268 0 l 268 242 l 40 242 l 40 396 l 268 396 l 268 568 l 40 568 l 40 722 l 268 722 l 268 972 l 426 972 l 426 722 l 654 722 l 654 568 l 426 568 l 426 396 l 654 396 l 654 242 l 426 242 l 426 0 z "},"•":{"ha":575,"x_min":83,"x_max":490,"o":"m 83 539 q 143 683 83 624 q 288 743 203 743 q 431 683 372 743 q 490 539 490 624 q 431 396 490 456 q 288 336 372 336 q 143 396 203 336 q 83 539 83 456 z "},"…":{"ha":1046,"x_min":63,"x_max":985,"o":"m 183 -15 q 97 20 132 -15 q 63 107 63 56 q 97 192 63 157 q 183 226 132 226 q 269 192 233 226 q 304 107 304 157 q 269 20 304 56 q 183 -15 233 -15 m 403 107 q 438 192 403 157 q 524 226 474 226 q 609 192 574 226 q 644 107 644 157 q 609 20 644 56 q 524 -15 574 -15 q 438 20 474 -15 q 403 107 403 56 m 743 107 q 778 192 743 157 q 864 226 814 226 q 949 192 914 226 q 985 107 985 157 q 949 20 985 56 q 864 -15 914 -15 q 778 20 814 -15 q 743 107 743 56 z "},"‰":{"ha":1682,"x_min":33,"x_max":1647,"o":"m 349 0 l 208 0 l 789 972 l 929 972 l 349 0 m 103 913 q 279 981 171 981 q 456 913 388 981 q 525 743 525 843 q 456 574 525 643 q 279 506 388 506 q 103 574 171 506 q 33 743 33 643 q 103 913 33 843 m 199 663 q 279 631 231 631 q 358 663 326 631 q 390 743 390 694 q 358 824 390 792 q 279 856 326 856 q 199 824 231 856 q 168 743 168 792 q 199 663 168 694 m 679 399 q 856 467 747 467 q 1032 399 964 467 q 1101 229 1101 329 q 1032 60 1101 129 q 856 -8 964 -8 q 679 60 747 -8 q 610 229 610 129 q 679 399 610 329 m 775 149 q 856 117 807 117 q 935 149 903 117 q 967 229 967 181 q 935 310 967 278 q 856 342 903 342 q 775 310 807 342 q 744 229 744 278 q 775 149 744 181 m 1225 397 q 1401 465 1293 465 q 1578 397 1510 465 q 1647 228 1647 328 q 1578 58 1647 128 q 1401 -10 1510 -10 q 1225 58 1293 -10 q 1156 228 1156 128 q 1225 397 1156 328 m 1321 147 q 1401 115 1353 115 q 1481 147 1449 115 q 1513 228 1513 179 q 1481 308 1513 276 q 1401 340 1449 340 q 1321 308 1353 340 q 1290 228 1290 276 q 1321 147 1290 179 z "},"‹":{"ha":474,"x_min":44,"x_max":431,"o":"m 431 49 l 235 49 l 44 297 l 44 396 l 235 644 l 431 644 l 207 347 l 431 49 z "},"›":{"ha":474,"x_min":43,"x_max":429,"o":"m 239 49 l 43 49 l 267 347 l 43 644 l 239 644 l 429 396 l 429 297 l 239 49 z "},"⁄":{"ha":313,"x_min":-211,"x_max":525,"o":"m -61 0 l -211 0 l 375 972 l 525 972 l -61 0 z "},"⁰":{"ha":526,"x_min":26,"x_max":500,"o":"m 264 438 q 89 518 153 438 q 26 710 26 600 q 89 901 26 819 q 264 982 153 982 q 436 901 374 982 q 500 710 500 821 q 436 518 500 599 q 264 438 374 438 m 264 553 q 329 583 303 550 q 362 663 356 615 q 362 757 368 710 q 329 837 356 804 q 264 867 303 869 q 197 837 225 869 q 164 757 169 804 q 164 663 158 710 q 197 583 169 615 q 264 553 225 550 z "},"⁴":{"ha":506,"x_min":18,"x_max":485,"o":"m 410 447 l 282 447 l 282 572 l 18 572 l 18 667 l 275 972 l 410 972 l 410 675 l 485 675 l 485 572 l 410 572 l 410 447 m 282 825 l 153 675 l 282 675 l 282 825 z "},"⁵":{"ha":460,"x_min":35,"x_max":421,"o":"m 190 438 q 35 475 100 438 l 35 599 q 185 554 104 554 q 258 573 229 554 q 288 626 288 592 q 260 678 288 658 q 183 697 232 697 q 51 676 118 697 l 86 972 l 386 972 l 386 861 l 186 861 l 179 794 q 215 797 193 797 q 364 751 307 797 q 421 626 421 704 q 354 486 421 536 q 190 438 286 438 z "},"⁶":{"ha":490,"x_min":36,"x_max":458,"o":"m 256 438 q 94 503 151 438 q 36 683 36 569 q 100 894 36 808 q 289 982 164 982 q 414 950 367 982 l 414 833 q 304 867 367 867 q 215 835 250 867 q 175 750 179 804 q 286 797 214 797 q 410 751 363 797 q 458 625 458 704 q 401 490 458 542 q 256 438 343 438 m 188 572 q 200 558 188 572 q 247 544 211 544 q 305 567 283 544 q 326 625 326 590 q 303 678 326 656 q 247 700 281 700 q 199 685 222 700 q 164 647 175 671 q 188 572 165 600 z "},"⁷":{"ha":451,"x_min":29,"x_max":421,"o":"m 204 447 l 60 447 l 269 861 l 29 861 l 29 972 l 421 972 l 421 868 l 204 447 z "},"⁸":{"ha":499,"x_min":29,"x_max":469,"o":"m 250 438 q 92 481 154 438 q 29 600 29 524 q 57 676 29 640 q 124 726 85 713 q 74 769 93 740 q 54 833 54 799 q 110 940 54 899 q 250 982 165 982 q 389 940 333 982 q 444 833 444 899 q 424 770 444 800 q 375 726 404 740 q 443 677 417 713 q 469 600 469 642 q 407 481 469 524 q 250 438 344 438 m 250 544 q 312 564 288 544 q 336 611 336 583 q 312 660 336 642 q 250 679 288 679 q 187 660 211 679 q 163 611 163 642 q 187 563 163 582 q 250 544 211 544 m 250 763 q 301 778 281 763 q 321 819 321 794 q 301 862 321 846 q 250 878 281 878 q 197 862 218 878 q 176 819 176 846 q 197 778 176 794 q 250 763 218 763 z "},"⁹":{"ha":490,"x_min":36,"x_max":458,"o":"m 238 982 q 400 916 342 982 q 458 736 458 850 q 393 525 458 614 q 206 438 328 438 q 79 469 126 438 l 79 586 q 189 553 128 553 q 278 584 243 553 q 319 669 314 615 q 207 622 276 622 q 84 669 132 622 q 36 794 36 717 q 93 929 36 876 q 238 982 153 982 m 247 875 q 190 852 211 875 q 168 794 168 829 q 190 742 168 764 q 246 719 213 719 q 329 772 304 719 q 305 847 328 819 q 247 875 282 875 z "},"₀":{"ha":526,"x_min":26,"x_max":500,"o":"m 264 -10 q 89 71 153 -10 q 26 263 26 153 q 89 454 26 372 q 264 535 153 535 q 436 454 374 535 q 500 263 500 374 q 436 71 500 151 q 264 -10 374 -10 m 264 106 q 329 135 303 103 q 362 215 356 168 q 362 310 368 263 q 329 390 356 357 q 264 419 303 422 q 197 390 225 422 q 164 310 169 357 q 164 215 158 263 q 197 135 169 168 q 264 106 225 103 z "},"₁":{"ha":350,"x_min":24,"x_max":297,"o":"m 297 0 l 164 0 l 164 389 l 24 318 l 24 449 l 169 525 l 297 525 l 297 0 z "},"₂":{"ha":494,"x_min":53,"x_max":443,"o":"m 443 0 l 53 0 l 53 96 l 203 224 q 293 353 293 301 q 272 397 293 381 q 215 413 250 413 q 71 358 140 413 l 71 490 q 226 535 136 535 q 365 489 306 535 q 426 369 426 444 q 402 269 426 313 q 315 171 378 226 l 249 111 l 443 111 l 443 0 z "},"₃":{"ha":456,"x_min":31,"x_max":422,"o":"m 200 -10 q 31 32 101 -10 l 31 154 q 189 107 107 107 q 260 126 232 107 q 289 178 289 146 q 265 227 289 208 q 199 246 240 246 q 114 231 149 246 l 114 313 l 235 414 l 46 414 l 46 525 l 397 525 l 397 426 l 286 331 q 384 280 346 318 q 422 175 422 242 q 357 40 422 93 q 200 -10 292 -10 z "},"₄":{"ha":506,"x_min":18,"x_max":485,"o":"m 410 0 l 282 0 l 282 125 l 18 125 l 18 219 l 275 525 l 410 525 l 410 228 l 485 228 l 485 125 l 410 125 l 410 0 m 282 378 l 153 228 l 282 228 l 282 378 z "},"₅":{"ha":460,"x_min":35,"x_max":421,"o":"m 190 -10 q 35 28 100 -10 l 35 151 q 185 107 104 107 q 258 126 229 107 q 288 179 288 144 q 260 231 288 211 q 183 250 232 250 q 51 229 118 250 l 86 525 l 386 525 l 386 414 l 186 414 l 179 347 q 215 350 193 350 q 364 303 307 350 q 421 179 421 257 q 354 39 421 89 q 190 -10 286 -10 z "},"₆":{"ha":490,"x_min":36,"x_max":458,"o":"m 256 -10 q 94 56 151 -10 q 36 236 36 122 q 100 447 36 361 q 289 535 165 535 q 414 503 367 535 l 414 386 q 304 419 367 419 q 215 388 250 419 q 175 303 179 357 q 286 350 214 350 q 410 303 363 350 q 458 178 458 257 q 401 42 458 94 q 256 -10 343 -10 m 188 125 q 200 111 188 125 q 247 97 211 97 q 305 120 283 97 q 326 178 326 143 q 303 231 326 208 q 247 253 281 253 q 199 238 222 253 q 164 200 175 224 q 188 125 165 153 z "},"₇":{"ha":451,"x_min":29,"x_max":421,"o":"m 204 0 l 60 0 l 269 414 l 29 414 l 29 525 l 421 525 l 421 421 l 204 0 z "},"₈":{"ha":499,"x_min":29,"x_max":469,"o":"m 250 -10 q 92 33 154 -10 q 29 153 29 76 q 57 229 29 193 q 124 279 85 265 q 74 322 93 293 q 54 386 54 351 q 110 493 54 451 q 250 535 165 535 q 389 493 333 535 q 444 386 444 451 q 424 323 444 353 q 375 279 404 293 q 443 230 417 265 q 469 153 469 194 q 407 33 469 76 q 250 -10 344 -10 m 250 97 q 312 117 288 97 q 336 164 336 136 q 312 213 336 194 q 250 232 288 232 q 187 213 211 232 q 163 164 163 194 q 187 116 163 135 q 250 97 211 97 m 250 315 q 301 331 281 315 q 321 372 321 347 q 301 415 321 399 q 250 431 281 431 q 197 415 218 431 q 176 372 176 399 q 197 331 176 347 q 250 315 218 315 z "},"₉":{"ha":490,"x_min":36,"x_max":458,"o":"m 238 533 q 400 467 342 533 q 458 288 458 401 q 393 76 458 165 q 206 -11 328 -11 q 79 21 126 -11 l 79 138 q 189 104 126 104 q 278 135 243 104 q 319 221 314 167 q 207 174 276 174 q 84 221 132 174 q 36 346 36 268 q 93 481 36 428 q 238 533 153 533 m 247 426 q 190 403 211 426 q 168 346 168 381 q 190 293 168 315 q 246 271 213 271 q 329 324 304 271 q 305 399 328 371 q 247 426 282 426 z "},"₣":{"ha":925,"x_min":18,"x_max":872,"o":"m 160 150 l 18 150 l 18 293 l 160 293 l 160 972 l 872 972 l 872 790 l 360 790 l 360 596 l 756 596 l 756 418 l 360 418 l 360 293 l 567 293 l 567 150 l 360 150 l 360 0 l 160 0 l 160 150 z "},"₤":{"ha":836,"x_min":65,"x_max":774,"o":"m 178 503 l 65 503 l 65 613 l 178 613 l 178 660 q 272 903 178 814 q 529 992 367 992 q 751 943 658 992 l 751 757 q 561 804 665 804 q 378 632 378 804 l 378 613 l 671 613 l 671 503 l 378 503 l 378 418 l 671 418 l 671 308 l 378 308 l 378 265 q 338 179 378 204 l 774 179 l 774 0 l 65 0 l 65 179 l 85 179 q 160 203 142 179 q 178 293 178 228 l 178 308 l 65 308 l 65 418 l 178 418 l 178 503 z "},"₧":{"ha":1028,"x_min":24,"x_max":1019,"o":"m 350 0 l 150 0 l 150 592 l 24 592 l 24 746 l 150 746 l 150 972 l 575 972 q 797 911 708 972 q 907 746 885 850 l 1019 746 l 1019 592 l 901 592 q 787 440 872 496 q 575 385 701 385 l 350 385 l 350 0 m 350 797 l 350 556 l 561 556 q 674 587 633 556 q 714 676 714 618 q 674 766 714 735 q 561 797 633 797 l 350 797 z "},"€":{"ha":918,"x_min":42,"x_max":854,"o":"m 642 665 l 642 546 l 343 546 q 340 496 340 504 q 343 453 340 483 l 642 453 l 642 332 l 369 332 q 469 208 400 251 q 635 164 539 164 q 854 235 763 164 l 854 39 q 610 -19 756 -19 q 315 76 433 -19 q 156 332 194 176 l 42 332 l 42 453 l 138 453 q 136 499 136 464 q 139 546 136 504 l 42 546 l 42 665 l 163 665 q 325 901 206 811 q 610 992 444 992 q 833 940 739 992 l 833 751 q 635 808 739 808 q 379 665 447 808 l 642 665 z "},"₴":{"ha":835,"x_min":64,"x_max":772,"o":"m 772 539 l 64 539 l 64 649 l 468 649 q 514 725 514 675 q 356 815 514 815 q 128 769 232 815 l 128 949 q 382 992 222 992 q 629 928 531 992 q 729 747 729 865 q 690 649 729 682 l 772 649 l 772 539 m 449 -19 q 199 43 299 -19 q 100 229 100 108 q 161 363 100 310 l 64 363 l 64 472 l 772 472 l 772 363 l 397 363 q 314 257 314 322 q 483 160 314 160 q 611 175 538 160 q 728 215 679 192 l 728 32 q 449 -19 613 -19 z "},"₶":{"ha":1000,"x_min":31,"x_max":940,"o":"m 183 385 l 31 385 l 31 528 l 183 528 l 183 972 l 601 972 q 849 890 756 972 q 940 679 940 810 q 849 467 940 547 q 601 385 756 385 l 382 385 l 382 293 l 735 293 l 735 150 l 382 150 l 382 0 l 183 0 l 183 150 l 31 150 l 31 293 l 183 293 l 183 385 m 382 797 l 382 528 l 575 528 q 695 563 651 528 q 739 663 739 599 q 695 763 739 728 q 575 797 651 797 l 382 797 z "},"ℓ":{"ha":586,"x_min":83,"x_max":528,"o":"m 325 -18 q 144 47 206 -18 q 83 228 83 111 l 83 653 q 140 893 83 799 q 324 989 199 989 q 473 924 418 989 q 528 758 528 860 q 225 256 528 521 l 225 231 q 356 114 225 114 q 496 163 436 114 l 496 35 q 325 -18 435 -18 m 225 679 l 225 433 q 347 590 296 501 q 399 753 399 676 q 326 851 399 851 q 254 808 282 851 q 225 679 226 764 z "},"№":{"ha":1601,"x_min":107,"x_max":1549,"o":"m 1529 313 l 1076 313 l 1076 432 l 1529 432 l 1529 313 m 1126 913 q 1303 981 1194 981 q 1479 913 1411 981 q 1549 743 1549 843 q 1479 574 1549 643 q 1303 506 1411 506 q 1126 574 1194 506 q 1057 743 1057 643 q 1126 913 1057 843 m 1222 663 q 1303 631 1254 631 q 1382 663 1350 631 q 1414 743 1414 694 q 1382 824 1414 792 q 1303 856 1350 856 q 1222 824 1254 856 q 1192 743 1192 792 q 1222 663 1192 694 m 303 0 l 107 0 l 107 972 l 278 972 l 768 350 l 768 972 l 963 972 l 963 0 l 797 0 l 303 625 l 303 0 z "},"™":{"ha":950,"x_min":24,"x_max":886,"o":"m 563 540 l 454 540 l 454 972 l 556 972 l 671 815 l 783 972 l 886 972 l 886 540 l 776 540 l 776 797 l 699 694 l 643 694 l 563 799 l 563 540 m 265 540 l 156 540 l 156 874 l 24 874 l 24 972 l 397 972 l 397 874 l 265 874 l 265 540 z "},"Ω":{"ha":1100,"x_min":99,"x_max":1001,"o":"m 1001 531 q 963 333 1001 429 q 864 179 925 238 l 1000 179 l 1000 0 l 631 0 l 631 151 q 751 296 704 204 q 797 496 797 388 q 729 717 797 631 q 550 804 661 804 q 371 717 439 804 q 303 496 303 631 q 349 296 303 388 q 469 151 396 204 l 469 0 l 100 0 l 100 179 l 236 179 q 137 333 175 238 q 99 531 99 429 q 222 856 99 719 q 550 992 346 992 q 878 856 754 992 q 1001 531 1001 719 z "},"℮":{"ha":1090,"x_min":74,"x_max":1017,"o":"m 547 -19 q 210 114 344 -19 q 74 451 74 247 q 204 783 74 644 q 547 922 335 922 q 738 884 649 922 q 886 781 828 846 q 1017 489 1008 650 l 1017 449 l 232 449 l 232 164 q 547 28 357 28 q 776 91 675 28 q 931 265 878 154 l 983 265 q 821 63 935 143 q 547 -19 706 -19 m 232 742 l 232 494 l 861 494 l 861 742 q 547 878 733 878 q 232 742 357 878 z "},"⅓":{"ha":1101,"x_min":24,"x_max":1068,"o":"m 288 0 l 138 0 l 724 972 l 874 972 l 288 0 m 297 447 l 164 447 l 164 836 l 24 765 l 24 896 l 169 972 l 297 972 l 297 447 m 846 -10 q 676 32 747 -10 l 676 154 q 835 107 753 107 q 906 126 878 107 q 935 178 935 146 q 910 227 935 208 q 844 246 886 246 q 760 231 794 246 l 760 313 l 881 414 l 692 414 l 692 525 l 1043 525 l 1043 426 l 932 331 q 1030 280 992 318 q 1068 175 1068 242 q 1003 40 1068 93 q 846 -10 939 -10 z "},"⅔":{"ha":1232,"x_min":53,"x_max":1199,"o":"m 443 447 l 53 447 l 53 543 l 203 671 q 293 800 293 749 q 272 844 293 828 q 215 860 250 860 q 71 806 140 860 l 71 938 q 226 982 136 982 q 365 936 306 982 q 426 817 426 892 q 402 717 426 760 q 315 618 378 674 l 249 558 l 443 558 l 443 447 m 976 -10 q 807 32 878 -10 l 807 154 q 965 107 883 107 q 1037 126 1008 107 q 1065 178 1065 146 q 1041 227 1065 208 q 975 246 1017 246 q 890 231 925 246 l 890 313 l 1011 414 l 822 414 l 822 525 l 1174 525 l 1174 426 l 1063 331 q 1160 280 1122 318 q 1199 175 1199 242 q 1133 40 1199 93 q 976 -10 1069 -10 m 418 0 l 268 0 l 854 972 l 1004 972 l 418 0 z "},"⅕":{"ha":1076,"x_min":24,"x_max":1038,"o":"m 288 0 l 138 0 l 724 972 l 874 972 l 288 0 m 297 447 l 164 447 l 164 836 l 24 765 l 24 896 l 169 972 l 297 972 l 297 447 m 807 -10 q 651 28 717 -10 l 651 151 q 801 107 721 107 q 875 126 846 107 q 904 179 904 144 q 876 231 904 211 q 800 250 849 250 q 668 229 735 250 l 703 525 l 1003 525 l 1003 414 l 803 414 l 796 347 q 832 350 810 350 q 981 303 924 350 q 1038 179 1038 257 q 971 39 1038 89 q 807 -10 903 -10 z "},"⅖":{"ha":1207,"x_min":53,"x_max":1168,"o":"m 443 447 l 53 447 l 53 543 l 203 671 q 293 800 293 749 q 272 844 293 828 q 215 860 250 860 q 71 806 140 860 l 71 938 q 226 982 136 982 q 365 936 306 982 q 426 817 426 892 q 402 717 426 760 q 315 618 378 674 l 249 558 l 443 558 l 443 447 m 938 -10 q 782 28 847 -10 l 782 151 q 932 107 851 107 q 1006 126 976 107 q 1035 179 1035 144 q 1007 231 1035 211 q 931 250 979 250 q 799 229 865 250 l 833 525 l 1133 525 l 1133 414 l 933 414 l 926 347 q 963 350 940 350 q 1111 303 1054 350 q 1168 179 1168 257 q 1101 39 1168 89 q 938 -10 1033 -10 m 418 0 l 268 0 l 854 972 l 1004 972 l 418 0 z "},"⅗":{"ha":1136,"x_min":31,"x_max":1097,"o":"m 349 0 l 199 0 l 785 972 l 935 972 l 349 0 m 867 -10 q 711 28 775 -10 l 711 151 q 861 107 781 107 q 935 126 906 107 q 964 179 964 144 q 936 231 964 211 q 860 250 908 250 q 728 229 794 250 l 763 525 l 1063 525 l 1063 414 l 863 414 l 856 347 q 892 350 869 350 q 1040 303 983 350 q 1097 179 1097 257 q 1031 39 1097 89 q 867 -10 963 -10 m 200 438 q 31 479 101 438 l 31 601 q 189 554 107 554 q 260 574 232 554 q 289 625 289 593 q 265 674 289 656 q 199 693 240 693 q 114 678 149 693 l 114 760 l 235 861 l 46 861 l 46 972 l 397 972 l 397 874 l 286 778 q 384 727 346 765 q 422 622 422 689 q 357 488 422 540 q 200 438 292 438 z "},"⅘":{"ha":1194,"x_min":18,"x_max":1156,"o":"m 410 447 l 282 447 l 282 572 l 18 572 l 18 667 l 275 972 l 410 972 l 410 675 l 485 675 l 485 572 l 410 572 l 410 447 m 282 825 l 153 675 l 282 675 l 282 825 m 925 -10 q 769 28 833 -10 l 769 151 q 919 107 839 107 q 993 126 964 107 q 1022 179 1022 144 q 994 231 1022 211 q 918 250 967 250 q 786 229 853 250 l 821 525 l 1121 525 l 1121 414 l 921 414 l 914 347 q 950 350 928 350 q 1099 303 1042 350 q 1156 179 1156 257 q 1089 39 1156 89 q 925 -10 1021 -10 m 407 0 l 257 0 l 843 972 l 993 972 l 407 0 z "},"⅙":{"ha":1079,"x_min":24,"x_max":1047,"o":"m 288 0 l 138 0 l 724 972 l 874 972 l 288 0 m 297 447 l 164 447 l 164 836 l 24 765 l 24 896 l 169 972 l 297 972 l 297 447 m 844 -10 q 683 56 740 -10 q 625 236 625 122 q 689 447 625 361 q 878 535 753 535 q 1003 503 956 535 l 1003 386 q 893 419 956 419 q 803 388 839 419 q 764 303 768 357 q 875 350 803 350 q 999 303 951 350 q 1047 178 1047 257 q 989 42 1047 93 q 844 -10 932 -10 m 777 125 q 789 111 777 125 q 836 97 800 97 q 894 120 872 97 q 915 178 915 143 q 892 231 915 208 q 836 253 869 253 q 788 238 811 253 q 753 200 764 224 q 777 125 754 153 z "},"⅚":{"ha":1139,"x_min":35,"x_max":1107,"o":"m 904 -10 q 742 56 800 -10 q 685 236 685 122 q 749 447 685 361 q 938 535 814 535 q 1063 503 1015 535 l 1063 386 q 953 419 1014 419 q 863 388 899 419 q 824 303 828 357 q 935 350 863 350 q 1059 303 1011 350 q 1107 178 1107 257 q 1049 42 1107 94 q 904 -10 992 -10 m 837 125 q 848 111 837 125 q 896 97 860 97 q 953 120 932 97 q 975 178 975 143 q 952 231 975 208 q 896 253 929 253 q 847 238 871 253 q 813 200 824 224 q 837 125 814 153 m 190 438 q 35 475 100 438 l 35 599 q 185 554 104 554 q 258 573 229 554 q 288 626 288 592 q 260 678 288 658 q 183 697 232 697 q 51 676 118 697 l 86 972 l 386 972 l 386 861 l 186 861 l 179 794 q 215 797 193 797 q 364 751 307 797 q 421 626 421 704 q 354 486 421 536 q 190 438 286 438 m 347 0 l 197 0 l 783 972 l 933 972 l 347 0 z "},"⅛":{"ha":1111,"x_min":24,"x_max":1082,"o":"m 288 0 l 138 0 l 724 972 l 874 972 l 288 0 m 297 447 l 164 447 l 164 836 l 24 765 l 24 896 l 169 972 l 297 972 l 297 447 m 863 -10 q 704 33 767 -10 q 642 153 642 76 q 669 229 642 193 q 736 279 697 265 q 686 322 706 293 q 667 386 667 351 q 722 493 667 451 q 863 535 778 535 q 1001 493 946 535 q 1057 386 1057 451 q 1037 323 1057 353 q 988 279 1017 293 q 1056 230 1029 265 q 1082 153 1082 194 q 1019 33 1082 76 q 863 -10 957 -10 m 863 97 q 924 117 900 97 q 949 164 949 136 q 924 213 949 194 q 863 232 900 232 q 799 213 824 232 q 775 164 775 194 q 799 116 775 135 q 863 97 824 97 m 863 315 q 913 331 893 315 q 933 372 933 347 q 913 415 933 399 q 863 431 893 431 q 810 415 831 431 q 789 372 789 399 q 810 331 789 347 q 863 315 831 315 z "},"⅜":{"ha":1172,"x_min":31,"x_max":1143,"o":"m 349 0 l 199 0 l 785 972 l 935 972 l 349 0 m 924 -10 q 765 33 828 -10 q 703 153 703 76 q 731 229 703 193 q 797 279 758 265 q 747 322 767 293 q 728 386 728 351 q 783 493 728 451 q 924 535 839 535 q 1063 493 1007 535 q 1118 386 1118 451 q 1098 323 1118 353 q 1049 279 1078 293 q 1117 230 1090 265 q 1143 153 1143 194 q 1081 33 1143 76 q 924 -10 1018 -10 m 924 97 q 985 117 961 97 q 1010 164 1010 136 q 985 213 1010 194 q 924 232 961 232 q 860 213 885 232 q 836 164 836 194 q 860 116 836 135 q 924 97 885 97 m 924 315 q 974 331 954 315 q 994 372 994 347 q 974 415 994 399 q 924 431 954 431 q 871 415 892 431 q 850 372 850 399 q 871 331 850 347 q 924 315 892 315 m 200 438 q 31 479 101 438 l 31 601 q 189 554 107 554 q 260 574 232 554 q 289 625 289 593 q 265 674 289 656 q 199 693 240 693 q 114 678 149 693 l 114 760 l 235 861 l 46 861 l 46 972 l 397 972 l 397 874 l 286 778 q 384 727 346 765 q 422 622 422 689 q 357 488 422 540 q 200 438 292 438 z "},"⅝":{"ha":1171,"x_min":35,"x_max":1142,"o":"m 922 -10 q 764 33 826 -10 q 701 153 701 76 q 729 229 701 193 q 796 279 757 265 q 746 322 765 293 q 726 386 726 351 q 782 493 726 451 q 922 535 838 535 q 1061 493 1006 535 q 1117 386 1117 451 q 1097 323 1117 353 q 1047 279 1076 293 q 1115 230 1089 265 q 1142 153 1142 194 q 1079 33 1142 76 q 922 -10 1017 -10 m 922 97 q 984 117 960 97 q 1008 164 1008 136 q 984 213 1008 194 q 922 232 960 232 q 859 213 883 232 q 835 164 835 194 q 859 116 835 135 q 922 97 883 97 m 922 315 q 973 331 953 315 q 993 372 993 347 q 973 415 993 399 q 922 431 953 431 q 869 415 890 431 q 849 372 849 399 q 869 331 849 347 q 922 315 890 315 m 190 438 q 35 475 100 438 l 35 599 q 185 554 104 554 q 258 573 229 554 q 288 626 288 592 q 260 678 288 658 q 183 697 232 697 q 51 676 118 697 l 86 972 l 386 972 l 386 861 l 186 861 l 179 794 q 215 797 193 797 q 364 751 307 797 q 421 626 421 704 q 354 486 421 536 q 190 438 286 438 m 347 0 l 197 0 l 783 972 l 933 972 l 347 0 z "},"⅞":{"ha":1094,"x_min":29,"x_max":1065,"o":"m 271 0 l 121 0 l 707 972 l 857 972 l 271 0 m 846 -10 q 688 33 750 -10 q 625 153 625 76 q 653 229 625 193 q 719 279 681 265 q 669 322 689 293 q 650 386 650 351 q 706 493 650 451 q 846 535 761 535 q 985 493 929 535 q 1040 386 1040 451 q 1020 323 1040 353 q 971 279 1000 293 q 1039 230 1013 265 q 1065 153 1065 194 q 1003 33 1065 76 q 846 -10 940 -10 m 846 97 q 908 117 883 97 q 932 164 932 136 q 908 213 932 194 q 846 232 883 232 q 783 213 807 232 q 758 164 758 194 q 783 116 758 135 q 846 97 807 97 m 846 315 q 897 331 876 315 q 917 372 917 347 q 897 415 917 399 q 846 431 876 431 q 793 415 814 431 q 772 372 772 399 q 793 331 772 347 q 846 315 814 315 m 204 447 l 60 447 l 269 861 l 29 861 l 29 972 l 421 972 l 421 868 l 204 447 z "},"⅟":{"ha":632,"x_min":24,"x_max":874,"o":"m 297 447 l 164 447 l 164 836 l 24 765 l 24 896 l 169 972 l 297 972 l 297 447 m 288 0 l 138 0 l 724 972 l 874 972 l 288 0 z "},"←":{"ha":981,"x_min":58,"x_max":894,"o":"m 58 371 l 322 678 l 515 678 l 313 447 l 894 447 l 894 293 l 311 293 l 515 63 l 322 63 l 58 371 z "},"↑":{"ha":788,"x_min":86,"x_max":701,"o":"m 394 836 l 701 572 l 701 379 l 471 582 l 471 0 l 317 0 l 317 583 l 86 379 l 86 572 l 394 836 z "},"→":{"ha":981,"x_min":86,"x_max":922,"o":"m 668 447 l 465 678 l 658 678 l 922 371 l 658 63 l 465 63 l 669 293 l 86 293 l 86 447 l 668 447 z "},"↓":{"ha":788,"x_min":86,"x_max":701,"o":"m 393 -19 l 86 244 l 86 438 l 317 235 l 317 817 l 471 817 l 471 233 l 701 438 l 701 244 l 393 -19 z "},"∂":{"ha":856,"x_min":50,"x_max":781,"o":"m 374 -19 q 140 67 233 -19 q 50 294 50 153 q 142 540 50 440 q 376 640 233 640 q 613 526 532 640 q 547 744 613 650 q 358 839 482 839 q 165 785 256 839 l 165 929 q 382 989 256 989 q 672 856 564 989 q 781 501 781 725 q 689 146 781 294 q 560 25 642 69 q 374 -19 479 -19 m 390 128 q 533 190 476 128 q 603 361 590 253 q 527 462 579 424 q 413 500 475 500 q 276 446 333 500 q 219 304 219 392 q 267 177 219 226 q 390 128 314 128 z "},"∆":{"ha":1069,"x_min":22,"x_max":1047,"o":"m 1047 0 l 22 0 l 439 972 l 631 972 l 1047 0 m 533 724 l 303 176 l 764 176 l 533 724 z "},"∏":{"ha":1076,"x_min":51,"x_max":1025,"o":"m 390 -186 l 219 -186 l 219 819 l 51 819 l 51 972 l 1025 972 l 1025 819 l 856 819 l 856 -186 l 685 -186 l 685 819 l 390 819 l 390 -186 z "},"∑":{"ha":864,"x_min":60,"x_max":811,"o":"m 811 0 l 60 0 l 60 142 l 372 486 l 69 831 l 69 972 l 801 972 l 801 793 l 350 793 l 582 528 l 582 446 l 339 179 l 811 179 l 811 0 z "},"−":{"ha":989,"x_min":92,"x_max":897,"o":"m 897 372 l 92 372 l 92 547 l 897 547 l 897 372 z "},"∕":{"ha":760,"x_min":13,"x_max":749,"o":"m 163 0 l 13 0 l 599 972 l 749 972 l 163 0 z "},"∙":{"ha":344,"x_min":51,"x_max":293,"o":"m 172 247 q 86 283 121 247 q 51 369 51 318 q 86 454 51 419 q 172 489 121 489 q 258 454 222 489 q 293 369 293 419 q 258 283 293 318 q 172 247 222 247 z "},"√":{"ha":1014,"x_min":8,"x_max":994,"o":"m 600 0 l 444 0 l 200 539 l 8 539 l 8 693 l 314 693 l 522 222 l 819 972 l 994 972 l 600 0 z "},"∞":{"ha":1115,"x_min":49,"x_max":1067,"o":"m 307 156 q 126 225 207 156 q 49 421 49 296 q 128 610 49 542 q 308 681 208 681 q 558 535 454 681 q 665 640 600 599 q 810 681 731 681 q 993 606 919 681 q 1067 421 1067 529 q 993 229 1067 306 q 810 156 919 156 q 672 194 739 156 q 557 300 606 232 q 307 156 450 156 m 324 296 q 482 419 408 296 q 322 542 401 542 q 238 506 271 542 q 204 421 204 469 q 238 333 204 369 q 324 296 271 296 m 794 296 q 879 333 847 296 q 911 421 911 369 q 879 506 911 472 q 792 540 847 540 q 633 419 706 540 q 794 296 703 296 z "},"∫":{"ha":722,"x_min":-103,"x_max":706,"o":"m 569 989 q 706 963 653 989 l 706 801 q 611 819 660 819 q 451 658 479 819 l 346 1 q 246 -208 325 -131 q 33 -286 167 -286 q -103 -260 -50 -286 l -103 -99 q -8 -117 -57 -117 q 151 44 124 -117 l 257 701 q 357 911 278 833 q 569 989 436 989 z "},"≈":{"ha":911,"x_min":92,"x_max":819,"o":"m 646 475 q 454 513 572 475 q 264 551 338 551 q 92 486 154 551 l 92 663 q 161 706 113 689 q 264 724 210 724 q 454 683 333 724 q 646 644 571 644 q 819 711 756 644 l 819 535 q 749 492 797 508 q 646 475 701 475 m 646 156 q 453 194 571 156 q 264 233 336 233 q 92 167 156 233 l 92 343 q 161 387 113 369 q 264 404 210 404 q 454 364 333 404 q 646 325 571 325 q 819 392 756 325 l 819 215 q 749 172 797 189 q 646 156 701 156 z "},"≠":{"ha":890,"x_min":92,"x_max":799,"o":"m 396 529 l 92 529 l 92 706 l 489 706 l 560 842 l 735 842 l 664 706 l 799 706 l 799 529 l 571 529 l 500 392 l 799 392 l 799 214 l 407 214 l 331 67 l 156 67 l 232 214 l 92 214 l 92 392 l 325 392 l 396 529 z "},"≤":{"ha":890,"x_min":92,"x_max":799,"o":"m 799 439 l 799 244 l 92 503 l 92 671 l 799 929 l 799 735 l 300 588 l 799 439 m 797 25 l 92 25 l 92 201 l 797 201 l 797 25 z "},"≥":{"ha":890,"x_min":92,"x_max":799,"o":"m 799 671 l 799 503 l 92 244 l 92 439 l 590 588 l 92 735 l 92 929 l 799 671 m 93 201 l 799 201 l 799 25 l 93 25 l 93 201 z "},"⋅":{"ha":365,"x_min":63,"x_max":304,"o":"m 183 417 q 97 452 132 417 q 63 539 63 488 q 97 624 63 589 q 183 658 132 658 q 269 624 233 658 q 304 539 304 589 q 269 452 304 488 q 183 417 233 417 z "},"◊":{"ha":785,"x_min":44,"x_max":742,"o":"m 476 0 l 308 0 l 44 486 l 308 972 l 476 972 l 742 486 l 476 0 m 221 486 l 394 154 l 567 486 l 394 818 l 221 486 z "},"":{"ha":17,"x_min":-660,"x_max":-292,"o":"m -490 1057 l -660 1057 l -528 1260 l -292 1260 l -490 1057 z "},"":{"ha":903,"x_min":57,"x_max":847,"o":"m 667 53 q 451 -19 576 -19 q 239 51 331 -19 q 101 238 147 121 q 57 486 57 354 q 236 919 57 778 q 451 992 326 992 q 665 921 572 992 q 803 733 757 850 q 847 486 847 619 q 667 53 847 194 m 451 164 q 597 257 546 164 q 649 486 649 350 q 597 715 649 622 q 451 808 546 808 q 307 715 358 808 q 256 486 256 622 q 307 257 256 350 q 451 164 358 164 z "},"":{"ha":903,"x_min":104,"x_max":796,"o":"m 796 0 l 104 0 l 104 146 l 390 406 q 525 550 489 496 q 564 668 564 606 q 518 767 564 731 q 397 804 472 804 q 135 693 261 804 l 135 899 q 418 992 253 992 q 660 910 557 992 q 763 694 763 828 q 717 513 763 592 q 557 328 675 438 l 390 175 l 796 175 l 796 0 z "},"":{"ha":903,"x_min":100,"x_max":788,"o":"m 396 -19 q 100 58 224 -19 l 100 249 q 385 160 228 160 q 531 203 474 160 q 588 322 588 247 q 535 437 588 393 q 394 481 482 481 q 257 454 324 481 l 257 586 l 489 800 l 131 800 l 131 972 l 744 972 l 744 822 l 525 621 q 708 525 629 603 q 788 322 788 449 q 675 74 788 167 q 396 -19 564 -19 z "},"":{"ha":903,"x_min":32,"x_max":857,"o":"m 714 0 l 519 0 l 519 243 l 32 243 l 32 388 l 517 972 l 714 972 l 714 404 l 857 404 l 857 243 l 714 243 l 714 0 m 519 721 l 253 404 l 519 404 l 519 721 z "},"":{"ha":903,"x_min":99,"x_max":782,"o":"m 375 -19 q 99 50 221 -19 l 99 238 q 367 160 222 160 q 522 203 461 160 q 582 322 582 246 q 523 439 582 394 q 365 483 464 483 q 132 442 250 483 l 196 972 l 715 972 l 715 800 l 343 800 l 322 635 q 415 644 365 644 q 678 556 576 644 q 782 322 782 467 q 664 71 782 163 q 375 -19 546 -19 z "},"":{"ha":903,"x_min":85,"x_max":825,"o":"m 472 -19 q 187 101 289 -19 q 85 436 85 222 q 113 644 85 546 q 194 822 140 743 q 334 946 247 900 q 531 992 421 992 q 750 929 656 992 l 750 749 q 553 811 658 811 q 364 736 433 811 q 288 547 296 663 q 514 638 365 638 q 736 551 646 638 q 825 324 825 467 q 724 76 825 172 q 472 -19 624 -19 m 460 153 q 580 199 533 153 q 626 319 626 246 q 579 436 626 390 q 460 482 532 482 q 353 447 403 482 q 282 360 303 413 q 333 207 286 261 q 460 153 381 153 z "},"":{"ha":903,"x_min":110,"x_max":796,"o":"m 385 0 l 172 0 l 569 793 l 110 793 l 110 972 l 796 972 l 796 818 l 385 0 z "},"":{"ha":903,"x_min":63,"x_max":839,"o":"m 658 518 q 790 424 740 489 q 839 276 839 358 q 726 60 839 139 q 451 -19 617 -19 q 175 60 288 -19 q 63 276 63 139 q 112 424 63 358 q 243 518 161 489 q 143 601 179 547 q 107 722 107 656 q 204 917 107 842 q 451 992 303 992 q 696 917 597 992 q 794 722 794 842 q 758 601 794 656 q 658 518 722 547 m 300 703 q 344 616 300 650 q 451 582 388 582 q 558 616 515 582 q 601 703 601 650 q 558 791 601 757 q 451 825 515 825 q 344 791 388 825 q 300 703 300 757 m 632 289 q 581 390 632 350 q 451 431 529 431 q 322 390 374 431 q 269 289 269 350 q 322 189 269 229 q 451 149 374 149 q 581 189 529 149 q 632 289 632 229 z "},"":{"ha":903,"x_min":78,"x_max":818,"o":"m 431 992 q 716 871 614 992 q 818 536 818 750 q 790 328 818 426 q 709 151 763 229 q 569 26 656 72 q 372 -19 482 -19 q 153 43 247 -19 l 153 224 q 350 161 244 161 q 538 236 469 161 q 615 425 607 313 q 389 335 538 335 q 167 419 256 335 q 78 649 78 504 q 178 896 78 800 q 431 992 279 992 m 443 819 q 323 773 369 819 q 276 653 276 726 q 324 536 276 582 q 443 490 371 490 q 550 525 500 490 q 621 614 600 560 q 569 766 617 713 q 443 819 522 819 z "},"":{"ha":903,"x_min":68,"x_max":838,"o":"m 261 347 q 261 306 261 347 q 315 208 261 264 q 453 153 369 153 q 590 208 536 153 q 644 347 644 265 q 590 485 644 431 q 453 540 536 540 q 315 485 369 540 q 261 347 261 431 m 68 347 q 176 606 68 501 q 453 711 283 711 q 729 606 622 711 q 838 347 838 500 q 729 86 838 192 q 453 -18 621 -18 q 176 86 285 -18 q 68 347 68 192 z "},"":{"ha":903,"x_min":149,"x_max":824,"o":"m 824 0 l 149 0 l 149 172 l 397 172 l 397 479 l 192 375 l 192 571 l 419 693 l 593 693 l 593 172 l 824 172 l 824 0 z "},"":{"ha":903,"x_min":119,"x_max":783,"o":"m 783 0 l 119 0 l 119 147 q 413 304 314 246 l 483 349 q 551 447 551 397 q 426 531 551 531 q 146 429 293 531 l 146 618 q 444 711 281 711 q 665 647 581 711 q 751 472 751 582 q 539 214 751 311 l 449 172 l 783 172 l 783 0 z "},"":{"ha":903,"x_min":99,"x_max":786,"o":"m 394 -286 q 99 -208 222 -286 l 99 -18 q 383 -107 226 -107 q 529 -64 472 -107 q 586 53 586 -21 q 534 165 586 122 q 393 207 482 207 q 256 181 322 207 l 256 313 l 488 521 l 129 521 l 129 693 l 743 693 l 743 543 l 524 347 q 707 253 626 329 q 786 53 786 181 q 674 -193 786 -101 q 394 -286 563 -286 z "},"":{"ha":903,"x_min":32,"x_max":857,"o":"m 714 -278 l 515 -278 l 515 0 l 32 0 l 32 146 l 517 693 l 714 693 l 714 163 l 857 163 l 857 0 l 714 0 l 714 -278 m 515 457 l 254 163 l 515 163 l 515 457 z "},"":{"ha":903,"x_min":118,"x_max":801,"o":"m 394 -286 q 118 -217 240 -286 l 118 -29 q 386 -107 242 -107 q 541 -64 481 -107 q 601 56 601 -21 q 543 171 601 128 q 385 214 485 214 q 151 171 272 214 l 214 693 l 733 693 l 733 521 l 360 521 l 342 364 q 433 375 386 375 q 697 288 594 375 q 801 56 801 200 q 683 -194 801 -106 q 394 -286 567 -286 z "},"":{"ha":903,"x_min":85,"x_max":825,"o":"m 472 -19 q 187 101 289 -19 q 85 436 85 222 q 113 644 85 546 q 194 822 140 743 q 334 946 247 900 q 531 992 421 992 q 750 929 656 992 l 750 749 q 553 811 658 811 q 364 736 433 811 q 288 547 296 663 q 514 638 365 638 q 736 551 646 638 q 825 324 825 467 q 724 76 825 172 q 472 -19 624 -19 m 460 153 q 580 199 533 153 q 626 319 626 246 q 579 436 626 390 q 460 482 532 482 q 353 447 403 482 q 282 360 303 413 q 333 207 286 261 q 460 153 381 153 z "},"":{"ha":903,"x_min":110,"x_max":796,"o":"m 388 -278 l 176 -278 l 571 515 l 110 515 l 110 693 l 796 693 l 796 539 l 388 -278 z "},"":{"ha":903,"x_min":63,"x_max":839,"o":"m 658 518 q 790 424 740 489 q 839 276 839 358 q 726 60 839 139 q 451 -19 617 -19 q 175 60 288 -19 q 63 276 63 139 q 112 424 63 358 q 243 518 161 489 q 143 601 179 547 q 107 722 107 656 q 204 917 107 842 q 451 992 303 992 q 696 917 597 992 q 794 722 794 842 q 758 601 794 656 q 658 518 722 547 m 300 703 q 344 616 300 650 q 451 582 388 582 q 558 616 515 582 q 601 703 601 650 q 558 791 601 757 q 451 825 515 825 q 344 791 388 825 q 300 703 300 757 m 632 289 q 581 390 632 350 q 451 431 529 431 q 322 390 374 431 q 269 289 269 350 q 322 189 269 229 q 451 149 374 149 q 581 189 529 149 q 632 289 632 229 z "},"":{"ha":903,"x_min":86,"x_max":826,"o":"m 439 711 q 724 590 622 711 q 826 256 826 469 q 779 -12 826 104 q 626 -212 731 -137 q 381 -286 522 -286 q 161 -224 256 -286 l 161 -43 q 358 -106 253 -106 q 547 -38 478 -106 q 624 144 617 29 q 397 54 546 54 q 175 139 264 54 q 86 368 86 224 q 186 615 86 519 q 439 711 288 711 m 451 539 q 331 492 378 539 q 285 372 285 446 q 332 256 285 301 q 451 210 379 210 q 558 244 508 210 q 629 333 608 279 q 578 485 625 432 q 451 539 531 539 z "},"":{"ha":778,"x_min":22,"x_max":707,"o":"m 114 382 l 22 382 l 22 467 l 131 467 q 267 646 165 581 q 490 711 368 711 q 696 665 604 711 l 696 511 q 522 551 608 551 q 333 467 385 551 l 556 467 l 556 382 l 304 382 q 301 347 301 351 q 304 314 301 339 l 556 314 l 556 229 l 332 229 q 522 142 383 142 q 707 189 626 142 l 707 35 q 489 -18 608 -18 q 267 47 368 -18 q 131 229 167 114 l 22 229 l 22 314 l 114 314 q 113 349 113 321 q 113 366 113 353 q 114 382 114 379 z "},"":{"ha":711,"x_min":60,"x_max":661,"o":"m 440 -11 l 440 -137 l 267 -137 l 267 -14 q 60 47 133 0 l 60 221 q 187 165 110 188 q 343 142 264 142 q 463 200 463 142 q 428 243 463 228 q 392 256 410 251 l 340 268 q 310 276 329 271 q 285 283 292 281 q 110 363 161 317 q 60 499 60 410 q 114 632 60 579 q 267 703 168 685 l 267 831 l 440 831 l 440 706 q 625 647 550 692 l 625 481 q 374 553 501 553 q 263 497 263 553 q 269 477 263 486 q 281 464 275 468 q 301 451 288 460 q 332 442 310 449 q 361 433 354 436 l 435 418 q 606 340 550 392 q 661 199 661 288 q 602 63 661 118 q 440 -11 543 7 z "},"":{"ha":329,"x_min":44,"x_max":307,"o":"m 190 -375 l 44 -375 l 126 -92 l 307 -92 l 190 -375 z "},"":{"ha":665,"x_min":82,"x_max":583,"o":"m 333 769 q 153 834 222 769 q 82 1007 83 899 l 229 1007 q 257 933 229 961 q 332 906 285 906 q 406 933 378 906 q 435 1007 433 961 l 583 1007 q 511 833 582 897 q 333 769 442 769 z "},"":{"ha":903,"x_min":124,"x_max":807,"o":"m 807 0 l 124 0 l 124 175 l 375 175 l 375 758 l 169 654 l 169 850 l 397 972 l 571 972 l 571 175 l 807 175 l 807 0 z "},"":{"ha":781,"x_min":76,"x_max":693,"o":"m 624 461 l 693 461 l 693 378 l 76 378 l 76 461 l 421 461 q 469 508 469 478 q 344 561 469 561 q 136 524 239 561 l 136 671 q 364 713 239 713 q 556 676 472 713 q 630 622 603 658 q 657 536 657 585 q 624 461 657 489 m 153 240 l 76 240 l 76 324 l 693 324 l 693 240 l 358 240 q 306 188 306 225 q 440 133 306 133 q 651 172 551 133 l 651 22 q 421 -18 551 -18 q 285 -4 349 -18 q 169 51 221 10 q 117 158 117 93 q 153 240 117 211 z "},"":{"ha":851,"x_min":38,"x_max":790,"o":"m 347 0 l 157 0 l 157 81 l 38 81 l 38 165 l 157 165 l 157 219 l 38 219 l 38 339 l 157 339 l 157 693 l 517 693 q 717 627 644 693 q 790 456 790 561 q 713 283 790 347 q 507 219 636 219 l 347 219 l 347 165 l 576 165 l 576 81 l 347 81 l 347 0 m 479 549 l 347 549 l 347 339 l 479 339 q 575 367 540 339 q 610 443 610 394 q 575 521 610 493 q 479 549 540 549 z "},"":{"ha":792,"x_min":79,"x_max":707,"o":"m 181 274 l 79 274 l 79 393 l 181 393 l 181 454 q 263 642 181 572 q 490 711 346 711 q 686 675 606 711 l 686 518 q 518 551 597 551 q 408 518 447 551 q 368 426 368 485 l 368 393 l 628 393 l 628 274 l 368 274 l 368 232 q 333 149 368 174 l 707 149 l 707 0 l 79 0 l 79 149 l 115 149 q 181 228 181 149 l 181 274 z "},"":{"ha":833,"x_min":36,"x_max":797,"o":"m 321 283 l 118 283 l 118 368 l 279 368 l 36 693 l 246 693 l 418 447 l 592 693 l 797 693 l 549 368 l 715 368 l 715 283 l 511 283 l 511 221 l 715 221 l 715 136 l 511 136 l 511 0 l 321 0 l 321 136 l 118 136 l 118 221 l 321 221 l 321 283 z "},"":{"ha":868,"x_min":50,"x_max":819,"o":"m 243 347 q 243 306 243 347 q 297 208 243 264 q 435 153 351 153 q 572 208 518 153 q 626 347 626 265 q 572 485 626 431 q 435 540 518 540 q 297 485 351 540 q 243 347 243 431 m 50 347 q 158 606 50 501 q 435 711 265 711 q 711 606 604 711 q 819 347 819 500 q 711 86 819 192 q 435 -18 603 -18 q 158 86 267 -18 q 50 347 50 192 z "},"":{"ha":536,"x_min":39,"x_max":440,"o":"m 440 0 l 244 0 l 244 479 l 39 375 l 39 571 l 267 693 l 440 693 l 440 0 z "},"":{"ha":797,"x_min":61,"x_max":725,"o":"m 725 0 l 61 0 l 61 147 q 354 304 256 246 l 425 349 q 493 447 493 397 q 368 531 493 531 q 88 429 235 531 l 88 618 q 386 711 222 711 q 607 647 522 711 q 693 472 693 582 q 481 214 693 311 l 390 172 l 725 172 l 725 0 z "},"":{"ha":785,"x_min":36,"x_max":724,"o":"m 332 -286 q 36 -208 160 -286 l 36 -18 q 321 -107 164 -107 q 467 -64 410 -107 q 524 53 524 -21 q 472 165 524 122 q 331 207 419 207 q 193 181 260 207 l 193 313 l 425 521 l 67 521 l 67 693 l 681 693 l 681 543 l 461 347 q 644 253 564 329 q 724 53 724 181 q 611 -193 724 -101 q 332 -286 500 -286 z "},"":{"ha":890,"x_min":32,"x_max":857,"o":"m 714 -278 l 515 -278 l 515 0 l 32 0 l 32 146 l 517 693 l 714 693 l 714 163 l 857 163 l 857 0 l 714 0 l 714 -278 m 515 457 l 254 163 l 515 163 l 515 457 z "},"":{"ha":800,"x_min":54,"x_max":738,"o":"m 331 -286 q 54 -217 176 -286 l 54 -29 q 322 -107 178 -107 q 477 -64 417 -107 q 538 56 538 -21 q 479 171 538 128 q 321 214 421 214 q 88 171 208 214 l 150 693 l 669 693 l 669 521 l 296 521 l 278 364 q 369 375 322 375 q 633 288 531 375 q 738 56 738 200 q 619 -194 738 -106 q 331 -286 503 -286 z "},"":{"ha":886,"x_min":76,"x_max":817,"o":"m 464 -19 q 178 101 281 -19 q 76 436 76 222 q 104 644 76 546 q 185 822 132 743 q 326 946 239 900 q 522 992 413 992 q 742 929 647 992 l 742 749 q 544 811 650 811 q 356 736 425 811 q 279 547 288 663 q 506 638 357 638 q 728 551 638 638 q 817 324 817 467 q 715 76 817 172 q 464 -19 615 -19 m 451 153 q 572 199 525 153 q 618 319 618 246 q 571 436 618 390 q 451 482 524 482 q 344 447 394 482 q 274 360 294 413 q 325 207 278 261 q 451 153 372 153 z "},"":{"ha":782,"x_min":47,"x_max":733,"o":"m 325 -278 l 114 -278 l 508 515 l 47 515 l 47 693 l 733 693 l 733 539 l 325 -278 z "},"":{"ha":886,"x_min":54,"x_max":831,"o":"m 650 518 q 781 424 732 489 q 831 276 831 358 q 718 60 831 139 q 443 -19 608 -19 q 167 60 279 -19 q 54 276 54 139 q 103 424 54 358 q 235 518 153 489 q 135 601 171 547 q 99 722 99 656 q 196 917 99 842 q 443 992 294 992 q 688 917 589 992 q 786 722 786 842 q 750 601 786 656 q 650 518 714 547 m 292 703 q 335 616 292 650 q 443 582 379 582 q 550 616 507 582 q 593 703 593 650 q 550 791 593 757 q 443 825 507 825 q 335 791 379 825 q 292 703 292 757 m 624 289 q 572 390 624 350 q 443 431 521 431 q 313 390 365 431 q 261 289 261 350 q 313 189 261 229 q 443 149 365 149 q 572 189 521 149 q 624 289 624 229 z "},"":{"ha":886,"x_min":76,"x_max":817,"o":"m 429 711 q 715 590 613 711 q 817 256 817 469 q 769 -12 817 104 q 617 -212 721 -137 q 371 -286 513 -286 q 151 -224 244 -286 l 151 -43 q 349 -106 243 -106 q 537 -38 467 -106 q 614 144 607 29 q 388 54 536 54 q 165 139 254 54 q 76 368 76 224 q 176 615 76 519 q 429 711 278 711 m 442 539 q 322 492 368 539 q 275 372 275 446 q 322 256 275 301 q 442 210 369 210 q 549 244 499 210 q 619 333 599 279 q 568 485 615 432 q 442 539 521 539 z "},"ﬀ":{"ha":1090,"x_min":25,"x_max":1060,"o":"m 344 529 l 344 0 l 149 0 l 149 529 l 25 529 l 25 693 l 149 693 l 149 758 q 210 926 149 864 q 383 989 271 989 q 560 960 485 989 l 560 801 q 440 825 497 825 q 344 732 344 825 l 344 693 l 649 693 l 649 758 q 710 926 649 864 q 883 989 771 989 q 1060 960 985 989 l 1060 801 q 940 825 997 825 q 844 732 844 825 l 844 693 l 1060 693 l 1060 529 l 844 529 l 844 0 l 649 0 l 649 529 l 344 529 z "},"ﬁ":{"ha":950,"x_min":25,"x_max":863,"o":"m 844 0 l 649 0 l 649 529 l 344 529 l 344 0 l 149 0 l 149 529 l 25 529 l 25 693 l 149 693 l 149 758 q 210 926 149 864 q 383 989 271 989 q 560 960 485 989 l 560 801 q 440 825 497 825 q 344 732 344 825 l 344 693 l 844 693 l 844 0 m 629 876 q 663 960 629 926 q 746 994 697 994 q 828 960 794 994 q 863 876 863 926 q 828 794 863 828 q 746 760 794 760 q 663 794 697 760 q 629 876 629 828 z "},"ﬂ":{"ha":994,"x_min":25,"x_max":957,"o":"m 833 -18 q 698 28 747 -18 q 649 174 649 75 l 649 529 l 344 529 l 344 0 l 149 0 l 149 529 l 25 529 l 25 693 l 149 693 l 149 758 q 210 926 149 864 q 383 989 271 989 q 560 960 485 989 l 560 801 q 440 825 497 825 q 344 732 344 825 l 344 693 l 649 693 l 649 972 l 844 972 l 844 225 q 907 156 844 156 q 957 168 936 156 l 957 7 q 833 -18 907 -18 z "},"ﬃ":{"ha":1443,"x_min":25,"x_max":1363,"o":"m 844 529 l 844 0 l 649 0 l 649 529 l 344 529 l 344 0 l 149 0 l 149 529 l 25 529 l 25 693 l 149 693 l 149 758 q 210 926 149 864 q 383 989 271 989 q 560 960 485 989 l 560 801 q 440 825 497 825 q 344 732 344 825 l 344 693 l 649 693 l 649 758 q 710 926 649 864 q 883 989 771 989 q 1060 960 985 989 l 1060 801 q 940 825 997 825 q 844 732 844 825 l 844 693 l 1344 693 l 1344 0 l 1149 0 l 1149 529 l 844 529 m 1129 876 q 1163 960 1129 926 q 1246 994 1197 994 q 1328 960 1294 994 q 1363 876 1363 926 q 1328 794 1363 828 q 1246 760 1294 760 q 1163 794 1197 760 q 1129 876 1129 828 z "},"ﬄ":{"ha":1494,"x_min":25,"x_max":1457,"o":"m 844 529 l 844 0 l 649 0 l 649 529 l 344 529 l 344 0 l 149 0 l 149 529 l 25 529 l 25 693 l 149 693 l 149 758 q 210 926 149 864 q 383 989 271 989 q 560 960 485 989 l 560 801 q 440 825 497 825 q 344 732 344 825 l 344 693 l 649 693 l 649 758 q 710 926 649 864 q 883 989 771 989 q 1060 960 985 989 l 1060 801 q 940 825 997 825 q 844 732 844 825 l 844 693 l 1149 693 l 1149 972 l 1344 972 l 1344 225 q 1407 156 1344 156 q 1457 168 1436 156 l 1457 7 q 1333 -18 1407 -18 q 1198 28 1247 -18 q 1149 174 1149 75 l 1149 529 l 844 529 z "}}}
